<?xml version="1.0" encoding="utf-8"?>
<!-- Generator: Adobe Illustrator 16.0.0, SVG Export Plug-In . SVG Version: 6.00 Build 0)  -->
<!DOCTYPE svg PUBLIC "-//W3C//DTD SVG 1.1//EN" "http://www.w3.org/Graphics/SVG/1.1/DTD/svg11.dtd">
<svg version="1.1" id="Layer_1" xmlns="http://www.w3.org/2000/svg" xmlns:xlink="http://www.w3.org/1999/xlink" x="0px" y="0px"
	 width="45.724px" height="47.508px" viewBox="0 0 45.724 47.508" enable-background="new 0 0 45.724 47.508" xml:space="preserve">
<path fill="#FFFFFF" d="M45.669,23.18c-0.109-0.568-0.383-1.11-0.82-1.548V21.63c-0.004-0.004-0.009-0.007-0.014-0.011L24.09,0.875
	c-1.167-1.167-3.076-1.167-4.243,0v0c-1.167,1.167-1.167,3.076,0,4.242l15.636,15.636H3c-1.65,0-3,1.35-3,3c0,1.65,1.35,3,3,3
	h32.482L19.847,42.39c-1.167,1.166-1.167,3.076,0,4.242l0,0.001c1.167,1.166,3.076,1.166,4.242,0l20.748-20.748
	c0.004-0.004,0.008-0.006,0.011-0.009C45.578,25.146,45.852,24.127,45.669,23.18z"/>
</svg>
