<?xml version="1.0" encoding="utf-8"?>
<!-- Generator: Adobe Illustrator 16.0.0, SVG Export Plug-In . SVG Version: 6.00 Build 0)  -->
<!DOCTYPE svg PUBLIC "-//W3C//DTD SVG 1.1//EN" "http://www.w3.org/Graphics/SVG/1.1/DTD/svg11.dtd">
<svg version="1.1" id="Layer_1" xmlns="http://www.w3.org/2000/svg" xmlns:xlink="http://www.w3.org/1999/xlink" x="0px" y="0px"
	 width="60px" height="60px" viewBox="0 0 60 60" enable-background="new 0 0 60 60" xml:space="preserve">
<g>
	<path d="M60,5c0,2.75-2.25,5-5,5H20c-2.75,0-5-2.25-5-5l0,0c0-2.75,2.25-5,5-5h35C57.75,0,60,2.25,60,5L60,5z"/>
</g>
<g>
	<path d="M60,30c0,2.75-2.25,5-5,5H20c-2.75,0-5-2.25-5-5l0,0c0-2.75,2.25-5,5-5h35C57.75,25,60,27.25,60,30L60,30z"/>
</g>
<g>
	<path d="M60,55c0,2.75-2.25,5-5,5H20c-2.75,0-5-2.25-5-5l0,0c0-2.75,2.25-5,5-5h35C57.75,50,60,52.25,60,55L60,55z"/>
</g>
<circle cx="5" cy="5" r="5"/>
<circle cx="5" cy="30" r="5"/>
<circle cx="5" cy="55" r="5"/>
</svg>
