<?xml version="1.0" encoding="utf-8"?>
<!-- Generator: Adobe Illustrator 16.0.4, SVG Export Plug-In . SVG Version: 6.00 Build 0)  -->
<!DOCTYPE svg PUBLIC "-//W3C//DTD SVG 1.1//EN" "http://www.w3.org/Graphics/SVG/1.1/DTD/svg11.dtd">
<svg version="1.1" id="Layer_1" xmlns="http://www.w3.org/2000/svg" xmlns:xlink="http://www.w3.org/1999/xlink" x="0px" y="0px"
	 width="150px" height="600px" viewBox="627.103 -49.525 150 600" enable-background="new 627.103 -49.525 150 600"
	 xml:space="preserve">
<path fill="#FFFFFF" d="M625.938-54.526v610h152.33v-610H625.938z M701.543-21.103l0.073-0.098c0.132-0.196,0.274-0.387,0.427-0.569
	l0.025-0.031c4.723-6.243,11.596-9.681,19.34-9.681c13.878,0,25.166,12.057,25.166,26.875c0,7.646-3.064,14.954-8.414,20.048
	c-1.198,1.269-2.822,1.971-4.57,1.971c-3.467,0-6.291-2.822-6.293-6.291c0-1.731,0.694-3.347,1.951-4.548
	c3.143-3.257,4.741-7.022,4.741-11.182c0-7.296-4.707-14.843-12.581-14.843c-3.293,0-6.694,1.909-9.333,5.238
	c-1.15,1.734-3.11,2.786-5.22,2.786c-3.472,0-6.294-2.823-6.294-6.292c0-1.203,0.347-2.377,0.991-3.384H701.543z M746.577,40.169
	V76.51c0,3.405-2.771,6.174-6.175,6.174c-3.401,0-6.171-2.769-6.171-6.174V40.169c0-3.403,2.77-6.171,6.171-6.171
	C743.805,33.998,746.577,36.766,746.577,40.169z M708.224,40.169V76.51c0,3.405-2.771,6.174-6.177,6.174
	c-3.403,0-6.17-2.769-6.17-6.174V40.169c0-3.403,2.767-6.171,6.17-6.171C705.454,33.998,708.224,36.766,708.224,40.169z
	 M666.305-29.51c1.198-1.268,2.822-1.972,4.568-1.972c3.469,0,6.293,2.823,6.293,6.292c0,1.732-0.694,3.346-1.951,4.548
	c-3.143,3.257-4.741,7.022-4.741,11.182c0,7.295,4.707,14.843,12.579,14.843c3.297,0,6.699-1.909,9.337-5.239
	c1.148-1.733,3.11-2.786,5.221-2.786c3.471,0,6.293,2.823,6.293,6.292c0,1.203-0.347,2.376-0.993,3.384h0.012l-0.073,0.097
	c-0.129,0.195-0.272,0.384-0.425,0.565l-0.027,0.038c-4.723,6.241-11.596,9.678-19.344,9.678c-13.876,0-25.164-12.055-25.164-26.875
	C657.889-17.109,660.956-24.416,666.305-29.51z M657.52,40.169c0-3.403,2.77-6.171,6.175-6.171c3.403,0,6.173,2.768,6.173,6.171
	V76.51c0,3.405-2.77,6.174-6.173,6.174c-3.405,0-6.175-2.769-6.175-6.174V40.169z M657.52,117.254c0-3.404,2.771-6.173,6.175-6.173
	s6.173,2.77,6.173,6.173v25.468c0,3.404-2.77,6.174-6.173,6.174s-6.175-2.77-6.175-6.174V117.254z M662.025,178.237
	c0.185-0.347,0.427-0.709,0.702-1.038l0.337-0.478l0.056,0.046c1.065-1.056,2.426-1.632,3.882-1.632
	c3.188,0,5.782,2.823,5.782,6.292c0,1.113-0.278,2.214-0.8,3.179c-0.111,0.208-0.224,0.39-0.345,0.566
	c-1.442,2.359-2.553,4.421-2.553,7.479c0,10.461,12.764,16.938,21.911,16.978c6.76,0.029,13.256-2.407,17.381-6.513
	c2.964-2.953,4.53-6.571,4.53-10.465c0-3.059-1.11-5.12-2.566-7.5c-0.107-0.157-0.22-0.337-0.323-0.528
	c-0.531-0.984-0.808-2.084-0.808-3.197c0-3.47,2.595-6.292,5.782-6.292c1.45,0,2.811,0.574,3.876,1.627l0.043-0.038l0.348,0.46
	c0.283,0.343,0.525,0.705,0.729,1.087c2.926,4.441,4.483,9.536,4.483,14.698c0,16.131-14.764,29.253-32.91,29.253
	c-0.113,0-0.227-0.002-0.337-0.006l-0.234-0.006l-0.225,0.006c-0.108,0.004-0.22,0.006-0.333,0.006
	c-18.148,0-32.914-13.123-32.914-29.253C657.52,187.807,659.078,182.712,662.025,178.237z M737.441,238.703
	c1.447-0.792,3.116-0.971,4.698-0.506c1.583,0.463,2.891,1.516,3.68,2.963c0.494,0.905,0.758,1.928,0.758,2.956
	c0,2.261-1.232,4.339-3.215,5.419l-76.703,42.578c-1.45,0.792-3.118,0.971-4.701,0.506c-1.581-0.462-2.888-1.515-3.68-2.965
	c-0.493-0.902-0.756-1.926-0.756-2.951c0-2.264,1.234-4.34,3.216-5.425L737.441,238.703z M733.99,195.478
	c0-3.47,2.822-6.294,6.293-6.294c3.47,0,6.294,2.824,6.294,6.294c0,3.469-2.824,6.292-6.294,6.292
	C736.812,201.77,733.99,198.947,733.99,195.478z M740.402,292.868h-28.419c-3.404,0-6.173-2.767-6.173-6.17
	c0-3.404,2.769-6.175,6.173-6.175h28.419c3.403,0,6.175,2.771,6.175,6.175C746.577,290.102,743.805,292.868,740.402,292.868z
	 M746.577,317.666v36.339c0,3.406-2.771,6.175-6.175,6.175c-3.401,0-6.171-2.769-6.171-6.175v-36.339
	c0-3.403,2.77-6.173,6.171-6.173C743.805,311.493,746.577,314.263,746.577,317.666z M708.224,317.666v36.339
	c0,3.406-2.771,6.175-6.177,6.175c-3.403,0-6.17-2.769-6.17-6.175v-36.339c0-3.403,2.767-6.173,6.17-6.173
	C705.454,311.493,708.224,314.263,708.224,317.666z M657.522,244.119c0-3.404,2.77-6.173,6.173-6.173h29.521
	c3.403,0,6.17,2.769,6.17,6.173s-2.767,6.173-6.17,6.173h-29.521C660.292,250.292,657.522,247.523,657.522,244.119z M657.52,317.666
	c0-3.403,2.77-6.173,6.175-6.173c3.403,0,6.173,2.77,6.173,6.173v36.339c0,3.406-2.77,6.175-6.173,6.175
	c-3.405,0-6.175-2.769-6.175-6.175V317.666z M657.708,377.704c0.438-1.589,1.468-2.914,2.902-3.728
	c1.432-0.813,3.101-1.021,4.69-0.583l38.091,10.695c2.668,0.735,4.532,3.181,4.532,5.946c0,0.553-0.073,1.106-0.222,1.642
	c-0.438,1.591-1.47,2.916-2.904,3.729c-1.434,0.815-3.1,1.021-4.688,0.583l-38.093-10.697c-2.668-0.731-4.532-3.179-4.532-5.944
	C657.485,378.795,657.56,378.241,657.708,377.704z M721.148,532.31H663.66c-3.404,0-6.175-2.767-6.175-6.173
	c0-3.403,2.771-6.174,6.175-6.174h57.488c3.406,0,6.173,2.771,6.173,6.174C727.321,529.543,724.554,532.31,721.148,532.31z
	 M740.283,532.431c-3.471,0-6.293-2.824-6.293-6.294c0-3.471,2.822-6.291,6.293-6.291c3.47,0,6.294,2.82,6.294,6.291
	C746.577,529.607,743.752,532.431,740.283,532.431z M740.402,501.57h-28.419c-3.404,0-6.173-2.771-6.173-6.172
	c0-3.406,2.769-6.175,6.173-6.175h28.419c3.403,0,6.175,2.769,6.175,6.175C746.577,498.799,743.805,501.57,740.402,501.57z
	 M743.362,458.235l-76.703,42.578c-1.45,0.793-3.118,0.972-4.701,0.505c-1.581-0.462-2.888-1.513-3.68-2.963
	c-0.493-0.904-0.756-1.926-0.756-2.953c0-2.264,1.234-4.338,3.216-5.421l76.703-42.575c1.447-0.792,3.116-0.975,4.698-0.508
	c1.583,0.466,2.891,1.518,3.68,2.965c0.494,0.904,0.758,1.926,0.758,2.953C746.577,455.077,745.344,457.156,743.362,458.235z
	 M657.522,452.821c0-3.406,2.77-6.173,6.173-6.173h29.521c3.403,0,6.17,2.767,6.17,6.173c0,3.403-2.767,6.172-6.17,6.172h-29.521
	C660.292,458.992,657.522,456.224,657.522,452.821z M742.096,408.72l-76.791,22.375c-3.286,0.902-6.691-1.029-7.597-4.308
	c-0.148-0.54-0.224-1.091-0.224-1.646c0-2.765,1.864-5.211,4.534-5.946l76.79-22.378c3.287-0.906,6.694,1.027,7.597,4.311
	c0.151,0.535,0.225,1.089,0.225,1.642C746.63,405.534,744.768,407.982,742.096,408.72z M745.926,145.808
	c-0.127,0.292-0.893,1.498-1.127,1.755c-6.373,8.212-17.605,13.686-30.395,13.686c-12.79,0-24.022-5.474-30.393-13.686
	c-0.236-0.258-1.002-1.464-1.129-1.755c-0.506-0.927-0.794-1.991-0.794-3.121c0-3.605,2.932-6.538,6.536-6.538
	c2.382,0,4.465,1.284,5.607,3.189c0.152,0.163,0.303,0.33,0.438,0.505l0.003-0.001c3.687,5.162,11.539,8.865,19.731,8.865
	c8.191,0,16.044-3.703,19.731-8.865l0.002,0.001c0.137-0.175,0.283-0.342,0.438-0.505c1.145-1.906,3.225-3.189,5.605-3.189
	c3.605,0,6.539,2.933,6.539,6.538C746.721,143.817,746.434,144.881,745.926,145.808z M740.182,123.826
	c-2.381,0-4.461-1.282-5.605-3.189c-0.155-0.163-0.302-0.329-0.438-0.505l-0.002,0.002c-3.688-5.163-11.54-8.865-19.731-8.865
	c-8.192,0-16.045,3.702-19.731,8.865l-0.003-0.002c-0.135,0.176-0.285,0.342-0.438,0.505c-1.143,1.907-3.226,3.189-5.607,3.189
	c-3.604,0-6.536-2.933-6.536-6.538c0-1.128,0.288-2.193,0.794-3.121c0.127-0.292,0.893-1.497,1.129-1.755
	c6.37-8.213,17.603-13.688,30.393-13.688c12.789,0,24.021,5.475,30.395,13.688c0.234,0.258,1,1.463,1.127,1.755
	c0.508,0.928,0.795,1.993,0.795,3.121C746.721,120.893,743.788,123.826,740.182,123.826z"/>
</svg>
