<?xml version="1.0" encoding="utf-8"?>
<!-- Generator: Adobe Illustrator 16.0.0, SVG Export Plug-In . SVG Version: 6.00 Build 0)  -->
<!DOCTYPE svg PUBLIC "-//W3C//DTD SVG 1.1//EN" "http://www.w3.org/Graphics/SVG/1.1/DTD/svg11.dtd">
<svg version="1.1" id="Layer_1" xmlns="http://www.w3.org/2000/svg" xmlns:xlink="http://www.w3.org/1999/xlink" x="0px" y="0px"
	 width="10px" height="9.999px" viewBox="1102.436 570.165 10 9.999" enable-background="new 1102.436 570.165 10 9.999"
	 xml:space="preserve">
<path fill="#FFFFFF" d="M1102.436,570.165v9.999h10v-9.999H1102.436z M1109.665,572.367c0-0.249,0.202-0.451,0.45-0.451
	c0.249,0,0.451,0.202,0.451,0.451v2.154c0,0.248-0.202,0.45-0.451,0.45c-0.248,0-0.45-0.202-0.45-0.45V572.367z M1104.313,572.364
	c0-0.249,0.202-0.451,0.451-0.451c0.248,0,0.45,0.202,0.45,0.451v4.195c0,0.249-0.202,0.451-0.45,0.451
	c-0.249,0-0.451-0.202-0.451-0.451V572.364z M1104.765,578.416c-0.254,0-0.46-0.206-0.46-0.459c0-0.254,0.206-0.46,0.46-0.46
	c0.253,0,0.459,0.206,0.459,0.46C1105.224,578.21,1105.018,578.416,1104.765,578.416z M1107.459,577.965
	c0,0.249-0.202,0.451-0.451,0.451c-0.248,0-0.45-0.202-0.45-0.451v-2.074c0-0.248,0.202-0.45,0.45-0.45s0.451,0.202,0.451,0.45
	V577.965z M1110.548,578.092c-0.034,0.116-0.11,0.211-0.217,0.269c-0.065,0.036-0.141,0.056-0.216,0.056
	c-0.164,0-0.316-0.09-0.395-0.234l-3.108-5.599c-0.058-0.106-0.07-0.228-0.036-0.344c0.033-0.115,0.11-0.21,0.216-0.269
	c0.066-0.035,0.141-0.055,0.216-0.055c0.165,0,0.316,0.09,0.396,0.234l3.107,5.599
	C1110.568,577.854,1110.582,577.977,1110.548,578.092z"/>
</svg>
