<?xml version="1.0" encoding="utf-8"?>
<!-- Generator: Adobe Illustrator 16.0.0, SVG Export Plug-In . SVG Version: 6.00 Build 0)  -->
<!DOCTYPE svg PUBLIC "-//W3C//DTD SVG 1.1//EN" "http://www.w3.org/Graphics/SVG/1.1/DTD/svg11.dtd">
<svg version="1.1" id="Layer_1" xmlns="http://www.w3.org/2000/svg" xmlns:xlink="http://www.w3.org/1999/xlink" x="0px" y="0px"
	 width="610px" height="152.33px" viewBox="397.103 174.309 610 152.33" enable-background="new 397.103 174.309 610 152.33"
	 xml:space="preserve">
<path fill="#FFFFFF" d="M1007.103,174.309h-610v152.33h610V174.309z M973.68,249.914l0.098,0.073
	c0.196,0.132,0.387,0.273,0.569,0.427l0.03,0.025c6.243,4.723,9.682,11.596,9.682,19.34c0,13.878-12.058,25.166-26.875,25.166
	c-7.646,0-14.954-3.064-20.048-8.414c-1.27-1.198-1.972-2.822-1.972-4.57c0-3.467,2.822-6.291,6.291-6.293
	c1.731,0,3.348,0.694,4.548,1.951c3.258,3.143,7.022,4.741,11.183,4.741c7.296,0,14.843-4.707,14.843-12.581
	c0-3.293-1.909-6.694-5.238-9.333c-1.733-1.15-2.785-3.11-2.785-5.22c0-3.473,2.822-6.294,6.292-6.294
	c1.202,0,2.377,0.347,3.384,0.99L973.68,249.914L973.68,249.914z M912.407,294.948h-36.341c-3.405,0-6.174-2.771-6.174-6.175
	c0-3.401,2.769-6.171,6.174-6.171h36.341c3.403,0,6.171,2.77,6.171,6.171C918.578,292.176,915.811,294.948,912.407,294.948z
	 M912.407,256.595h-36.341c-3.405,0-6.174-2.771-6.174-6.177c0-3.403,2.769-6.17,6.174-6.17h36.341c3.403,0,6.171,2.768,6.171,6.17
	C918.578,253.825,915.811,256.595,912.407,256.595z M982.086,214.676c1.269,1.198,1.973,2.822,1.973,4.568
	c0,3.469-2.823,6.293-6.292,6.293c-1.732,0-3.347-0.694-4.548-1.951c-3.258-3.143-7.022-4.741-11.183-4.741
	c-7.295,0-14.843,4.707-14.843,12.579c0,3.297,1.909,6.699,5.239,9.337c1.732,1.148,2.786,3.11,2.786,5.222
	c0,3.471-2.823,6.293-6.292,6.293c-1.203,0-2.376-0.348-3.385-0.993v0.012l-0.097-0.073c-0.195-0.129-0.384-0.271-0.564-0.425
	l-0.038-0.026c-6.241-4.724-9.679-11.597-9.679-19.345c0-13.876,12.056-25.164,26.875-25.164
	C969.686,206.26,976.992,209.327,982.086,214.676z M912.407,205.891c3.403,0,6.171,2.771,6.171,6.176
	c0,3.402-2.768,6.173-6.171,6.173h-36.341c-3.405,0-6.174-2.771-6.174-6.173c0-3.405,2.769-6.176,6.174-6.176H912.407z
	 M835.322,205.891c3.404,0,6.173,2.771,6.173,6.176c0,3.403-2.77,6.173-6.173,6.173h-25.468c-3.404,0-6.174-2.771-6.174-6.173
	c0-3.403,2.77-6.176,6.174-6.176H835.322z M774.34,210.396c0.347,0.185,0.709,0.427,1.037,0.701l0.479,0.338l-0.046,0.056
	c1.056,1.065,1.632,2.426,1.632,3.882c0,3.188-2.823,5.782-6.292,5.782c-1.113,0-2.214-0.278-3.179-0.8
	c-0.208-0.111-0.391-0.225-0.566-0.346c-2.359-1.441-4.421-2.553-7.479-2.553c-10.461,0-16.938,12.764-16.979,21.911
	c-0.029,6.76,2.407,13.256,6.513,17.381c2.953,2.964,6.571,4.53,10.466,4.53c3.059,0,5.119-1.11,7.5-2.566
	c0.156-0.106,0.337-0.22,0.527-0.322c0.984-0.531,2.084-0.809,3.197-0.809c3.47,0,6.292,2.596,6.292,5.782
	c0,1.45-0.574,2.811-1.627,3.876l0.038,0.043l-0.46,0.348c-0.343,0.283-0.705,0.525-1.087,0.729
	c-4.441,2.926-9.536,4.483-14.698,4.483c-16.131,0-29.253-14.765-29.253-32.91c0-0.113,0.002-0.228,0.006-0.337l0.006-0.234
	l-0.006-0.225c-0.004-0.108-0.006-0.221-0.006-0.333c0-18.148,13.123-32.914,29.253-32.914
	C764.77,205.891,769.864,207.449,774.34,210.396z M713.873,285.812c0.792,1.446,0.972,3.115,0.507,4.697
	c-0.464,1.583-1.517,2.892-2.964,3.681c-0.904,0.493-1.928,0.758-2.956,0.758c-2.261,0-4.339-1.232-5.419-3.215l-42.577-76.703
	c-0.792-1.45-0.972-3.118-0.507-4.701c0.462-1.581,1.516-2.888,2.966-3.68c0.901-0.493,1.926-0.757,2.95-0.757
	c2.265,0,4.34,1.234,5.426,3.217L713.873,285.812z M757.099,282.361c3.47,0,6.294,2.822,6.294,6.293c0,3.47-2.824,6.294-6.294,6.294
	c-3.469,0-6.292-2.824-6.292-6.294C750.807,285.184,753.63,282.361,757.099,282.361z M659.708,288.773v-28.419
	c0-3.404,2.768-6.174,6.17-6.174c3.404,0,6.176,2.77,6.176,6.174v28.419c0,3.402-2.771,6.175-6.176,6.175
	C662.475,294.948,659.708,292.176,659.708,288.773z M634.91,294.948h-36.339c-3.406,0-6.175-2.771-6.175-6.175
	c0-3.401,2.769-6.171,6.175-6.171h36.339c3.402,0,6.173,2.77,6.173,6.171C641.083,292.176,638.312,294.948,634.91,294.948z
	 M634.91,256.595h-36.339c-3.406,0-6.175-2.771-6.175-6.177c0-3.403,2.769-6.17,6.175-6.17h36.339c3.402,0,6.173,2.768,6.173,6.17
	C641.083,253.825,638.312,256.595,634.91,256.595z M708.457,205.893c3.404,0,6.174,2.771,6.174,6.174v29.521
	c0,3.403-2.77,6.17-6.174,6.17c-3.403,0-6.173-2.767-6.173-6.17v-29.521C702.284,208.663,705.054,205.893,708.457,205.893z
	 M634.91,205.891c3.402,0,6.173,2.771,6.173,6.176c0,3.402-2.771,6.173-6.173,6.173h-36.339c-3.406,0-6.175-2.771-6.175-6.173
	c0-3.405,2.769-6.176,6.175-6.176H634.91z M574.872,206.079c1.589,0.438,2.914,1.468,3.728,2.902
	c0.813,1.432,1.021,3.101,0.584,4.689l-10.695,38.091c-0.735,2.668-3.182,4.532-5.946,4.532c-0.553,0-1.106-0.073-1.642-0.222
	c-1.592-0.438-2.916-1.47-3.729-2.904c-0.815-1.434-1.021-3.1-0.583-4.688l10.697-38.094c0.73-2.668,3.179-4.531,5.943-4.531
	C573.781,205.856,574.335,205.931,574.872,206.079z M420.267,269.52v-57.488c0-3.404,2.767-6.175,6.173-6.175
	c3.402,0,6.174,2.771,6.174,6.175v57.488c0,3.405-2.771,6.173-6.174,6.173C423.033,275.692,420.267,272.925,420.267,269.52z
	 M420.146,288.654c0-3.471,2.823-6.293,6.294-6.293s6.291,2.822,6.291,6.293c0,3.47-2.82,6.294-6.291,6.294
	S420.146,292.123,420.146,288.654z M451.006,288.773v-28.419c0-3.404,2.771-6.174,6.172-6.174c3.406,0,6.176,2.77,6.176,6.174
	v28.419c0,3.402-2.77,6.175-6.176,6.175C453.777,294.948,451.006,292.176,451.006,288.773z M494.341,291.733l-42.577-76.703
	c-0.794-1.45-0.973-3.118-0.506-4.701c0.462-1.581,1.514-2.888,2.963-3.68c0.904-0.493,1.927-0.756,2.953-0.756
	c2.265,0,4.338,1.233,5.421,3.216l42.575,76.703c0.792,1.446,0.976,3.115,0.508,4.697c-0.466,1.583-1.518,2.892-2.965,3.681
	c-0.903,0.494-1.926,0.758-2.953,0.758C497.499,294.948,495.42,293.715,494.341,291.733z M499.755,205.893
	c3.406,0,6.173,2.771,6.173,6.174v29.521c0,3.403-2.767,6.17-6.173,6.17c-3.402,0-6.172-2.767-6.172-6.17v-29.521
	C493.584,208.663,496.353,205.893,499.755,205.893z M543.855,290.467l-22.374-76.791c-0.902-3.286,1.028-6.69,4.308-7.597
	c0.54-0.148,1.091-0.224,1.646-0.224c2.765,0,5.211,1.863,5.945,4.533l22.379,76.79c0.905,3.287-1.027,6.694-4.312,7.598
	c-0.535,0.15-1.089,0.225-1.642,0.225C547.042,295.001,544.594,293.139,543.855,290.467z M806.769,294.297
	c-0.292-0.127-1.498-0.893-1.755-1.127c-8.212-6.373-13.687-17.604-13.687-30.395s5.475-24.022,13.687-30.394
	c0.258-0.235,1.464-1.002,1.755-1.129c0.927-0.506,1.991-0.794,3.121-0.794c3.604,0,6.538,2.932,6.538,6.536
	c0,2.382-1.284,4.465-3.189,5.606c-0.163,0.152-0.33,0.304-0.505,0.438l0.001,0.003c-5.162,3.688-8.865,11.539-8.865,19.731
	c0,8.19,3.703,16.044,8.865,19.73l-0.001,0.002c0.175,0.138,0.342,0.283,0.505,0.438c1.906,1.145,3.189,3.225,3.189,5.604
	c0,3.605-2.934,6.539-6.538,6.539C808.76,295.092,807.695,294.805,806.769,294.297z M828.75,288.553
	c0-2.381,1.282-4.461,3.189-5.604c0.163-0.155,0.329-0.302,0.505-0.438l-0.002-0.002c5.163-3.688,8.865-11.54,8.865-19.73
	c0-8.192-3.702-16.045-8.865-19.731l0.002-0.003c-0.176-0.135-0.342-0.285-0.505-0.438c-1.907-1.144-3.189-3.227-3.189-5.607
	c0-3.604,2.934-6.536,6.538-6.536c1.128,0,2.193,0.288,3.121,0.794c0.292,0.127,1.497,0.894,1.755,1.129
	c8.213,6.37,13.688,17.604,13.688,30.394c0,12.789-5.476,24.021-13.688,30.395c-0.258,0.234-1.463,1-1.755,1.127
	c-0.928,0.509-1.993,0.795-3.121,0.795C831.684,295.092,828.75,292.159,828.75,288.553z"/>
</svg>
