<?xml version="1.0" encoding="utf-8"?>
<!-- Generator: Adobe Illustrator 16.0.4, SVG Export Plug-In . SVG Version: 6.00 Build 0)  -->
<!DOCTYPE svg PUBLIC "-//W3C//DTD SVG 1.1//EN" "http://www.w3.org/Graphics/SVG/1.1/DTD/svg11.dtd">
<svg version="1.1" id="Layer_1" xmlns="http://www.w3.org/2000/svg" xmlns:xlink="http://www.w3.org/1999/xlink" x="0px" y="0px"
	 width="74.642px" height="40.589px" viewBox="0 0 74.642 40.589" enable-background="new 0 0 74.642 40.589" xml:space="preserve">
<g>
	<path fill="#FFFFFF" d="M22.947,16.832c-0.918,0.062-1.85,0.138-2.785,0.229h-0.004c-0.604,0.06-1.242,0.149-1.905,0.272
		c-0.671,0.127-1.361,0.283-2.064,0.472c-3.613,0.962-7.529,2.722-10.146,5.05c-0.631,0.561-1.307,1.311-1.856,2.188
		c-0.635,1.018-1.1,2.209-1.109,3.482c-0.01,1.268,0.432,2.643,1.604,4.053c0.693,0.836,1.645,1.686,2.902,2.529
		c0.657,0.439,1.338,0.861,2.07,1.273v0.002c0.357,0.201,0.723,0.396,1.098,0.588c0.004-0.404,0.022-0.801,0.058-1.189
		c0.183-2.102,0.763-3.92,1.306-5.189l0,0l0,0c0.426-0.994,0.931-1.975,1.492-2.938c0.557-0.949,1.164-1.867,1.801-2.748
		C17.827,21.566,20.724,18.734,22.947,16.832 M28.253,16.612c-0.076,0.056-0.166,0.119-0.271,0.192
		c-0.092,0.066-0.246,0.179-0.465,0.338c-0.785,0.57-1.564,1.166-2.328,1.779l0,0l-0.002,0.002
		c-0.701,0.562-1.377,1.138-2.021,1.723c-0.653,0.598-1.301,1.221-1.928,1.871c-3.197,3.32-5.862,7.271-7.121,11.684v0.004h-0.002
		l0,0c-0.028,0.098-0.057,0.211-0.084,0.334c-0.028,0.131-0.057,0.285-0.088,0.469c-0.113,0.715-0.195,1.703-0.102,2.838
		c-0.029,2.23-1.226,3.127-2.691,2.592c-2.955-1.184-5.258-2.48-6.997-3.965c-1.864-1.586-3.078-3.375-3.753-5.438l0,0l0,0
		c-0.229-0.703-0.354-1.402-0.391-2.094c-0.035-0.68,0.021-1.354,0.151-2.006c0.651-3.254,3.185-6.049,5.675-7.837l0,0h0.002
		c0.364-0.265,0.782-0.539,1.25-0.817c0.448-0.271,0.959-0.558,1.528-0.853c2.836-1.472,6.787-2.968,10.84-3.519
		c1.433-0.195,2.849-0.33,4.238-0.414c1.299-0.08,2.601-0.115,3.885-0.121c1.599-1.061,3.224-2.045,4.855-2.955
		c1.699-0.947,3.406-1.816,5.106-2.61c8.64-4.033,17.193-6.193,23.796-7.222c0.077-0.071,0.149-0.131,0.225-0.185
		C61.976,0.121,62.478,0,62.923,0l0,0v0.006c0.604,0,1.147,0.254,1.543,0.662c0.393,0.41,0.635,0.978,0.635,1.599h0.002l0,0l0,0
		h-0.002c0,0.623-0.242,1.188-0.635,1.601c-0.396,0.408-0.939,0.661-1.543,0.661v0.007l0,0h-0.002V4.527
		c-0.328,0-0.636-0.072-0.91-0.204c-0.068-0.032-0.138-0.071-0.197-0.106c-0.164-0.1-0.314-0.227-0.447-0.365
		c-1.328,0.164-2.674,0.371-4.03,0.62c-1.521,0.28-3.021,0.61-4.503,0.983c-6.866,1.731-13.692,4.502-19.815,8.097
		C30.925,14.832,30.7,15.185,28.253,16.612z"/>
	<path fill="#FFFFFF" d="M10.885,28.871h0.433c0.146,0,0.249-0.023,0.31-0.076s0.09-0.121,0.09-0.209
		c0-0.084-0.029-0.146-0.088-0.197c-0.06-0.049-0.164-0.074-0.313-0.074h-0.43L10.885,28.871L10.885,28.871z M10.885,27.793h0.368
		c0.133,0,0.227-0.023,0.277-0.068c0.052-0.049,0.077-0.113,0.077-0.199c0-0.08-0.025-0.143-0.077-0.188s-0.143-0.066-0.271-0.066
		h-0.376L10.885,27.793L10.885,27.793z M10.027,26.713h1.592c0.265,0,0.47,0.064,0.609,0.195c0.143,0.133,0.213,0.295,0.213,0.486
		c0,0.164-0.049,0.307-0.152,0.422c-0.065,0.076-0.166,0.137-0.295,0.184c0.197,0.047,0.344,0.127,0.437,0.244
		c0.092,0.115,0.141,0.262,0.141,0.434c0,0.146-0.033,0.273-0.1,0.389c-0.066,0.113-0.157,0.205-0.271,0.27
		c-0.071,0.043-0.18,0.072-0.323,0.09c-0.191,0.027-0.318,0.039-0.382,0.039h-1.467L10.027,26.713L10.027,26.713z M8.55,28.412
		l-0.306-0.988l-0.301,0.988H8.55z M8.728,29.01H7.76l-0.134,0.453H6.759l1.032-2.75h0.927l1.035,2.75H8.862L8.728,29.01z
		 M5.755,26.713h0.849v1.641c0,0.16-0.026,0.316-0.075,0.457c-0.052,0.146-0.131,0.271-0.238,0.381
		c-0.108,0.109-0.223,0.188-0.342,0.229c-0.165,0.062-0.362,0.092-0.594,0.092c-0.135,0-0.281-0.008-0.438-0.027
		c-0.156-0.02-0.292-0.057-0.396-0.109c-0.105-0.059-0.203-0.137-0.292-0.238s-0.147-0.209-0.181-0.318
		c-0.054-0.174-0.079-0.33-0.079-0.463v-1.641h0.849v1.68c0,0.148,0.042,0.268,0.124,0.352c0.083,0.086,0.198,0.127,0.347,0.127
		c0.146,0,0.262-0.041,0.346-0.125c0.082-0.082,0.124-0.201,0.124-0.354v-1.682H5.755z"/>
	<path fill="#FFFFFF" d="M25.458,32.533l-0.377-1.219l-0.37,1.219H25.458z M25.677,33.27h-1.195L24.32,33.83h-1.072l1.275-3.393
		h1.143l1.277,3.393h-1.098L25.677,33.27z"/>
	<path fill="#FFFFFF" d="M28.337,31.768h0.457c0.161,0,0.276-0.029,0.34-0.086c0.065-0.057,0.098-0.137,0.098-0.242
		c0-0.1-0.031-0.176-0.098-0.232c-0.062-0.055-0.177-0.082-0.336-0.082h-0.461V31.768z M28.337,33.1h0.534
		c0.183,0,0.308-0.031,0.384-0.094c0.071-0.064,0.108-0.15,0.108-0.26c0-0.102-0.035-0.182-0.108-0.242
		c-0.074-0.061-0.201-0.092-0.386-0.092h-0.532V33.1z M27.279,30.438h1.963c0.328,0,0.58,0.08,0.756,0.242
		c0.175,0.162,0.263,0.363,0.263,0.602c0,0.201-0.062,0.371-0.188,0.518c-0.084,0.096-0.205,0.172-0.365,0.227
		c0.244,0.059,0.423,0.158,0.537,0.303c0.113,0.143,0.174,0.322,0.174,0.539c0,0.176-0.043,0.334-0.122,0.475
		c-0.082,0.141-0.193,0.252-0.337,0.332c-0.088,0.051-0.221,0.088-0.397,0.111c-0.236,0.029-0.394,0.045-0.471,0.045h-1.812V30.438
		L27.279,30.438z"/>
	<path fill="#FFFFFF" d="M35.456,31.811h0.441c0.047,0,0.141-0.016,0.277-0.045c0.067-0.016,0.127-0.051,0.172-0.107
		c0.043-0.057,0.063-0.121,0.063-0.195c0-0.111-0.032-0.193-0.104-0.252c-0.07-0.061-0.201-0.09-0.392-0.09h-0.461v0.689H35.456z
		 M34.404,33.828v-3.393h1.746c0.324,0,0.572,0.027,0.744,0.084c0.17,0.055,0.309,0.156,0.416,0.309
		c0.104,0.148,0.156,0.334,0.156,0.551c0,0.188-0.041,0.35-0.121,0.484c-0.08,0.139-0.189,0.248-0.33,0.336
		c-0.092,0.053-0.215,0.098-0.369,0.131c0.125,0.043,0.217,0.086,0.273,0.129c0.036,0.025,0.094,0.084,0.168,0.176
		c0.071,0.092,0.12,0.16,0.146,0.211l0.508,0.982h-1.186l-0.562-1.035c-0.069-0.137-0.135-0.225-0.19-0.264
		c-0.074-0.053-0.16-0.076-0.256-0.076h-0.093v1.375H34.404z"/>
	<path fill="#FFFFFF" d="M43.005,32.533l-0.375-1.219l-0.373,1.219H43.005z M43.226,33.27h-1.197l-0.162,0.561h-1.071l1.274-3.393
		h1.144l1.276,3.393h-1.098L43.226,33.27z"/>
	<path fill="#FFFFFF" d="M47.468,31.203v1.855h0.256c0.221,0,0.375-0.027,0.469-0.074c0.092-0.047,0.166-0.133,0.217-0.254
		c0.054-0.121,0.08-0.318,0.08-0.59c0-0.357-0.059-0.604-0.176-0.738c-0.117-0.131-0.312-0.199-0.584-0.199H47.468z M46.419,30.438
		h1.559c0.307,0,0.555,0.039,0.744,0.123c0.188,0.086,0.346,0.203,0.469,0.357c0.123,0.158,0.213,0.338,0.271,0.545
		c0.055,0.207,0.082,0.428,0.082,0.658c0,0.363-0.041,0.645-0.125,0.846c-0.082,0.197-0.195,0.365-0.343,0.498
		c-0.146,0.139-0.305,0.227-0.473,0.271c-0.23,0.062-0.439,0.094-0.625,0.094h-1.559V30.438z"/>
	<path fill="#FFFFFF" d="M51.011,32.139c0,0.344,0.062,0.588,0.19,0.74c0.125,0.148,0.299,0.223,0.521,0.223
		c0.225,0,0.397-0.072,0.521-0.219c0.125-0.146,0.187-0.41,0.187-0.789c0-0.32-0.064-0.555-0.193-0.703
		c-0.129-0.145-0.305-0.217-0.524-0.217c-0.209,0-0.382,0.074-0.509,0.223C51.074,31.545,51.011,31.795,51.011,32.139
		 M49.962,32.135c0-0.553,0.153-0.984,0.463-1.293c0.309-0.311,0.737-0.465,1.289-0.465c0.563,0,1,0.152,1.307,0.457
		c0.305,0.301,0.457,0.727,0.457,1.271c0,0.396-0.066,0.723-0.201,0.979c-0.133,0.252-0.326,0.451-0.578,0.594
		c-0.252,0.139-0.565,0.209-0.942,0.209c-0.384,0-0.699-0.061-0.951-0.182c-0.25-0.123-0.453-0.316-0.609-0.578
		C50.04,32.861,49.962,32.531,49.962,32.135z"/>
	<path fill="#FFFFFF" d="M60.378,31.811h0.44c0.049,0,0.142-0.016,0.277-0.045c0.069-0.016,0.129-0.051,0.172-0.107
		s0.065-0.121,0.065-0.195c0-0.111-0.034-0.193-0.104-0.252c-0.068-0.061-0.201-0.09-0.391-0.09h-0.461L60.378,31.811L60.378,31.811
		z M59.325,33.828v-3.393h1.746c0.326,0,0.572,0.027,0.744,0.084c0.172,0.055,0.312,0.156,0.416,0.309
		c0.104,0.148,0.156,0.334,0.156,0.551c0,0.188-0.041,0.35-0.121,0.484c-0.08,0.139-0.189,0.248-0.33,0.336
		c-0.09,0.053-0.213,0.098-0.369,0.131c0.125,0.043,0.217,0.086,0.273,0.129c0.039,0.025,0.096,0.084,0.168,0.176
		c0.073,0.092,0.123,0.16,0.146,0.211l0.508,0.982h-1.186l-0.56-1.035c-0.071-0.137-0.137-0.225-0.19-0.264
		c-0.074-0.053-0.162-0.076-0.258-0.076h-0.092v1.375H59.325z"/>
	<path fill="#FFFFFF" d="M56.685,33.1h0.535c0.18,0,0.309-0.031,0.381-0.094c0.074-0.064,0.111-0.15,0.111-0.26
		c0-0.102-0.037-0.182-0.111-0.242c-0.072-0.061-0.201-0.092-0.385-0.092h-0.531V33.1z M56.685,31.768h0.453
		c0.166,0,0.278-0.029,0.344-0.086c0.062-0.057,0.096-0.137,0.096-0.242c0-0.1-0.032-0.176-0.096-0.232
		c-0.063-0.055-0.176-0.082-0.334-0.082h-0.463V31.768z M55.626,30.438h1.963c0.327,0,0.577,0.08,0.754,0.242
		c0.174,0.162,0.264,0.363,0.264,0.602c0,0.201-0.063,0.371-0.188,0.518c-0.084,0.096-0.207,0.172-0.367,0.227
		c0.242,0.059,0.424,0.158,0.539,0.303c0.114,0.143,0.172,0.322,0.172,0.539c0,0.176-0.041,0.334-0.123,0.475
		s-0.193,0.252-0.336,0.332c-0.088,0.051-0.222,0.088-0.398,0.111c-0.233,0.029-0.393,0.045-0.471,0.045h-1.809V30.438z"/>
	<path fill="#FFFFFF" d="M64.868,32.533l-0.375-1.219l-0.373,1.219H64.868z M65.087,33.27h-1.195l-0.164,0.561h-1.072l1.277-3.393
		h1.143l1.275,3.393h-1.098L65.087,33.27z"/>
	<polygon fill="#FFFFFF" points="71.954,30.438 73.005,30.438 73.005,32.994 74.642,32.994 74.642,33.828 71.954,33.828 	"/>
	<rect x="70.152" y="30.438" fill="#FFFFFF" width="1.053" height="3.393"/>
	<path fill="#FFFFFF" d="M66.503,32.709l0.998-0.064c0.02,0.162,0.065,0.287,0.133,0.369c0.104,0.141,0.264,0.207,0.463,0.207
		c0.147,0,0.264-0.035,0.348-0.104c0.08-0.072,0.121-0.152,0.121-0.244c0-0.088-0.039-0.166-0.117-0.238
		c-0.078-0.068-0.256-0.135-0.537-0.197c-0.461-0.102-0.789-0.236-0.983-0.41c-0.199-0.172-0.297-0.391-0.297-0.654
		c0-0.176,0.051-0.338,0.151-0.494c0.101-0.154,0.252-0.275,0.457-0.367c0.201-0.088,0.48-0.133,0.834-0.133
		c0.435,0,0.767,0.082,0.992,0.242c0.228,0.162,0.363,0.418,0.406,0.771l-0.988,0.059c-0.027-0.154-0.084-0.266-0.166-0.334
		c-0.086-0.068-0.199-0.105-0.35-0.105c-0.121,0-0.213,0.025-0.275,0.078c-0.062,0.053-0.092,0.115-0.092,0.189
		c0,0.055,0.025,0.104,0.074,0.146c0.051,0.045,0.168,0.086,0.354,0.123c0.459,0.1,0.783,0.201,0.982,0.299
		c0.199,0.104,0.346,0.23,0.434,0.379c0.09,0.148,0.135,0.316,0.135,0.504c0,0.215-0.059,0.418-0.182,0.6
		c-0.117,0.184-0.287,0.324-0.502,0.418c-0.217,0.096-0.49,0.143-0.818,0.143c-0.575,0-0.977-0.109-1.198-0.332
		C66.659,33.332,66.533,33.051,66.503,32.709"/>
	<polygon fill="#FFFFFF" points="37.796,30.438 40.984,30.438 40.984,31.271 39.915,31.271 39.915,33.828 38.865,33.828 
		38.865,31.271 37.796,31.271 	"/>
	<polygon fill="#FFFFFF" points="30.964,30.438 33.773,30.438 33.773,31.162 32.013,31.162 32.013,31.701 33.646,31.701 
		33.646,32.393 32.013,32.393 32.013,33.062 33.824,33.062 33.824,33.828 30.964,33.828 	"/>
	<path fill="#FFFFFF" d="M63.771,26.893l-0.486-1.584l-0.485,1.584H63.771z M64.056,27.848h-1.551l-0.216,0.727h-1.393l1.658-4.408
		h1.485l1.658,4.408h-1.428L64.056,27.848z"/>
	<path fill="#FFFFFF" d="M67.515,25.162v2.408h0.332c0.287,0,0.49-0.029,0.608-0.092c0.121-0.062,0.216-0.176,0.285-0.334
		c0.064-0.154,0.099-0.41,0.099-0.764c0-0.469-0.072-0.787-0.228-0.961c-0.151-0.17-0.404-0.258-0.758-0.258H67.515L67.515,25.162z
		 M66.154,24.166h2.023c0.399,0,0.721,0.053,0.967,0.16c0.244,0.109,0.449,0.264,0.609,0.465c0.159,0.205,0.274,0.439,0.348,0.709
		c0.072,0.268,0.106,0.553,0.106,0.855c0,0.471-0.053,0.836-0.157,1.098c-0.107,0.26-0.259,0.475-0.447,0.65
		c-0.189,0.174-0.396,0.291-0.613,0.35c-0.299,0.08-0.569,0.119-0.812,0.119h-2.023L66.154,24.166L66.154,24.166z"/>
	<path fill="#FFFFFF" d="M58.197,25.162v2.408h0.334c0.285,0,0.488-0.029,0.607-0.092c0.121-0.062,0.215-0.176,0.283-0.334
		c0.067-0.154,0.102-0.41,0.102-0.764c0-0.469-0.076-0.787-0.229-0.961c-0.15-0.17-0.404-0.258-0.757-0.258H58.197L58.197,25.162z
		 M56.835,24.166h2.022c0.398,0,0.721,0.053,0.969,0.16c0.244,0.109,0.447,0.264,0.607,0.465c0.16,0.205,0.274,0.439,0.35,0.709
		c0.072,0.268,0.107,0.553,0.107,0.855c0,0.471-0.053,0.836-0.16,1.098c-0.109,0.26-0.256,0.475-0.447,0.65
		c-0.188,0.176-0.395,0.291-0.612,0.35c-0.3,0.08-0.568,0.119-0.812,0.119h-2.022L56.835,24.166L56.835,24.166z"/>
	<path fill="#FFFFFF" d="M46.566,25.951h0.576c0.061,0,0.18-0.02,0.359-0.061c0.092-0.02,0.165-0.064,0.223-0.139
		c0.057-0.074,0.084-0.16,0.084-0.256c0-0.143-0.043-0.252-0.137-0.326c-0.089-0.076-0.261-0.117-0.507-0.117h-0.6L46.566,25.951
		L46.566,25.951z M45.199,28.572v-4.406h2.271c0.422,0,0.744,0.035,0.965,0.107c0.225,0.072,0.402,0.205,0.541,0.402
		c0.135,0.193,0.203,0.432,0.203,0.711c0,0.246-0.054,0.457-0.156,0.635c-0.105,0.18-0.248,0.32-0.43,0.434
		c-0.119,0.068-0.277,0.129-0.479,0.174c0.162,0.055,0.281,0.105,0.355,0.16c0.049,0.037,0.121,0.115,0.217,0.23
		c0.096,0.121,0.16,0.211,0.19,0.275l0.66,1.277h-1.541l-0.729-1.348c-0.092-0.172-0.176-0.287-0.246-0.34
		c-0.098-0.068-0.209-0.102-0.336-0.102h-0.119v1.787h-1.366V28.572z"/>
	<polygon fill="#FFFFFF" points="70.923,24.166 74.575,24.166 74.575,25.105 72.288,25.105 72.288,25.807 74.408,25.807 
		74.408,26.707 72.288,26.707 72.288,27.576 74.642,27.576 74.642,28.572 70.923,28.572 	"/>
	<rect x="54.474" y="24.166" fill="#FFFFFF" width="1.365" height="4.406"/>
	<path fill="#FFFFFF" d="M49.734,27.115l1.297-0.08c0.027,0.209,0.086,0.369,0.172,0.479c0.14,0.182,0.341,0.271,0.603,0.271
		c0.192,0,0.342-0.047,0.449-0.141c0.104-0.09,0.155-0.195,0.155-0.314c0-0.113-0.049-0.217-0.147-0.309
		c-0.103-0.092-0.334-0.174-0.699-0.256c-0.598-0.133-1.023-0.311-1.277-0.533c-0.258-0.225-0.387-0.506-0.387-0.852
		c0-0.229,0.068-0.441,0.199-0.645c0.131-0.201,0.328-0.357,0.592-0.475s0.623-0.174,1.084-0.174c0.562,0,0.994,0.104,1.289,0.314
		c0.295,0.209,0.471,0.543,0.527,1.002l-1.283,0.072c-0.035-0.197-0.107-0.342-0.217-0.432c-0.11-0.09-0.261-0.137-0.451-0.137
		c-0.158,0-0.279,0.033-0.357,0.102c-0.082,0.064-0.123,0.148-0.123,0.246c0,0.068,0.033,0.131,0.103,0.188
		c0.062,0.061,0.217,0.111,0.457,0.164c0.594,0.127,1.021,0.256,1.278,0.389c0.259,0.133,0.445,0.295,0.562,0.488
		s0.176,0.412,0.176,0.652c0,0.283-0.078,0.545-0.233,0.781c-0.156,0.24-0.375,0.422-0.656,0.545s-0.635,0.186-1.062,0.186
		c-0.748,0-1.268-0.145-1.557-0.436C49.933,27.928,49.771,27.561,49.734,27.115"/>
	<polygon fill="#FFFFFF" points="40.728,24.166 44.378,24.166 44.378,25.105 42.093,25.105 42.093,25.807 44.214,25.807 
		44.214,26.707 42.093,26.707 42.093,27.576 44.445,27.576 44.445,28.572 40.728,28.572 	"/>
	<polygon fill="#FFFFFF" points="35.503,24.166 36.929,24.166 37.921,27.338 38.9,24.166 40.283,24.166 38.646,28.572 
		37.171,28.572 	"/>
	<rect x="33.597" y="24.166" fill="#FFFFFF" width="1.365" height="4.406"/>
	<polygon fill="#FFFFFF" points="28.419,24.166 29.693,24.166 31.353,26.604 31.353,24.166 32.638,24.166 32.638,28.572 
		31.353,28.572 29.7,26.152 29.7,28.572 28.419,28.572 	"/>
	<path fill="#FFFFFF" d="M26.15,24.166h1.359v2.627c0,0.262-0.041,0.508-0.123,0.738c-0.08,0.232-0.207,0.434-0.381,0.607
		c-0.173,0.174-0.355,0.295-0.548,0.365c-0.266,0.098-0.579,0.146-0.952,0.146c-0.216,0-0.449-0.014-0.701-0.045
		c-0.254-0.029-0.465-0.09-0.638-0.178c-0.17-0.09-0.325-0.217-0.469-0.383c-0.141-0.164-0.237-0.332-0.289-0.508
		c-0.084-0.281-0.127-0.527-0.127-0.746v-2.627h1.359v2.689c0,0.242,0.067,0.432,0.199,0.562c0.133,0.137,0.317,0.205,0.557,0.205
		c0.234,0,0.418-0.066,0.551-0.199s0.201-0.324,0.201-0.568L26.15,24.166L26.15,24.166z"/>
</g>
</svg>
