<?xml version="1.0" encoding="utf-8"?>
<!-- Generator: Adobe Illustrator 16.0.4, SVG Export Plug-In . SVG Version: 6.00 Build 0)  -->
<!DOCTYPE svg PUBLIC "-//W3C//DTD SVG 1.1//EN" "http://www.w3.org/Graphics/SVG/1.1/DTD/svg11.dtd">
<svg version="1.1" id="Layer_1" xmlns="http://www.w3.org/2000/svg" xmlns:xlink="http://www.w3.org/1999/xlink" x="0px" y="0px"
	 width="650px" height="150px" viewBox="0 0 650 150" enable-background="new 0 0 650 150" xml:space="preserve">
<path fill="#FFFFFF" d="M-63.5-53v203h777V-53H-63.5z M535.784,56.646c6.203,0,12.126,2.486,16.257,6.824
	c1.029,0.971,1.599,2.289,1.599,3.703c0,2.814-2.29,5.104-5.103,5.104c-1.404,0-2.715-0.562-3.689-1.58
	c-2.641-2.549-5.693-3.846-9.066-3.846c-5.916,0-12.037,3.816-12.037,10.201c0,2.672,1.549,5.43,4.248,7.57
	c1.406,0.932,2.26,2.521,2.26,4.232c0,2.814-2.242,5.104-5.055,5.104c-0.977,0-1.697-0.281-2.697-0.805v0.008l-0.127-0.059
	c-0.158-0.105-0.334-0.221-0.48-0.344l-0.043-0.023c-5.061-3.83-7.855-9.4-7.855-15.684
	C513.994,65.801,523.769,56.646,535.784,56.646z M412.377,56h20.65c2.762,0,5.008,2.24,5.008,4.999c0,2.76-2.246,5.001-5.008,5.001
	h-20.65c-2.76,0-5.008-2.241-5.008-5.001C407.369,58.24,409.617,56,412.377,56z M155.5,61.354c0-2.76,2.24-5.004,5-5.004
	s5,2.244,5,5.004v23.938c0,2.76-2.239,5.006-5,5.006s-5-2.246-5-5.006V61.354z M96.5,61.324c0-2.76,2.238-5.006,4.999-5.006
	s5.001,2.246,5.001,5.006v46.619c0,2.76-2.241,5.004-5.001,5.004s-4.999-2.244-4.999-5.004V61.324z M101.464,128.562
	c-2.812,0-5.103-2.289-5.103-5.104s2.29-5.104,5.103-5.104c2.815,0,5.104,2.289,5.104,5.104S104.279,128.562,101.464,128.562z
	 M131.5,123.557c0,2.76-2.239,5.006-5,5.006c-2.76,0-5-2.246-5-5.006V100.51c0-2.76,2.241-5.006,5-5.006c2.761,0,5,2.246,5,5.006
	V123.557z M165.72,124.965c-0.376,1.283-1.229,2.344-2.403,2.984c-0.733,0.4-1.563,0.613-2.396,0.613
	c-1.834,0-3.519-0.998-4.396-2.607l-34.524-62.197c-0.642-1.178-0.787-2.529-0.41-3.812c0.375-1.283,1.229-2.342,2.403-2.984
	c0.733-0.4,1.562-0.611,2.396-0.611c1.833,0,3.518,0.998,4.396,2.605l34.524,62.199C165.951,122.33,166.098,123.682,165.72,124.965z
	 M202.836,128.426c-0.435,0.119-0.883,0.182-1.332,0.182c-2.241,0-4.226-1.514-4.824-3.678l-18.146-62.27
	c-0.731-2.666,0.836-5.428,3.496-6.16c0.438-0.121,0.885-0.182,1.333-0.182c2.243,0,4.227,1.512,4.822,3.676l18.146,62.271
	C207.066,124.932,205.498,127.693,202.836,128.426z M225.325,62.656l-8.673,30.889c-0.597,2.162-2.58,3.676-4.822,3.676
	c-0.449,0-0.896-0.061-1.332-0.182c-1.289-0.355-2.364-1.191-3.022-2.355c-0.661-1.16-0.828-2.512-0.475-3.801l8.674-30.889
	c0.596-2.164,2.579-3.676,4.821-3.676c0.448,0,0.897,0.061,1.333,0.182c1.288,0.355,2.363,1.189,3.023,2.354
	C225.513,60.016,225.68,61.367,225.325,62.656z M270.516,129h-29.47c-2.761,0-5.006-2.24-5.006-5s2.245-5,5.006-5h29.47
	c2.759,0,5.004,2.24,5.004,5S273.274,129,270.516,129z M270.516,97h-29.47c-2.761,0-5.006-2.241-5.006-5.002S238.285,87,241.046,87
	h29.47c2.759,0,5.004,2.237,5.004,4.998S273.274,97,270.516,97z M270.516,66h-29.47c-2.761,0-5.006-2.241-5.006-5.001
	c0-2.761,2.245-4.999,5.006-4.999h29.47c2.759,0,5.004,2.238,5.004,4.999C275.52,63.759,273.274,66,270.516,66z M300.5,123.557
	c0,2.76-2.24,5.006-5.001,5.006c-2.759,0-4.999-2.246-4.999-5.006V100.51c0-2.76,2.24-5.006,4.999-5.006
	c2.762,0,5.001,2.246,5.001,5.006V123.557z M334.955,124.965c-0.375,1.283-1.229,2.344-2.402,2.984
	c-0.736,0.4-1.564,0.613-2.397,0.613c-1.833,0-3.519-0.998-4.395-2.607l-34.525-62.197c-0.642-1.178-0.787-2.529-0.41-3.812
	c0.375-1.283,1.229-2.342,2.403-2.984c0.733-0.4,1.563-0.611,2.396-0.611c1.833,0,3.518,0.998,4.396,2.605l34.524,62.199
	C335.186,122.33,335.332,123.682,334.955,124.965z M335.5,85.291c0,2.76-2.239,5.006-5,5.006c-2.76,0-5-2.246-5-5.006V61.354
	c0-2.76,2.24-5.004,5-5.004c2.761,0,5,2.244,5,5.004V85.291z M369.598,128.562c-2.815,0-5.104-2.289-5.104-5.104
	s2.288-5.104,5.104-5.104c2.812,0,5.102,2.289,5.102,5.104S372.41,128.562,369.598,128.562z M363.402,97.588
	c2.395,2.402,5.328,3.674,8.486,3.674c2.479,0,4.151-0.9,6.08-2.082c0.128-0.088,0.274-0.178,0.428-0.26
	c0.799-0.432,1.691-0.656,2.594-0.656c2.813,0,5.103,2.104,5.103,4.688c0,1.178-0.466,2.281-1.32,3.145l0.03,0.035l-0.373,0.281
	c-0.277,0.23-0.571,0.426-0.881,0.592c-3.602,2.373-7.732,3.635-11.919,3.635c-13.081,0-23.722-11.971-23.722-26.688
	c0-0.092,0.002-0.184,0.006-0.271l0.004-0.191l-0.004-0.182c-0.004-0.088-0.006-0.18-0.006-0.27
	c0-14.717,10.641-26.689,23.722-26.689c4.187,0,8.317,1.262,11.948,3.652c0.28,0.148,0.574,0.346,0.84,0.568l0.389,0.273
	l-0.038,0.045c0.856,0.863,1.324,1.969,1.324,3.148c0,2.584-2.289,4.688-5.103,4.688c-0.902,0-1.795-0.223-2.578-0.646
	c-0.168-0.092-0.315-0.182-0.459-0.279c-1.913-1.17-3.586-2.072-6.064-2.072c-8.482,0-13.736,10.35-13.768,17.77
	C358.098,88.977,360.072,94.244,363.402,97.588z M414.5,118.475v0.002c0,0.111,0.383,0.23,0.514,0.355
	c1.547,0.928,2.641,2.615,2.641,4.545c0,2.924-2.354,5.303-5.276,5.303c-0.916,0-1.767-0.232-2.517-0.645
	c-0.238-0.104-1.209-0.723-1.417-0.914c-6.661-5.166-11.096-14.275-11.096-24.646s4.439-19.479,11.101-24.646
	c0.208-0.191,1.187-0.812,1.424-0.914c0.751-0.41,1.615-0.645,2.531-0.645c2.922,0,5.303,2.377,5.303,5.301
	c0,1.932-1.146,3.619-2.693,4.547c-0.131,0.123-0.514,0.246-0.514,0.355v0.002c-4,2.988-7.188,9.357-7.188,16
	S410.5,115.484,414.5,118.475z M436.955,127.121c-0.211,0.191-1.188,0.811-1.424,0.914c-0.752,0.412-1.615,0.645-2.531,0.645
	c-2.922,0-5.303-2.379-5.303-5.303c0-1.93,0.944-3.617,2.491-4.545c0.131-0.125,0.312-0.244,0.312-0.355v-0.002
	c4-2.99,7.188-9.357,7.188-16s-3.188-13.012-7.188-16v-0.002c0-0.109-0.181-0.232-0.312-0.355c-1.547-0.928-2.54-2.615-2.54-4.547
	c0-2.924,2.405-5.301,5.327-5.301c0.916,0,1.792,0.234,2.544,0.645c0.236,0.102,1.219,0.723,1.43,0.914
	c6.658,5.168,11.101,14.275,11.101,24.646S443.613,121.955,436.955,127.121z M495.535,129h-29.469c-2.76,0-5.006-2.24-5.006-5
	s2.246-5,5.006-5h29.469c2.76,0,5.006,2.24,5.006,5S498.295,129,495.535,129z M495.535,97h-29.469c-2.76,0-5.006-2.241-5.006-5.002
	S463.307,87,466.066,87h29.469c2.76,0,5.006,2.237,5.006,4.998S498.295,97,495.535,97z M495.535,66h-29.469
	c-2.76,0-5.006-2.241-5.006-5.001c0-2.761,2.246-4.999,5.006-4.999h29.469c2.76,0,5.006,2.238,5.006,4.999
	C500.541,63.759,498.295,66,495.535,66z M531.846,128.561c-6.201,0-12.127-2.484-16.258-6.822c-1.027-0.973-1.6-2.287-1.6-3.705
	c0-2.812,2.289-5.104,5.102-5.104c1.404,0,2.715,0.562,3.689,1.582c2.639,2.549,5.693,3.844,9.066,3.844
	c5.918,0,12.037-3.816,12.037-10.201c0-2.67-1.549-5.428-4.248-7.566c-1.406-0.934-2.26-2.523-2.26-4.236
	c0-2.812,2.429-5.104,5.243-5.104c0.973,0,1.879,0.282,2.877,0.802l-0.055,0.056c0.16,0.105,0.245,0.221,0.394,0.346l-0.01,0.02
	c5.062,3.832,7.832,9.402,7.832,15.684C553.656,119.408,543.861,128.561,531.846,128.561z"/>
</svg>
