<?xml version="1.0" encoding="utf-8"?>
<!-- Generator: Adobe Illustrator 16.0.4, SVG Export Plug-In . SVG Version: 6.00 Build 0)  -->
<!DOCTYPE svg PUBLIC "-//W3C//DTD SVG 1.1//EN" "http://www.w3.org/Graphics/SVG/1.1/DTD/svg11.dtd">
<svg version="1.1" id="Layer_1" xmlns="http://www.w3.org/2000/svg" xmlns:xlink="http://www.w3.org/1999/xlink" x="0px" y="0px"
	 width="80.105px" height="31.817px" viewBox="0 0 80.105 31.817" enable-background="new 0 0 80.105 31.817" xml:space="preserve">
<g>
	<path fill="#FFFFFF" d="M0.649,31.817c-0.723,0-0.838-0.482-0.367-1.119c0.455-0.613,1.312-1.129,1.978-1.129
		c0.387,0,0.547,0.104,0.643,0.295c-0.18,0.115-0.271,0.174-0.451,0.287c-0.071-0.143-0.178-0.23-0.459-0.23
		c-0.409,0-0.977,0.348-1.286,0.771c-0.33,0.449-0.263,0.777,0.209,0.777c0.215,0,0.459-0.062,0.67-0.164
		c0.116-0.162,0.172-0.242,0.287-0.406h-0.58c0.096-0.133,0.145-0.201,0.237-0.332H2.49c-0.256,0.365-0.385,0.547-0.639,0.914
		C1.494,31.663,1.058,31.817,0.649,31.817"/>
	<path fill="#FFFFFF" d="M6.531,31.817c-0.707,0-0.881-0.504-0.491-1.119c0.389-0.617,1.192-1.129,1.873-1.129
		c0.68,0,0.854,0.506,0.493,1.121C8.044,31.305,7.242,31.817,6.531,31.817 M7.692,29.918c-0.44,0-0.967,0.346-1.231,0.771
		c-0.267,0.426-0.16,0.775,0.295,0.775s0.979-0.344,1.229-0.77C8.24,30.272,8.136,29.918,7.692,29.918"/>
	<path fill="#FFFFFF" d="M14.109,29.606h0.422c-0.666,0.736-1.338,1.467-2.018,2.189h-0.355c0.062-0.875,0.101-1.314,0.191-2.189
		h0.43c-0.078,0.668-0.112,1.004-0.176,1.67C13.216,30.61,13.515,30.274,14.109,29.606"/>
	<path fill="#FFFFFF" d="M19.581,29.946H18.32c-0.092,0.227-0.139,0.342-0.231,0.564h1.129c-0.051,0.139-0.078,0.207-0.131,0.344
		h-1.138c-0.094,0.232-0.143,0.352-0.237,0.584h1.312c-0.053,0.139-0.078,0.207-0.131,0.342h-1.727
		c0.362-0.869,0.543-1.303,0.903-2.174h1.642C19.658,29.743,19.634,29.811,19.581,29.946"/>
	<path fill="#FFFFFF" d="M24.146,31.78c-0.141-0.301-0.207-0.453-0.34-0.756h-0.502c-0.092,0.303-0.139,0.455-0.232,0.756h-0.405
		c0.272-0.869,0.409-1.303,0.686-2.174h0.986c0.508,0,0.748,0.264,0.629,0.688c-0.101,0.361-0.385,0.578-0.729,0.662
		c0.152,0.332,0.229,0.494,0.386,0.822h-0.478V31.78z M24.201,29.954h-0.569c-0.09,0.293-0.135,0.438-0.226,0.73h0.58
		c0.285,0,0.508-0.145,0.57-0.367C24.628,30.077,24.49,29.954,24.201,29.954"/>
	<path fill="#FFFFFF" d="M30.343,29.606h0.383c-0.15,0.871-0.227,1.305-0.377,2.174h-0.34c-0.396-0.619-0.588-0.928-0.957-1.547
		c-0.125,0.619-0.189,0.928-0.314,1.547H28.34c0.184-0.869,0.274-1.303,0.457-2.174h0.36c0.353,0.6,0.535,0.9,0.914,1.504
		C30.181,30.506,30.233,30.206,30.343,29.606"/>
	<path fill="#FFFFFF" d="M35.329,31.817c-0.707,0-1.15-0.504-1.084-1.119c0.062-0.617,0.596-1.129,1.274-1.129
		c0.68,0,1.123,0.506,1.086,1.121S36.04,31.817,35.329,31.817 M35.484,29.918c-0.44,0-0.782,0.346-0.823,0.771
		s0.25,0.775,0.703,0.775c0.454,0,0.797-0.344,0.825-0.77C36.22,30.272,35.927,29.918,35.484,29.918"/>
	<path fill="#FFFFFF" d="M46.101,29.954h-1.266c0.021,0.238,0.033,0.355,0.057,0.592h1.138c0.018,0.143,0.024,0.209,0.041,0.352
		h-1.146c0.035,0.354,0.053,0.529,0.086,0.883h-0.404c-0.077-0.869-0.114-1.301-0.192-2.174h1.646
		C46.077,29.745,46.087,29.813,46.101,29.954"/>
	<path fill="#FFFFFF" d="M51.364,29.946h-1.261c0.043,0.227,0.066,0.342,0.109,0.564h1.129c0.031,0.139,0.045,0.207,0.074,0.344
		h-1.135c0.045,0.232,0.067,0.352,0.112,0.584h1.312c0.031,0.139,0.047,0.207,0.076,0.342h-1.726
		c-0.166-0.869-0.248-1.303-0.41-2.174h1.64C51.318,29.743,51.335,29.811,51.364,29.946"/>
	<path fill="#FFFFFF" d="M56.417,31.78h-0.859c-0.252-0.869-0.379-1.303-0.631-2.174h0.826c0.693,0,1.33,0.469,1.531,1.084
		C57.484,31.305,57.14,31.78,56.417,31.78 M55.858,29.954h-0.44c0.178,0.592,0.266,0.887,0.44,1.479h0.451
		c0.482,0,0.697-0.309,0.562-0.734C56.731,30.268,56.325,29.954,55.858,29.954"/>
	<path fill="#FFFFFF" d="M62.347,29.946h-1.258c0.09,0.227,0.137,0.342,0.227,0.564h1.13c0.059,0.139,0.088,0.207,0.146,0.344
		h-1.137c0.094,0.232,0.143,0.352,0.235,0.584h1.312c0.059,0.139,0.088,0.207,0.146,0.342h-1.725
		c-0.348-0.869-0.52-1.303-0.863-2.174h1.64C62.259,29.743,62.288,29.811,62.347,29.946"/>
	<path fill="#FFFFFF" d="M68.402,31.78c-0.388-0.301-0.578-0.453-0.957-0.756h-0.5c0.151,0.303,0.229,0.455,0.383,0.756h-0.404
		c-0.434-0.869-0.65-1.303-1.084-2.174h0.986c0.508,0,0.963,0.264,1.188,0.688c0.191,0.361,0.086,0.578-0.188,0.662
		c0.416,0.332,0.627,0.494,1.053,0.822h-0.478V31.78z M66.974,29.954h-0.567c0.146,0.293,0.219,0.438,0.366,0.73h0.58
		c0.285,0,0.392-0.145,0.273-0.367C67.501,30.077,67.263,29.954,66.974,29.954"/>
	<path fill="#FFFFFF" d="M74.802,31.78h-0.428c-0.228-0.209-0.342-0.314-0.564-0.523h-1.08c0.033,0.209,0.052,0.314,0.082,0.523
		h-0.412c-0.118-0.875-0.188-1.314-0.34-2.191h0.359C73.21,30.325,74.005,31.055,74.802,31.78 M72.517,30.045
		c0.062,0.35,0.095,0.523,0.15,0.871h0.781C73.073,30.569,72.888,30.395,72.517,30.045"/>
	<path fill="#FFFFFF" d="M76.942,29.606h0.392c0.524,0.73,0.787,1.098,1.311,1.826h1.203c0.104,0.139,0.154,0.209,0.258,0.348
		h-1.614C77.87,30.911,77.562,30.477,76.942,29.606"/>
	<polygon fill="#FFFFFF" points="64.538,15.903 69.048,24.03 76.075,24.03 78.94,28.184 65.958,28.184 60.317,15.903 	"/>
	<path fill="#FFFFFF" d="M59.56,15.903h-4.221l0.379,1.094c-0.441-0.217-0.893-0.404-1.354-0.562
		c-0.459-0.16-0.933-0.291-1.425-0.396c-0.487-0.104-0.998-0.182-1.53-0.232c-0.533-0.053-1.093-0.077-1.683-0.077
		c-0.303,0-0.588,0.012-0.86,0.03c-0.894,1.771-2.244,3.271-3.896,4.346c0.104,0.232,0.236,0.447,0.4,0.646
		c0.356,0.436,0.85,0.791,1.438,1.088c0.599,0.301,1.293,0.535,2.053,0.738c0.767,0.199,1.591,0.361,2.445,0.51
		c0.41,0.068,0.748,0.137,1.029,0.201s0.502,0.129,0.678,0.199c0.174,0.068,0.301,0.145,0.392,0.225
		c0.09,0.084,0.143,0.174,0.17,0.279c0.024,0.094,0.021,0.176-0.011,0.248c-0.03,0.07-0.094,0.133-0.186,0.182
		c-0.092,0.053-0.215,0.092-0.373,0.117c-0.156,0.023-0.348,0.037-0.574,0.037c-0.44,0-0.897-0.027-1.363-0.092
		c-0.459-0.061-0.93-0.154-1.396-0.281c-0.469-0.129-0.938-0.291-1.396-0.49c-0.457-0.195-0.905-0.43-1.342-0.697l-1.391,1.705
		l-2.121-3.771c-1.328,0.592-2.795,0.932-4.336,0.961l0.416,0.994h-2.676l0.534-1.094c-1.415-0.191-2.745-0.648-3.942-1.316
		l-3.353,5.281l-1.354-2.461c0.487-0.191,0.938-0.416,1.344-0.674c0.397-0.256,0.752-0.541,1.057-0.861
		c0.297-0.314,0.545-0.658,0.734-1.029c0.166-0.326,0.285-0.672,0.359-1.041c-1.31-0.975-2.398-2.227-3.181-3.672
		c-0.125-0.018-0.252-0.037-0.385-0.051c-0.449-0.051-0.951-0.08-1.508-0.08h-6.17l-0.783,1.812
		c0.008-0.098,0.006-0.188-0.002-0.275c-0.01-0.088-0.027-0.17-0.053-0.246s-0.058-0.148-0.095-0.217
		c-0.037-0.066-0.08-0.131-0.131-0.189c-0.123-0.146-0.274-0.271-0.461-0.385c-0.188-0.107-0.406-0.201-0.668-0.275
		c-0.258-0.072-0.555-0.129-0.896-0.166c-0.345-0.035-0.73-0.057-1.168-0.057h-7.07L1.165,28.188h8.946
		c0.688,0,1.349-0.053,1.974-0.152c0.62-0.098,1.207-0.242,1.754-0.426c0.541-0.182,1.041-0.404,1.494-0.658
		c0.45-0.25,0.854-0.531,1.211-0.84l-0.898,2.076h5.396l1.399-4.154h1.068l1.727,4.154h3.299h2.859h2.904l1.008-2.031h5.445
		l0.879,2.031h5.854l-0.483-0.867c0.447,0.189,0.916,0.355,1.397,0.5c0.484,0.145,0.984,0.266,1.498,0.363
		c0.515,0.098,1.039,0.172,1.57,0.223c0.535,0.049,1.076,0.074,1.621,0.074c0.803,0,1.537-0.068,2.19-0.203
		c0.648-0.133,1.218-0.328,1.695-0.582c0.476-0.25,0.861-0.557,1.15-0.91c0.287-0.352,0.477-0.748,0.569-1.184l0.896,2.586h5.396
		L59.56,15.903z M13.341,23.458l-0.021,0.039c-0.073,0.141-0.178,0.271-0.307,0.391c-0.131,0.119-0.289,0.225-0.473,0.312
		c-0.185,0.086-0.394,0.154-0.625,0.201c-0.23,0.049-0.486,0.076-0.763,0.076h-2.52l1.168-1.961h2.447
		c0.264,0,0.481,0.023,0.655,0.066c0.175,0.047,0.306,0.109,0.394,0.191c0.088,0.084,0.135,0.182,0.139,0.297
		C13.445,23.19,13.41,23.317,13.341,23.458 M15.181,19.223l-0.018,0.033c-0.064,0.123-0.152,0.232-0.263,0.328
		c-0.109,0.098-0.24,0.178-0.395,0.244c-0.158,0.066-0.336,0.115-0.537,0.15c-0.201,0.033-0.426,0.051-0.67,0.051h-2.015
		l0.929-1.557h1.928c0.238,0,0.439,0.016,0.602,0.049c0.163,0.031,0.287,0.08,0.371,0.143c0.086,0.062,0.136,0.143,0.146,0.232
		C15.271,18.993,15.244,19.102,15.181,19.223 M18.197,22.286c-0.063-0.154-0.153-0.297-0.266-0.424
		c-0.113-0.127-0.25-0.242-0.406-0.346c-0.156-0.105-0.336-0.195-0.531-0.277c-0.194-0.082-0.409-0.156-0.643-0.221
		c0.344-0.088,0.674-0.193,0.986-0.314c0.309-0.123,0.604-0.262,0.879-0.418c0.27-0.154,0.52-0.326,0.746-0.518
		c0.223-0.189,0.42-0.396,0.592-0.619L18.197,22.286z M27.608,19.833l-0.01,0.033c-0.045,0.176-0.127,0.336-0.244,0.475
		c-0.117,0.141-0.27,0.26-0.449,0.357c-0.182,0.1-0.395,0.174-0.629,0.225C26.041,20.975,25.776,21,25.498,21h-2.033l0.754-2.232
		h1.957c0.262,0,0.49,0.021,0.688,0.064s0.361,0.109,0.486,0.195c0.127,0.086,0.217,0.197,0.26,0.332S27.656,19.653,27.608,19.833
		 M56.237,20.983c-0.429-0.236-0.902-0.438-1.425-0.611c-0.514-0.172-1.075-0.318-1.672-0.447c-0.598-0.125-1.231-0.234-1.897-0.332
		c-0.375-0.057-0.681-0.109-0.931-0.166c-0.25-0.055-0.44-0.107-0.588-0.162c-0.147-0.059-0.252-0.117-0.319-0.18
		c-0.07-0.064-0.105-0.133-0.121-0.207l-0.004-0.029c-0.015-0.068-0.009-0.129,0.021-0.184c0.027-0.055,0.076-0.102,0.148-0.143
		c0.071-0.039,0.168-0.07,0.284-0.092c0.119-0.021,0.261-0.033,0.429-0.033c0.309,0,0.641,0.021,0.983,0.061
		c0.347,0.045,0.707,0.107,1.074,0.193c0.369,0.088,0.748,0.199,1.127,0.334c0.381,0.139,0.765,0.303,1.144,0.494l1.301-2.266
		l1.596,4.6C57.056,21.495,56.671,21.221,56.237,20.983"/>
	<path fill="#FFFFFF" d="M39.917,7.688c-5.816-2.002-11.146-1.84-11.902,0.362c-0.17,0.494-0.096,1.048,0.188,1.634
		c0.011-0.113,0.023-0.227,0.039-0.34c-0.127-0.402-0.139-0.785-0.018-1.135C28.95,6.1,34.147,5.977,39.831,7.934
		c5.686,1.957,9.707,5.254,8.979,7.364c-0.121,0.349-0.36,0.644-0.709,0.882c-0.057,0.1-0.117,0.195-0.18,0.293
		c0.584-0.287,0.981-0.678,1.152-1.172C49.831,13.1,45.733,9.691,39.917,7.688"/>
	<path fill="#FFFFFF" d="M29.683,5.385c0.061-0.098,0.135-0.188,0.213-0.271c0.084-0.084,0.172-0.158,0.271-0.222
		c0.1-0.063,0.202-0.112,0.311-0.147c0.107-0.031,0.197-0.041,0.271-0.031c0.071,0.013,0.127,0.043,0.161,0.091
		c0.035,0.049,0.058,0.11,0.058,0.189c0,0.078-0.019,0.17-0.056,0.271c-0.032,0.103-0.079,0.2-0.143,0.297
		c-0.061,0.098-0.133,0.188-0.213,0.271c-0.082,0.081-0.17,0.151-0.269,0.216c-0.1,0.062-0.2,0.111-0.309,0.145
		c-0.109,0.035-0.199,0.045-0.271,0.035c-0.072-0.012-0.127-0.039-0.164-0.086c-0.035-0.049-0.056-0.109-0.058-0.188
		s0.017-0.166,0.051-0.268C29.57,5.585,29.619,5.484,29.683,5.385 M29.806,5.757c-0.004,0.052,0,0.093,0.016,0.128
		c0.017,0.036,0.041,0.059,0.08,0.07c0.039,0.011,0.094,0.005,0.162-0.016c0.07-0.021,0.133-0.054,0.191-0.094
		c0.057-0.041,0.106-0.09,0.153-0.142c0.043-0.054,0.082-0.108,0.115-0.168c0.033-0.062,0.06-0.117,0.078-0.179
		c0.023-0.06,0.035-0.115,0.041-0.168c0.008-0.055,0.002-0.098-0.014-0.133c-0.015-0.035-0.041-0.06-0.08-0.07
		c-0.039-0.012-0.095-0.006-0.162,0.015c-0.07,0.021-0.133,0.054-0.191,0.095c-0.057,0.04-0.108,0.088-0.153,0.143
		s-0.086,0.111-0.117,0.173c-0.033,0.062-0.062,0.122-0.08,0.182C29.822,5.652,29.81,5.707,29.806,5.757"/>
	<path fill="#FFFFFF" d="M32.067,4.488c0.064-0.008,0.121-0.004,0.164,0.012c0.047,0.014,0.084,0.036,0.107,0.066
		c0.024,0.031,0.041,0.069,0.045,0.113c0.004,0.045-0.004,0.092-0.023,0.146c-0.026,0.081-0.069,0.153-0.127,0.217
		c-0.055,0.063-0.129,0.114-0.221,0.153l-0.002,0.004c0.037,0.008,0.062,0.021,0.082,0.037c0.018,0.019,0.031,0.043,0.037,0.07
		c0.006,0.026,0.008,0.059,0.002,0.092c-0.004,0.033-0.013,0.068-0.021,0.104c-0.006,0.023-0.014,0.048-0.021,0.075
		c-0.008,0.03-0.019,0.062-0.023,0.092c-0.01,0.03-0.014,0.06-0.016,0.086c-0.002,0.027,0.002,0.052,0.012,0.068L31.74,5.855
		c0-0.041,0.007-0.094,0.023-0.152c0.016-0.061,0.027-0.118,0.039-0.173c0.016-0.072,0.01-0.121-0.014-0.153
		c-0.025-0.027-0.076-0.04-0.156-0.031l-0.32,0.031l-0.186,0.544l-0.32,0.031l0.477-1.386L32.067,4.488z M31.738,5.125
		c0.072-0.009,0.134-0.029,0.181-0.062c0.047-0.035,0.084-0.09,0.106-0.158c0.023-0.065,0.021-0.113-0.006-0.141
		c-0.025-0.025-0.076-0.037-0.147-0.029l-0.351,0.037l-0.137,0.39L31.738,5.125z"/>
	<path fill="#FFFFFF" d="M33.298,4.448c0.096,0.001,0.178,0.017,0.25,0.047c0.069,0.028,0.127,0.071,0.166,0.13
		s0.062,0.129,0.065,0.215c0.004,0.085-0.014,0.186-0.055,0.301c-0.033,0.102-0.08,0.195-0.137,0.277
		c-0.056,0.086-0.125,0.159-0.199,0.221c-0.076,0.062-0.162,0.108-0.258,0.145c-0.097,0.033-0.199,0.052-0.312,0.049L32.19,5.825
		l0.476-1.384L33.298,4.448z M32.888,5.576c0.045,0.001,0.094-0.006,0.143-0.02c0.05-0.015,0.097-0.039,0.14-0.07
		c0.049-0.03,0.09-0.074,0.129-0.127s0.069-0.118,0.096-0.192c0.023-0.071,0.039-0.134,0.045-0.19c0.006-0.056,0-0.104-0.021-0.146
		c-0.021-0.04-0.052-0.072-0.099-0.093c-0.047-0.022-0.11-0.033-0.188-0.034L32.902,4.7l-0.301,0.873L32.888,5.576z"/>
	<polygon fill="#FFFFFF" points="35.2,4.574 35.114,4.83 34.343,4.757 34.241,5.053 34.948,5.12 34.866,5.355 34.159,5.291 
		34.044,5.63 34.829,5.703 34.741,5.958 33.634,5.855 34.109,4.473 	"/>
	<polygon fill="#FFFFFF" points="35.808,4.661 35.817,5.668 35.818,5.669 36.468,4.77 36.915,4.844 36.438,6.229 36.14,6.18 
		36.479,5.198 36.474,5.197 35.782,6.12 35.538,6.08 35.519,5.05 35.515,5.048 35.181,6.018 34.882,5.971 35.359,4.588 	"/>
	<polygon fill="#FFFFFF" points="38.675,5.266 38.589,5.521 37.839,5.336 37.734,5.631 38.423,5.803 38.343,6.041 37.655,5.869 
		37.538,6.208 38.304,6.396 38.216,6.655 37.138,6.385 37.614,5.002 	"/>
	<path fill="#FFFFFF" d="M39.948,5.648c0.088,0.027,0.155,0.062,0.211,0.108c0.051,0.043,0.09,0.093,0.114,0.146
		c0.023,0.056,0.035,0.111,0.035,0.17c0,0.058-0.01,0.115-0.031,0.174C40.26,6.302,40.23,6.352,40.193,6.4
		c-0.034,0.049-0.079,0.086-0.131,0.115c-0.053,0.029-0.114,0.047-0.186,0.053c-0.068,0.007-0.148-0.006-0.234-0.03L39.32,6.434
		L39.148,6.93l-0.307-0.097l0.479-1.385L39.948,5.648z M39.64,6.273c0.035,0.011,0.07,0.018,0.104,0.022
		c0.035,0.007,0.065,0.007,0.098-0.002c0.031-0.006,0.057-0.021,0.082-0.045c0.023-0.021,0.045-0.056,0.059-0.099
		c0.017-0.045,0.021-0.08,0.017-0.113c-0.006-0.032-0.021-0.061-0.039-0.082c-0.02-0.021-0.045-0.042-0.076-0.057
		c-0.031-0.018-0.062-0.028-0.098-0.041l-0.238-0.075l-0.143,0.413L39.64,6.273z"/>
	<path fill="#FFFFFF" d="M41.265,6.105c0.062,0.022,0.113,0.053,0.156,0.09c0.043,0.039,0.076,0.082,0.1,0.131
		c0.021,0.046,0.035,0.098,0.039,0.148c0.004,0.053-0.004,0.105-0.022,0.158c-0.027,0.082-0.068,0.145-0.125,0.192
		c-0.054,0.048-0.125,0.071-0.211,0.075l-0.002,0.004c0.032,0.022,0.059,0.052,0.075,0.08c0.017,0.031,0.027,0.062,0.033,0.099
		s0.006,0.071,0,0.108c-0.004,0.037-0.012,0.074-0.021,0.108c-0.006,0.022-0.015,0.05-0.021,0.078
		c-0.01,0.03-0.018,0.062-0.024,0.095c-0.009,0.032-0.015,0.063-0.017,0.094c-0.004,0.031,0,0.059,0.008,0.084L40.93,7.539
		c0-0.051,0.006-0.105,0.023-0.168s0.03-0.123,0.043-0.18c0.016-0.078,0.012-0.139-0.01-0.185c-0.022-0.046-0.072-0.084-0.146-0.11
		l-0.303-0.109l-0.187,0.539l-0.303-0.109l0.477-1.384L41.265,6.105z M40.942,6.691c0.068,0.024,0.128,0.027,0.173,0.011
		s0.08-0.062,0.104-0.134c0.023-0.064,0.023-0.121-0.002-0.166c-0.023-0.041-0.07-0.075-0.141-0.1l-0.33-0.123l-0.133,0.389
		L40.942,6.691z"/>
	<path fill="#FFFFFF" d="M41.655,6.709c0.061-0.075,0.131-0.134,0.209-0.176c0.079-0.041,0.166-0.064,0.262-0.067
		c0.096-0.002,0.195,0.021,0.299,0.062c0.104,0.045,0.189,0.104,0.26,0.176c0.068,0.072,0.119,0.152,0.154,0.242
		c0.033,0.091,0.049,0.186,0.049,0.287c0,0.101-0.018,0.203-0.053,0.308c-0.033,0.101-0.082,0.188-0.144,0.262
		c-0.059,0.075-0.129,0.134-0.207,0.173c-0.079,0.041-0.168,0.063-0.26,0.064c-0.096,0.002-0.194-0.02-0.301-0.062
		c-0.102-0.043-0.189-0.101-0.258-0.175c-0.068-0.069-0.121-0.149-0.156-0.237c-0.035-0.09-0.053-0.185-0.053-0.283
		c0-0.102,0.018-0.2,0.053-0.301C41.546,6.875,41.593,6.785,41.655,6.709 M41.769,7.282c-0.006,0.062-0.004,0.12,0.011,0.175
		c0.016,0.057,0.041,0.107,0.079,0.152c0.037,0.049,0.089,0.084,0.154,0.111c0.068,0.03,0.129,0.04,0.185,0.034
		c0.057-0.009,0.104-0.026,0.149-0.058c0.043-0.034,0.082-0.073,0.115-0.123c0.031-0.049,0.057-0.104,0.076-0.162
		c0.021-0.061,0.035-0.121,0.043-0.184c0.004-0.062,0.002-0.123-0.013-0.18c-0.014-0.057-0.041-0.107-0.075-0.152
		C42.454,6.85,42.4,6.811,42.335,6.783c-0.064-0.028-0.127-0.038-0.183-0.032c-0.057,0.008-0.106,0.026-0.149,0.06
		c-0.047,0.031-0.082,0.073-0.117,0.125c-0.033,0.051-0.059,0.106-0.08,0.168C41.786,7.162,41.772,7.221,41.769,7.282"/>
	<path fill="#FFFFFF" d="M43.515,8.658c-0.071-0.001-0.141-0.02-0.203-0.051c-0.102-0.049-0.186-0.111-0.252-0.188
		c-0.067-0.073-0.119-0.159-0.151-0.25c-0.033-0.094-0.05-0.188-0.047-0.292c0-0.1,0.018-0.202,0.051-0.302
		c0.037-0.104,0.084-0.193,0.145-0.269c0.06-0.072,0.127-0.131,0.207-0.168c0.078-0.039,0.164-0.057,0.256-0.056
		c0.093,0.003,0.191,0.028,0.291,0.075c0.068,0.035,0.129,0.076,0.185,0.131c0.057,0.05,0.104,0.109,0.141,0.176
		c0.037,0.067,0.062,0.139,0.072,0.215c0.014,0.079,0.008,0.156-0.01,0.24l-0.277-0.136c0.01-0.085-0.004-0.16-0.039-0.224
		c-0.035-0.062-0.09-0.11-0.158-0.146c-0.063-0.032-0.125-0.046-0.18-0.042c-0.053,0.004-0.104,0.021-0.148,0.052
		c-0.043,0.031-0.08,0.072-0.11,0.121c-0.033,0.052-0.06,0.109-0.082,0.168c-0.019,0.058-0.031,0.119-0.037,0.181
		c-0.008,0.061-0.004,0.119,0.01,0.179c0.014,0.058,0.037,0.11,0.074,0.159c0.037,0.05,0.088,0.09,0.151,0.119
		C43.498,8.4,43.58,8.41,43.647,8.385c0.07-0.025,0.127-0.085,0.168-0.177l-0.289-0.144l0.076-0.227l0.556,0.27l-0.261,0.75
		l-0.184-0.092l0.025-0.17C43.661,8.641,43.589,8.662,43.515,8.658"/>
	<path fill="#FFFFFF" d="M45.19,7.932c0.058,0.032,0.105,0.071,0.144,0.118c0.039,0.048,0.068,0.095,0.092,0.149
		c0.019,0.052,0.029,0.105,0.031,0.162s-0.006,0.111-0.025,0.162c-0.026,0.082-0.065,0.145-0.119,0.186
		c-0.051,0.041-0.118,0.057-0.202,0.048v0.005c0.03,0.029,0.055,0.062,0.069,0.096c0.017,0.035,0.025,0.069,0.029,0.107
		c0.004,0.037,0.004,0.073-0.004,0.112c-0.004,0.038-0.012,0.075-0.021,0.112c-0.006,0.021-0.014,0.05-0.022,0.08
		c-0.008,0.029-0.017,0.062-0.023,0.094c-0.01,0.033-0.014,0.066-0.018,0.098c-0.002,0.03,0,0.061,0.006,0.087l-0.279-0.159
		c0-0.053,0.008-0.109,0.023-0.174c0.018-0.062,0.033-0.123,0.045-0.182c0.016-0.08,0.014-0.143-0.006-0.193
		c-0.021-0.052-0.062-0.096-0.136-0.136l-0.28-0.158l-0.185,0.538l-0.28-0.157l0.477-1.384L45.19,7.932z M44.874,8.501
		c0.063,0.036,0.117,0.048,0.162,0.036c0.041-0.014,0.073-0.055,0.1-0.126c0.023-0.065,0.023-0.123,0.002-0.171
		c-0.021-0.049-0.065-0.094-0.129-0.129L44.7,7.938l-0.134,0.391L44.874,8.501z"/>
	<polygon fill="#FFFFFF" points="46.606,8.82 46.517,9.075 45.87,8.652 45.769,8.95 46.362,9.336 46.282,9.574 45.688,9.186 
		45.571,9.525 46.231,9.956 46.146,10.211 45.214,9.605 45.688,8.221 	"/>
	<path fill="#FFFFFF" d="M46.575,10.104c0.002,0.045,0.012,0.086,0.026,0.121c0.019,0.037,0.039,0.074,0.068,0.108
		c0.027,0.032,0.059,0.062,0.092,0.09c0.023,0.017,0.049,0.033,0.076,0.048c0.027,0.016,0.055,0.024,0.084,0.03
		c0.025,0.003,0.051,0.001,0.074-0.01c0.022-0.013,0.041-0.034,0.053-0.068c0.012-0.039,0.012-0.075,0-0.114
		s-0.031-0.078-0.059-0.117c-0.027-0.041-0.062-0.084-0.099-0.127s-0.073-0.088-0.108-0.133c-0.039-0.048-0.076-0.096-0.111-0.146
		c-0.035-0.052-0.062-0.104-0.088-0.159c-0.021-0.054-0.035-0.111-0.039-0.172c-0.006-0.059,0.004-0.121,0.023-0.186
		c0.024-0.068,0.059-0.121,0.104-0.155c0.041-0.031,0.092-0.05,0.146-0.054c0.053-0.004,0.106,0.006,0.166,0.029
		c0.059,0.023,0.11,0.055,0.163,0.096c0.062,0.045,0.117,0.099,0.168,0.155c0.05,0.062,0.093,0.123,0.121,0.195
		c0.031,0.067,0.05,0.141,0.058,0.216c0.006,0.075-0.004,0.153-0.033,0.234l-0.248-0.189c0.014-0.044,0.018-0.083,0.014-0.12
		c-0.004-0.036-0.014-0.069-0.026-0.103c-0.015-0.03-0.035-0.061-0.06-0.086c-0.024-0.027-0.053-0.053-0.084-0.076
		c-0.02-0.018-0.043-0.028-0.063-0.041c-0.023-0.01-0.045-0.014-0.066-0.014c-0.02,0-0.039,0.004-0.057,0.015
		c-0.019,0.013-0.033,0.032-0.043,0.062c-0.008,0.027-0.015,0.055-0.008,0.075c0.002,0.024,0.012,0.054,0.032,0.087
		c0.021,0.033,0.052,0.073,0.09,0.125c0.041,0.049,0.097,0.11,0.16,0.188c0.019,0.021,0.047,0.054,0.08,0.097
		c0.035,0.042,0.064,0.094,0.094,0.152c0.027,0.061,0.048,0.124,0.058,0.195c0.01,0.068,0.002,0.145-0.025,0.222
		c-0.021,0.062-0.051,0.114-0.09,0.153c-0.041,0.037-0.088,0.062-0.143,0.067c-0.056,0.011-0.115,0.001-0.183-0.021
		c-0.067-0.025-0.143-0.066-0.221-0.129c-0.062-0.051-0.123-0.104-0.176-0.172c-0.056-0.062-0.099-0.134-0.131-0.209
		c-0.033-0.076-0.052-0.154-0.058-0.236s0.006-0.165,0.037-0.25l0.246,0.188C46.579,10.016,46.571,10.061,46.575,10.104"/>
	<path fill="#FFFFFF" d="M47.599,10.932c0.002,0.045,0.01,0.088,0.025,0.129c0.014,0.041,0.033,0.08,0.059,0.115
		c0.026,0.036,0.054,0.07,0.084,0.1c0.021,0.021,0.043,0.037,0.068,0.058c0.027,0.019,0.053,0.028,0.076,0.036
		c0.024,0.006,0.049,0.005,0.071-0.002c0.021-0.012,0.037-0.033,0.052-0.068c0.012-0.035,0.012-0.074,0.002-0.115
		c-0.011-0.041-0.027-0.082-0.052-0.127c-0.024-0.043-0.055-0.09-0.088-0.139c-0.032-0.048-0.065-0.096-0.1-0.146
		c-0.037-0.052-0.07-0.104-0.1-0.157c-0.031-0.054-0.06-0.11-0.078-0.169c-0.021-0.059-0.029-0.117-0.033-0.18
		c-0.004-0.062,0.006-0.125,0.029-0.188c0.022-0.071,0.057-0.121,0.098-0.15c0.043-0.032,0.088-0.047,0.137-0.045
		c0.051,0,0.103,0.015,0.156,0.045c0.051,0.027,0.104,0.063,0.15,0.109c0.055,0.052,0.104,0.11,0.149,0.176
		c0.045,0.063,0.082,0.133,0.109,0.207c0.026,0.074,0.043,0.149,0.045,0.229c0.006,0.078-0.006,0.156-0.035,0.236L48.2,10.67
		c0.012-0.042,0.018-0.084,0.016-0.122c-0.002-0.037-0.012-0.071-0.023-0.104c-0.014-0.036-0.03-0.066-0.055-0.096
		c-0.021-0.029-0.047-0.058-0.074-0.086c-0.02-0.018-0.039-0.033-0.059-0.046c-0.021-0.012-0.043-0.021-0.062-0.021
		c-0.019-0.002-0.036,0.003-0.055,0.013c-0.018,0.009-0.029,0.031-0.039,0.062c-0.01,0.025-0.014,0.051-0.01,0.076
		c0,0.023,0.01,0.055,0.029,0.09c0.019,0.037,0.047,0.082,0.082,0.135c0.036,0.054,0.084,0.123,0.143,0.209
		c0.018,0.021,0.043,0.059,0.072,0.104c0.03,0.046,0.059,0.103,0.082,0.165c0.024,0.062,0.041,0.131,0.049,0.204
		c0.008,0.074,0,0.149-0.027,0.226c-0.022,0.064-0.051,0.114-0.09,0.151c-0.037,0.036-0.08,0.058-0.133,0.06
		c-0.049,0.006-0.105-0.008-0.17-0.039c-0.062-0.03-0.129-0.077-0.201-0.147c-0.059-0.055-0.111-0.119-0.16-0.188
		c-0.049-0.071-0.088-0.146-0.115-0.227c-0.026-0.08-0.045-0.165-0.047-0.248c-0.004-0.086,0.011-0.171,0.041-0.256l0.226,0.216
		C47.604,10.843,47.597,10.887,47.599,10.932"/>
	<path fill="#FFFFFF" d="M48.587,11.027c0.051-0.062,0.104-0.101,0.162-0.116c0.059-0.015,0.119-0.007,0.186,0.028
		s0.131,0.099,0.193,0.19c0.07,0.093,0.121,0.192,0.16,0.302c0.039,0.11,0.063,0.225,0.076,0.338
		c0.014,0.116,0.016,0.231,0.004,0.349c-0.011,0.114-0.035,0.225-0.07,0.327c-0.035,0.101-0.076,0.182-0.125,0.242
		c-0.049,0.06-0.104,0.099-0.16,0.11c-0.059,0.017-0.121,0.007-0.186-0.03c-0.064-0.035-0.129-0.098-0.195-0.19
		c-0.064-0.091-0.117-0.19-0.156-0.3c-0.041-0.111-0.065-0.223-0.08-0.338c-0.014-0.113-0.016-0.229-0.004-0.342
		c0.01-0.113,0.033-0.222,0.068-0.32C48.495,11.172,48.538,11.089,48.587,11.027 M48.603,11.725
		c-0.012,0.066-0.016,0.133-0.012,0.203c0.002,0.07,0.016,0.137,0.035,0.205c0.019,0.068,0.051,0.131,0.094,0.189
		c0.041,0.06,0.082,0.095,0.121,0.111c0.037,0.015,0.074,0.012,0.107-0.009c0.032-0.017,0.063-0.047,0.092-0.091
		s0.051-0.095,0.069-0.152c0.021-0.062,0.039-0.125,0.048-0.193c0.012-0.067,0.018-0.139,0.014-0.206
		c-0.002-0.071-0.014-0.142-0.035-0.207c-0.02-0.068-0.053-0.132-0.094-0.191c-0.041-0.058-0.082-0.095-0.121-0.108
		s-0.074-0.014-0.107,0.007c-0.032,0.02-0.065,0.051-0.094,0.097c-0.024,0.045-0.051,0.098-0.072,0.158
		C48.628,11.594,48.614,11.658,48.603,11.725"/>
	<path fill="#FFFFFF" d="M38.872,0c-3.599,0-6.783,1.775-8.728,4.494c2.084-0.891,6.187-0.607,10.562,0.898
		c4.379,1.504,7.783,3.811,8.875,5.797c0.01-0.156,0.014-0.312,0.014-0.469C49.595,4.8,44.794,0,38.872,0 M42.981,5.831
		l-0.485-0.315l-0.482,0.276l0.123-0.532l-0.436-0.365l0.553-0.016l0.201-0.477l0.227,0.508l0.558,0.07l-0.414,0.32L42.981,5.831z"
		/>
	<path fill="#FFFFFF" d="M39.765,8.131c-2.582-0.89-5.17-1.38-7.283-1.38c-2.186,0-3.643,0.526-4.031,1.448
		c-0.194,0.808-0.299,1.652-0.299,2.521c0,5.922,4.801,10.721,10.722,10.721c4.34,0,8.078-2.578,9.766-6.29
		C49.187,13.184,45.167,9.99,39.765,8.131 M29.192,8.538l0.15-0.412l0.102,0.399l0.357,0.01l-0.295,0.302l0.062,0.42l-0.276-0.221
		l-0.298,0.241l0.103-0.428l-0.23-0.26L29.192,8.538z M29.483,14.829l-0.258-0.22l-0.207,0.148l0.029-0.324l-0.226-0.254
		l0.265,0.012l0.073-0.316l0.134,0.35l0.282,0.058l-0.196,0.202L29.483,14.829z M30.41,14.082l-0.327-0.26l-0.291,0.195l0.057-0.416
		l-0.279-0.295l0.351-0.004c0,0,0.106-0.396,0.112-0.4l0.16,0.425l0.379,0.058l-0.28,0.264L30.41,14.082z M31.117,13.139L30.934,13
		l-0.174,0.117l0.039-0.231l-0.16-0.171l0.207-0.003l0.072-0.228l0.088,0.233l0.223,0.026L31.055,12.9L31.117,13.139z
		 M46.554,14.662l0.176-0.426l0.109,0.402l0.379-0.004l-0.32,0.307l0.054,0.402l-0.297-0.193l-0.357,0.258l0.137-0.43l-0.278-0.256
		L46.554,14.662z M41.278,10.139l0.137-0.338l0.131,0.342l0.346,0.026l-0.271,0.228l0.084,0.347l-0.297-0.193l-0.306,0.188
		l0.093-0.342l-0.267-0.231L41.278,10.139z M32.152,16.317l-0.262-0.186l-0.23,0.131l0.044-0.289l-0.232-0.223l0.281,0.01
		l0.084-0.274l0.133,0.301l0.295,0.055L32.06,16.02L32.152,16.317z M32.503,15.246l-0.316-0.214l-0.283,0.163l0.064-0.35
		l-0.277-0.262h0.336l0.117-0.34l0.154,0.365l0.354,0.052l-0.264,0.225L32.503,15.246z M33.938,17.709l-0.381-0.248l-0.34,0.176
		l0.065-0.379l-0.348-0.301l0.42,0.018l0.133-0.377l0.189,0.408l0.439,0.066l-0.316,0.236L33.938,17.709z M33.897,11.261l0.093,0.39
		l-0.324-0.223l-0.326,0.211l0.086-0.396l-0.289-0.26l0.383-0.026l0.148-0.39l0.139,0.395l0.388,0.036L33.897,11.261z
		 M37.149,14.532l-0.293-0.188l-0.301,0.18l0.086-0.334l-0.266-0.227l0.344-0.016l0.133-0.32l0.131,0.328l0.353,0.025l-0.271,0.224
		L37.149,14.532z M37.546,15.084l0.066-0.248l-0.197-0.162l0.26-0.015l0.096-0.24l0.103,0.246l0.266,0.021l-0.207,0.16l0.064,0.252
		l-0.224-0.143L37.546,15.084z M38.7,20.063l-0.16-0.084l-0.17,0.084l0.053-0.145l-0.148-0.104l0.191-0.012l0.074-0.146l0.069,0.15
		l0.193,0.01l-0.149,0.104L38.7,20.063z M38.921,17.004l-0.41-0.236l-0.404,0.229l0.117-0.424l-0.371-0.293l0.479-0.027l0.188-0.424
		l0.179,0.432l0.479,0.033l-0.367,0.283L38.921,17.004z M38.868,13.029l0.102,0.404l-0.356-0.228l-0.357,0.216l0.102-0.404
		l-0.315-0.269l0.42-0.022l0.16-0.398l0.155,0.404l0.418,0.024L38.868,13.029z M40.112,14.494l-0.349-0.219l-0.356,0.213
		l0.106-0.389l-0.312-0.266l0.41-0.023l0.165-0.389l0.15,0.395l0.416,0.019l-0.328,0.267L40.112,14.494z M41.001,17.799
		l-0.295,0.166l0.092-0.293l-0.244-0.191l0.336-0.027l0.138-0.299l0.114,0.291l0.33,0.01l-0.266,0.209l0.067,0.279L41.001,17.799z
		 M42.173,19.196l-0.301-0.146l-0.334,0.176l0.112-0.305l-0.276-0.199l0.385-0.039l0.168-0.312l0.111,0.305l0.369-0.002l-0.3,0.223
		L42.173,19.196z M43.253,18.106l-0.254-0.141l-0.279,0.17l0.105-0.285l-0.232-0.174l0.314-0.041l0.146-0.285l0.096,0.271
		l0.306-0.004l-0.25,0.205L43.253,18.106z M44.288,19.647l-0.22-0.092l-0.266,0.152l0.107-0.244l-0.193-0.133l0.291-0.055
		l0.146-0.248l0.067,0.225l0.277-0.02l-0.242,0.188L44.288,19.647z M44.452,18.456l0.043,0.295l-0.267-0.137l-0.317,0.197
		l0.125-0.311l-0.246-0.18l0.354-0.055l0.172-0.322l0.091,0.291l0.34-0.018L44.452,18.456z M44.524,17.479l0.043,0.271l-0.237-0.129
		l-0.277,0.176l0.104-0.285l-0.214-0.17l0.312-0.049l0.143-0.289l0.084,0.27l0.296-0.008L44.524,17.479z M45.587,17.643
		l-0.221-0.121l-0.261,0.174l0.103-0.279l-0.195-0.162l0.287-0.051l0.141-0.283l0.076,0.262l0.281-0.018l-0.242,0.209L45.587,17.643
		z M46.587,17.145l-0.238-0.141l-0.295,0.211l0.123-0.332l-0.219-0.188l0.332-0.066l0.153-0.336l0.08,0.311l0.302-0.021
		l-0.267,0.248L46.587,17.145z M47.149,16.272l-0.229-0.146l-0.289,0.213l0.117-0.342l-0.222-0.197l0.324-0.063l0.152-0.338
		l0.08,0.315l0.301-0.016l-0.266,0.251L47.149,16.272z M48.185,15.148l-0.178-0.129l-0.227,0.179l0.092-0.296l-0.168-0.168
		l0.248-0.051l0.119-0.295l0.061,0.278l0.232-0.012l-0.199,0.208L48.185,15.148z"/>
</g>
</svg>
