<?xml version="1.0" encoding="utf-8"?>
<!-- Generator: Adobe Illustrator 16.0.4, SVG Export Plug-In . SVG Version: 6.00 Build 0)  -->
<!DOCTYPE svg PUBLIC "-//W3C//DTD SVG 1.1//EN" "http://www.w3.org/Graphics/SVG/1.1/DTD/svg11.dtd">
<svg version="1.1" id="Layer_1" xmlns="http://www.w3.org/2000/svg" xmlns:xlink="http://www.w3.org/1999/xlink" x="0px" y="0px"
	 width="33.688px" height="59.781px" viewBox="0 0 33.688 59.781" enable-background="new 0 0 33.688 59.781" xml:space="preserve">

<path fill="#9B241B" d="M50.799,37.653l-0.098-0.173L34.126,8.781L34.012,8.59l0.107-0.184h0.328V8.403l0,0l-0.164-0.28l0.164-0.283
	l0,0V7.839h-0.328l-0.107-0.184l0.115-0.191l8.282-14.35l8.292-14.347l0.541-0.947H50.15H17.647h-0.639h-0.451h-0.64h-32.498h-1.091
	l0.432,0.75l-0.113,0.193L-33.921,7.461l-0.217,0.378h-0.328l0.002,0.001h-0.002l0.162,0.283l-0.162,0.28h0.002l-0.002,0.003h0.326
	l0.219,0.379l16.569,28.695l0.101,0.173h-0.42l0.223,0.387l-0.223,0.386h0.42l-0.101,0.172l-16.569,28.689l-0.217,0.377h-0.328
	l0.164,0.288l-0.164,0.277h0.328l0.217,0.378l16.569,28.701l0.111,0.197l-0.43,0.746h1.091h32.498h0.64h0.451h0.639H50.15h1.092
	l-0.541-0.951L34.126,68.607l-0.115-0.188l0.107-0.189h0.328l-0.164-0.277l0.164-0.288h-0.328l-0.107-0.181l0.115-0.196
	l16.575-28.689l0.098-0.172h0.443L51.02,38.04l0.223-0.387H50.799z M41.868-7.201L33.651,7.026L17.328-21.237l-0.113-0.193
	l0.069-0.121H50.15L41.868-7.201z M33.036,8.781L16.783,36.928L0.533,8.781L0.421,8.589L0.49,8.47h32.726L33.036,8.781z
	 M33.036,7.464l0.181,0.312H0.49L0.421,7.658l0.112-0.194l8.285-14.35l7.965-13.793l7.962,13.793L33.036,7.464z M-16.261,37.48
	L-0.012,9.339l16.25,28.142l0.101,0.173h-0.42h-32.279L-16.261,37.48z M16.338,38.426l-0.101,0.172l-16.25,28.14l-16.249-28.14
	l-0.101-0.172h32.279H16.338z M0.488,67.599l-0.067-0.115l0.112-0.196l16.25-28.136l16.253,28.136l0.181,0.312H0.488z M0.421,68.41
	l0.067-0.114h32.728l-0.181,0.312L16.783,96.752L0.533,68.607L0.421,68.41z M17.328,37.48L33.651,9.22l16.41,28.434H17.647h-0.42
	L17.328,37.48z M16.35-21.43l-0.113,0.193L-0.012,6.908l-16.249-28.145l-0.182-0.313H16.28L16.35-21.43z M-16.876-20.8l8.035,13.914
	l8.284,14.35l0.112,0.194l-0.069,0.118h-32.861L-16.876-20.8z M-33.375,8.47h32.861l0.069,0.119l-0.112,0.192l-16.319,28.266
	L-33.375,8.47z M-16.876,39.033l16.319,28.254l0.112,0.196l-0.067,0.115h-32.863L-16.876,39.033z M-33.375,68.296h32.863
	l0.067,0.114l-0.112,0.197l-16.319,28.259L-33.375,68.296z M-16.442,97.621l0.181-0.312l16.249-28.144l16.25,28.144l0.11,0.197
	l-0.067,0.115H-16.442z M50.15,97.621H17.285l-0.067-0.115l0.111-0.197l16.323-28.267L50.15,97.621z M33.651,66.853L17.328,38.598
	l-0.101-0.172h0.42H50.07L33.651,66.853z"/>
</svg>
