<?xml version="1.0" encoding="utf-8"?>
<!-- Generator: Adobe Illustrator 16.0.4, SVG Export Plug-In . SVG Version: 6.00 Build 0)  -->
<!DOCTYPE svg PUBLIC "-//W3C//DTD SVG 1.1//EN" "http://www.w3.org/Graphics/SVG/1.1/DTD/svg11.dtd">
<svg version="1.1" id="Layer_1" xmlns="http://www.w3.org/2000/svg" xmlns:xlink="http://www.w3.org/1999/xlink" x="0px" y="0px"
	 width="58.841px" height="19.728px" viewBox="0 0 58.841 19.728" enable-background="new 0 0 58.841 19.728" xml:space="preserve">
<g>
	<path fill="#333" d="M17.021,9.028c0.296,0,0.533-0.238,0.533-0.53l0,0c0-0.291-0.237-0.531-0.533-0.531h-5.583
		c-0.295,0-0.534,0.24-0.534,0.531l0,0c0,0.294,0.239,0.53,0.534,0.53H17.021z"/>
	<g>
		<path fill="#333" d="M40.922,8.327l-4.243-8.041c-0.089-0.17-0.257-0.271-0.437-0.284c-0.001,0-0.004,0-0.008,0
			C36.224,0,36.213,0,36.202,0s-0.023,0-0.035,0.002c-0.002,0-0.004,0-0.009,0c-0.177,0.014-0.344,0.114-0.432,0.284l-4.245,8.041
			c-0.136,0.263-0.034,0.58,0.228,0.715c0.263,0.134,0.583,0.036,0.72-0.227l3.774-7.149l3.773,7.149
			c0.135,0.263,0.457,0.36,0.718,0.227C40.954,8.908,41.059,8.59,40.922,8.327z"/>
		<path fill="#333" d="M29.182,0.087c-0.293,0-0.532,0.237-0.532,0.529v7.881c0,0.292,0.239,0.53,0.532,0.53
			c0.294,0,0.533-0.238,0.533-0.53V0.616C29.714,0.325,29.476,0.087,29.182,0.087z"/>
		<path fill="#333" d="M17.021,0.087h-5.583c-0.295,0-0.534,0.237-0.534,0.529v7.881c0,0.292,0.239,0.53,0.534,0.53
			c0.293,0,0.532-0.238,0.532-0.53V1.145h5.051c0.296,0,0.533-0.235,0.533-0.528C17.554,0.325,17.316,0.087,17.021,0.087z"/>
		<path fill="#333" d="M16.022,3.872h-2.854c-0.294,0-0.53,0.235-0.53,0.53c0,0.291,0.237,0.529,0.53,0.529h2.854
			c0.294,0,0.535-0.238,0.535-0.529C16.558,4.108,16.317,3.872,16.022,3.872z"/>
		<path fill="#333" d="M8.798,0.23c-0.208-0.207-0.545-0.207-0.753,0L4.48,3.778L0.914,0.23c-0.207-0.207-0.543-0.207-0.751,0
			C0.111,0.282,0.071,0.342,0.044,0.407C0.018,0.469,0,0.54,0,0.617v7.881c0,0.292,0.239,0.53,0.532,0.53
			c0.296,0,0.532-0.238,0.532-0.53V1.883l2.972,2.952c0.02,0.026,0.036,0.052,0.06,0.074c0.105,0.103,0.245,0.153,0.384,0.153
			s0.278-0.051,0.385-0.153c0.022-0.022,0.042-0.048,0.059-0.074l2.972-2.952v6.615c0,0.292,0.238,0.53,0.534,0.53
			c0.293,0,0.531-0.238,0.531-0.53V0.617c0-0.076-0.014-0.148-0.043-0.21C8.891,0.342,8.852,0.282,8.798,0.23z"/>
		<path fill="#333" d="M22.535,0.087h-0.62h-0.157h-2.502c-0.297,0-0.534,0.237-0.534,0.529v7.881
			c0,0.272,0.21,0.502,0.479,0.526c0.018,0.004,0.037,0.004,0.056,0.004h2.694h0.152h0.434c1.771,0,3.207-1.451,3.207-3.213V3.312
			C25.742,1.553,24.306,0.087,22.535,0.087z M24.727,5.518c0,1.346-1.099,2.453-2.451,2.453h-0.332L21.56,7.967h-1.773V1.145h2.129
			c0.021,0,0.039,0,0.061-0.002h0.3c1.353,0,2.451,1.121,2.451,2.468V5.518z"/>
	</g>
	<path fill="#333" d="M49.997,11.631c0.293,0,0.532-0.238,0.532-0.531l0,0c0-0.293-0.239-0.531-0.532-0.531h-5.583
		c-0.296,0-0.535,0.238-0.535,0.531l0,0c0,0.293,0.238,0.531,0.535,0.531H49.997z"/>
	<g>
		<path fill="#333" d="M31.053,10.557c-0.263-0.135-0.583-0.031-0.719,0.227l-4.244,8.041c-0.137,0.26-0.033,0.578,0.228,0.719
			c0.261,0.133,0.583,0.031,0.719-0.229l4.245-8.041C31.415,11.014,31.313,10.694,31.053,10.557z"/>
		<path fill="#333" d="M58.31,15.096h-3.155c-0.294,0-0.535,0.236-0.535,0.531c0,0.291,0.24,0.527,0.535,0.527h2.623v2.174
			h-2.129c-0.021,0-0.04,0.002-0.06,0.006h-0.301c-1.352,0-2.448-1.119-2.448-2.465v-1.91c0-1.346,1.097-2.453,2.448-2.453h0.331
			l0.386,0.004h2.305c0.292,0,0.531-0.238,0.531-0.529c0-0.295-0.239-0.529-0.531-0.529h-2.696h-0.152h-0.433
			c-1.772,0-3.207,1.449-3.207,3.213v2.498c0,1.766,1.435,3.229,3.207,3.229h0.619h0.157h2.505c0.292,0,0.531-0.236,0.531-0.529
			v-3.137c0-0.02-0.002-0.035-0.002-0.051s0.002-0.031,0.002-0.047C58.841,15.333,58.603,15.096,58.31,15.096z"/>
		<path fill="#333" d="M40.834,10.364c-0.295,0-0.534,0.236-0.534,0.529v4.803c0,0.014,0.003,0.025,0.003,0.037v0.191
			c0,1.684-1.124,2.438-2.475,2.438h-0.924c-1.354,0-2.468-0.715-2.468-2.438v-0.199l0.004-0.383v-4.449
			c0-0.293-0.237-0.529-0.532-0.529c-0.294,0-0.532,0.236-0.532,0.529v4.838v0.148v0.432c0,1.764,1.458,3.191,3.229,3.191h1.518
			c1.771,0,3.244-1.43,3.244-3.191v-0.615V15.54v-4.646C41.368,10.6,41.127,10.364,40.834,10.364z"/>
		<path fill="#333" d="M44.415,10.569c-0.296,0-0.535,0.238-0.535,0.531v7.883c0,0.291,0.238,0.527,0.535,0.527
			c0.291,0,0.532-0.236,0.532-0.527V11.1C44.946,10.807,44.706,10.569,44.415,10.569z"/>
		<path fill="#333" d="M48.999,14.356h-3.025c-0.294,0-0.533,0.238-0.533,0.529c0,0.293,0.24,0.529,0.533,0.529h3.025
			c0.295,0,0.532-0.236,0.532-0.529C49.531,14.594,49.294,14.356,48.999,14.356z"/>
	</g>
	<g>
		<path fill="#333" d="M6.117,18.452H1.064V11.1c0-0.293-0.236-0.531-0.532-0.531C0.239,10.569,0,10.807,0,11.1v7.883
			c0,0.119,0.041,0.223,0.104,0.311c0.016,0.023,0.032,0.043,0.052,0.062c0.002,0.004,0.006,0.006,0.011,0.01
			c0.032,0.029,0.07,0.061,0.111,0.082c0.005,0.004,0.01,0.004,0.015,0.008c0.025,0.014,0.053,0.023,0.081,0.031
			c0.01,0.004,0.021,0.008,0.031,0.008c0.007,0.002,0.014,0.004,0.019,0.006c0.01,0,0.017,0.004,0.023,0.004
			c0.026,0.006,0.056,0.008,0.084,0.008h5.585c0.293,0,0.531-0.236,0.531-0.529C6.648,18.688,6.411,18.452,6.117,18.452z"/>
		<path fill="#333" d="M13.623,10.913c-0.09-0.17-0.257-0.271-0.435-0.285c-0.003,0-0.006,0-0.009,0c-0.011,0-0.021,0-0.032,0
			s-0.024,0-0.034,0c-0.002,0-0.005,0-0.009,0c-0.18,0.016-0.347,0.115-0.434,0.285l-4.243,8.039
			c-0.138,0.262-0.034,0.582,0.227,0.717s0.582,0.033,0.717-0.229l3.776-7.15l3.772,7.15c0.137,0.262,0.458,0.361,0.72,0.229
			c0.261-0.135,0.362-0.455,0.228-0.717L13.623,10.913z"/>
		<path fill="#333" d="M24.682,15.12c0.672-0.436,1.118-1.188,1.118-2.043c0-1.344-1.095-2.434-2.446-2.434
			c-0.021,0-0.045,0.002-0.066,0.006c-0.009-0.002-0.015-0.004-0.023-0.004h-4.008c-0.297,0-0.534,0.236-0.534,0.531v7.879
			c0,0.295,0.236,0.531,0.534,0.531l4.071-0.002c0.005,0.002,0.009,0.002,0.016,0.002c1.351,0,2.444-1.094,2.444-2.436
			C25.787,16.303,25.35,15.553,24.682,15.12z M23.343,18.528c-0.045,0-0.091-0.004-0.133-0.006v0.002h-3.424v-6.818h3.424v0.004
			c0.046-0.004,0.096-0.008,0.145-0.008c0.764,0,1.382,0.617,1.382,1.375c0,0.762-0.611,1.359-1.375,1.359
			c-0.043,0-0.092,0.01-0.137,0.01l0,0c-0.001,0-0.003,0-0.003,0c-0.004,0-0.01,0-0.011,0v0.002
			c-0.373,0.033-0.646,0.299-0.646,0.656c0,0.359,0.291,0.65,0.651,0.656v0.002c0.043-0.002,0.09,0.004,0.135,0.004
			c0.763,0.02,1.377,0.627,1.377,1.387S24.106,18.528,23.343,18.528z"/>
	</g>
</g>
</svg>
