<?xml version="1.0" encoding="utf-8"?>
<!-- Generator: Adobe Illustrator 16.0.4, SVG Export Plug-In . SVG Version: 6.00 Build 0)  -->
<!DOCTYPE svg PUBLIC "-//W3C//DTD SVG 1.1//EN" "http://www.w3.org/Graphics/SVG/1.1/DTD/svg11.dtd">
<svg version="1.1" id="Layer_1" xmlns="http://www.w3.org/2000/svg" xmlns:xlink="http://www.w3.org/1999/xlink" x="0px" y="0px"
	 width="352.328px" height="40.589px" viewBox="0 0 352.328 40.589" enable-background="new 0 0 352.328 40.589"
	 xml:space="preserve">
<g>
	<g>
		<g>
			<g>
				<path fill="#FFFFFF" d="M80.989,27.779c-0.323,0.155-1.039,0.336-1.952,0.336c-2.39,0-3.841-1.495-3.841-3.794
					c0-2.476,1.73-3.975,4.031-3.975c0.901,0,1.537,0.19,1.818,0.337l-0.291,1.091c-0.358-0.155-0.859-0.29-1.472-0.29
					c-1.529,0-2.635,0.962-2.635,2.77c0,1.663,0.96,2.712,2.623,2.712c0.547,0,1.127-0.113,1.494-0.271L80.989,27.779z"/>
				<path fill="#FFFFFF" d="M84.651,20.471v7.52h-1.375v-7.52H84.651z"/>
				<path fill="#FFFFFF" d="M88.848,25.861l-0.648,2.129h-1.418l2.411-7.52h1.753l2.442,7.52h-1.485l-0.679-2.129H88.848z
					 M91,24.821l-0.592-1.851c-0.144-0.456-0.266-0.972-0.377-1.407h-0.024c-0.111,0.436-0.235,0.957-0.356,1.407l-0.582,1.851H91z"
					/>
				<path fill="#FFFFFF" d="M95.554,20.58c0.525-0.096,1.283-0.167,2.074-0.167c1.083,0,1.808,0.18,2.322,0.605
					c0.412,0.346,0.648,0.87,0.648,1.518c0,0.97-0.659,1.63-1.373,1.874v0.034c0.545,0.199,0.87,0.726,1.048,1.451
					c0.248,0.939,0.447,1.806,0.592,2.095h-1.406c-0.114-0.219-0.302-0.834-0.502-1.771c-0.222-0.982-0.569-1.295-1.351-1.317
					h-0.691v3.088h-1.361V20.58z M96.915,23.896h0.816c0.925,0,1.494-0.491,1.494-1.239c0-0.811-0.569-1.202-1.46-1.202
					c-0.437,0-0.715,0.03-0.851,0.066V23.896z"/>
			</g>
			<g>
				<g>
					<path fill="#FFFFFF" d="M76.616,32.863c-0.075,0.037-0.229,0.072-0.423,0.072c-0.453,0-0.791-0.284-0.791-0.81
						c0-0.51,0.34-0.845,0.839-0.845c0.197,0,0.325,0.041,0.38,0.068l-0.052,0.171c-0.076-0.039-0.188-0.069-0.32-0.069
						c-0.378,0-0.628,0.244-0.628,0.663c0,0.398,0.226,0.646,0.616,0.646c0.129,0,0.257-0.024,0.34-0.065L76.616,32.863z"/>
					<path fill="#FFFFFF" d="M77.787,32.16h-0.622v0.578h0.696v0.173h-0.906v-1.605h0.871v0.174h-0.66v0.507h0.622V32.16z"/>
					<path fill="#FFFFFF" d="M78.209,32.911v-1.605h0.229l0.512,0.811c0.116,0.189,0.211,0.358,0.284,0.522l0.009-0.001
						c-0.019-0.214-0.023-0.409-0.023-0.66v-0.672h0.196v1.605h-0.211l-0.509-0.817c-0.11-0.175-0.22-0.357-0.298-0.534
						l-0.007,0.002c0.012,0.206,0.016,0.396,0.016,0.663v0.687H78.209z"/>
					<path fill="#FFFFFF" d="M80.16,31.481h-0.487v-0.176h1.187v0.176h-0.489v1.43h-0.21V31.481z"/>
					<path fill="#FFFFFF" d="M81.12,31.329c0.103-0.022,0.256-0.035,0.394-0.035c0.224,0,0.369,0.043,0.468,0.132
						c0.078,0.07,0.126,0.181,0.126,0.308c0,0.206-0.135,0.349-0.301,0.405v0.006c0.121,0.045,0.196,0.159,0.234,0.328
						c0.051,0.222,0.09,0.378,0.124,0.438h-0.214c-0.026-0.048-0.062-0.183-0.107-0.386c-0.046-0.22-0.135-0.302-0.323-0.309h-0.194
						v0.694H81.12V31.329z M81.327,32.06h0.211c0.225,0,0.363-0.123,0.363-0.306c0-0.209-0.148-0.301-0.37-0.301
						c-0.1,0-0.168,0.009-0.204,0.017V32.06z"/>
					<path fill="#FFFFFF" d="M83.859,32.093c0,0.549-0.335,0.843-0.746,0.843c-0.426,0-0.721-0.327-0.721-0.815
						c0-0.509,0.314-0.844,0.745-0.844C83.576,31.276,83.859,31.613,83.859,32.093z M82.612,32.114c0,0.347,0.185,0.657,0.515,0.657
						c0.328,0,0.516-0.306,0.516-0.668c0-0.322-0.168-0.656-0.516-0.656C82.783,31.447,82.612,31.768,82.612,32.114z"/>
					<path fill="#FFFFFF" d="M85,31.306v1.605h-0.211v-1.605H85z"/>
					<path fill="#FFFFFF" d="M85.44,32.911v-1.605h0.23l0.512,0.811c0.117,0.189,0.211,0.358,0.285,0.522l0.007-0.001
						c-0.019-0.214-0.023-0.409-0.023-0.66v-0.672h0.197v1.605h-0.211l-0.51-0.817c-0.113-0.175-0.217-0.357-0.298-0.534
						l-0.009,0.002c0.015,0.206,0.017,0.396,0.017,0.663v0.687H85.44z"/>
					<path fill="#FFFFFF" d="M87.394,31.481h-0.49v-0.176h1.19v0.176h-0.492v1.43h-0.208V31.481z"/>
					<path fill="#FFFFFF" d="M89.183,32.16h-0.625v0.578h0.696v0.173h-0.905v-1.605h0.87v0.174h-0.66v0.507h0.625V32.16z"/>
					<path fill="#FFFFFF" d="M90.827,32.84c-0.093,0.035-0.278,0.091-0.495,0.091c-0.242,0-0.444-0.064-0.601-0.215
						c-0.138-0.135-0.223-0.349-0.223-0.6c0-0.478,0.33-0.827,0.869-0.827c0.185,0,0.333,0.04,0.401,0.072l-0.052,0.173
						c-0.085-0.043-0.193-0.072-0.354-0.072c-0.393,0-0.646,0.244-0.646,0.646c0,0.408,0.242,0.648,0.62,0.648
						c0.135,0,0.23-0.019,0.275-0.042v-0.481h-0.323v-0.167h0.527V32.84z"/>
					<path fill="#FFFFFF" d="M91.224,31.329c0.104-0.022,0.254-0.035,0.394-0.035c0.224,0,0.368,0.043,0.468,0.132
						c0.076,0.07,0.124,0.181,0.124,0.308c0,0.206-0.135,0.349-0.297,0.405v0.006c0.119,0.045,0.192,0.159,0.23,0.328
						c0.054,0.222,0.092,0.378,0.124,0.438h-0.214c-0.025-0.048-0.06-0.183-0.102-0.386c-0.05-0.22-0.139-0.302-0.327-0.309h-0.196
						v0.694h-0.204V31.329z M91.427,32.06h0.211c0.224,0,0.365-0.123,0.365-0.306c0-0.209-0.151-0.301-0.369-0.301
						c-0.1,0-0.17,0.009-0.207,0.017V32.06z"/>
					<path fill="#FFFFFF" d="M92.853,32.405l-0.166,0.506h-0.215l0.55-1.605h0.246l0.549,1.605h-0.222l-0.171-0.506H92.853z
						 M93.38,32.246l-0.16-0.463c-0.033-0.104-0.057-0.201-0.083-0.294h-0.004c-0.021,0.093-0.045,0.191-0.08,0.292l-0.158,0.465
						H93.38z"/>
					<path fill="#FFFFFF" d="M94.13,31.329c0.128-0.022,0.279-0.035,0.44-0.035c0.299,0,0.511,0.072,0.652,0.202
						c0.144,0.13,0.229,0.314,0.229,0.574s-0.085,0.477-0.23,0.624c-0.154,0.152-0.401,0.231-0.715,0.231
						c-0.147,0-0.271-0.006-0.376-0.021V31.329z M94.338,32.75c0.055,0.007,0.129,0.01,0.21,0.01c0.445,0,0.684-0.247,0.684-0.683
						c0.004-0.378-0.212-0.618-0.65-0.618c-0.106,0-0.188,0.011-0.244,0.021V32.75z"/>
					<path fill="#FFFFFF" d="M97.17,32.093c0,0.549-0.336,0.843-0.746,0.843c-0.429,0-0.721-0.327-0.721-0.815
						c0-0.509,0.313-0.844,0.744-0.844C96.887,31.276,97.17,31.613,97.17,32.093z M95.921,32.114c0,0.347,0.187,0.657,0.516,0.657
						s0.514-0.306,0.514-0.668c0-0.322-0.166-0.656-0.513-0.656C96.093,31.447,95.921,31.768,95.921,32.114z"/>
					<path fill="#FFFFFF" d="M98.103,31.329c0.126-0.022,0.276-0.035,0.441-0.035c0.297,0,0.509,0.072,0.652,0.202
						c0.145,0.13,0.228,0.314,0.228,0.574s-0.083,0.477-0.232,0.624c-0.152,0.152-0.402,0.231-0.711,0.231
						c-0.151,0-0.273-0.006-0.378-0.021V31.329z M98.31,32.75c0.052,0.007,0.128,0.01,0.209,0.01c0.446,0,0.683-0.247,0.683-0.683
						c0.003-0.378-0.21-0.618-0.647-0.618c-0.109,0-0.19,0.011-0.245,0.021V32.75z"/>
					<path fill="#FFFFFF" d="M100.599,32.16h-0.622v0.578h0.694v0.173h-0.905v-1.605h0.87v0.174h-0.659v0.507h0.622V32.16z"/>
					<path fill="#FFFFFF" d="M75.681,35.267l-0.165,0.507H75.3l0.548-1.608h0.248l0.547,1.608h-0.22l-0.173-0.507H75.681z
						 M76.209,35.105l-0.159-0.463c-0.036-0.104-0.058-0.201-0.084-0.292h-0.001c-0.026,0.091-0.049,0.191-0.083,0.292l-0.157,0.463
						H76.209z"/>
					<path fill="#FFFFFF" d="M76.879,34.186c0.102-0.016,0.233-0.033,0.399-0.033c0.204,0,0.355,0.049,0.452,0.135
						c0.085,0.072,0.139,0.192,0.139,0.338c0,0.143-0.043,0.256-0.123,0.342c-0.113,0.117-0.29,0.177-0.492,0.177
						c-0.062,0-0.119-0.005-0.167-0.015v0.645h-0.209V34.186z M77.088,34.957c0.045,0.016,0.102,0.02,0.171,0.02
						c0.25,0,0.403-0.122,0.403-0.344c0-0.211-0.153-0.315-0.379-0.315c-0.09,0-0.159,0.008-0.195,0.019V34.957z"/>
					<path fill="#FFFFFF" d="M78.149,34.188c0.106-0.018,0.257-0.035,0.397-0.035c0.222,0,0.367,0.045,0.465,0.133
						c0.08,0.072,0.125,0.183,0.125,0.306c0,0.211-0.133,0.354-0.299,0.409v0.009c0.121,0.041,0.196,0.156,0.235,0.323
						c0.052,0.222,0.089,0.379,0.122,0.441h-0.214c-0.026-0.051-0.061-0.183-0.105-0.386c-0.046-0.219-0.134-0.304-0.324-0.312
						h-0.194v0.697h-0.208V34.188z M78.357,34.918h0.211c0.221,0,0.363-0.119,0.363-0.301c0-0.21-0.152-0.3-0.373-0.3
						c-0.098,0-0.167,0.007-0.202,0.015V34.918z"/>
					<path fill="#FFFFFF" d="M80.26,35.019h-0.621V35.6h0.697v0.174h-0.905v-1.608h0.867v0.175h-0.659v0.51h0.621V35.019z"/>
					<path fill="#FFFFFF" d="M80.604,35.773v-1.608h0.227l0.515,0.813c0.116,0.19,0.211,0.355,0.285,0.521l0.008-0.003
						c-0.018-0.212-0.024-0.408-0.024-0.659v-0.673h0.194v1.608H81.6l-0.509-0.818c-0.113-0.177-0.221-0.359-0.299-0.533
						l-0.007,0.002c0.012,0.203,0.017,0.396,0.017,0.663v0.687H80.604z"/>
					<path fill="#FFFFFF" d="M82.174,34.191c0.125-0.021,0.273-0.039,0.439-0.039c0.297,0,0.511,0.077,0.648,0.202
						c0.146,0.132,0.229,0.315,0.229,0.578c0,0.261-0.083,0.475-0.229,0.621c-0.153,0.15-0.402,0.233-0.712,0.233
						c-0.152,0-0.273-0.007-0.375-0.018V34.191z M82.381,35.61c0.05,0.009,0.127,0.009,0.209,0.009c0.445,0,0.684-0.247,0.684-0.683
						c0.002-0.379-0.213-0.619-0.65-0.619c-0.107,0-0.19,0.011-0.243,0.022V35.61z"/>
					<path fill="#FFFFFF" d="M83.968,34.165v1.608h-0.211v-1.608H83.968z"/>
					<path fill="#FFFFFF" d="M84.22,35.651l0.89-1.302v-0.01h-0.814v-0.175h1.083v0.126l-0.886,1.3V35.6h0.899v0.174H84.22V35.651z"
						/>
					<path fill="#FFFFFF" d="M85.908,35.267l-0.168,0.507h-0.213l0.547-1.608h0.249l0.548,1.608h-0.222l-0.172-0.507H85.908z
						 M86.437,35.105l-0.16-0.463c-0.036-0.104-0.059-0.201-0.085-0.292h-0.005c-0.021,0.091-0.045,0.191-0.078,0.292l-0.158,0.463
						H86.437z"/>
					<path fill="#FFFFFF" d="M88.296,35.7c-0.094,0.037-0.28,0.089-0.497,0.089c-0.244,0-0.441-0.06-0.599-0.213
						c-0.14-0.134-0.224-0.347-0.224-0.598c0-0.479,0.33-0.828,0.866-0.828c0.188,0,0.335,0.041,0.404,0.073l-0.051,0.168
						c-0.087-0.038-0.194-0.067-0.355-0.067c-0.393,0-0.646,0.241-0.646,0.646c0,0.406,0.245,0.648,0.621,0.648
						c0.134,0,0.227-0.02,0.277-0.045v-0.479h-0.326v-0.167h0.53V35.7z"/>
					<path fill="#FFFFFF" d="M89.439,35.019h-0.62V35.6h0.696v0.174h-0.908v-1.608h0.87v0.175h-0.658v0.51h0.62V35.019z"/>
					<path fill="#FFFFFF" d="M91.138,35.068c-0.012-0.227-0.026-0.496-0.026-0.695h-0.007c-0.056,0.185-0.12,0.39-0.202,0.611
						l-0.285,0.779h-0.155L90.2,34.997c-0.075-0.229-0.138-0.434-0.186-0.624h-0.003c-0.004,0.199-0.016,0.465-0.03,0.711
						l-0.043,0.689h-0.196l0.109-1.608h0.266l0.275,0.779c0.066,0.194,0.119,0.375,0.162,0.54h0.006
						c0.042-0.162,0.099-0.34,0.17-0.54l0.285-0.779h0.266l0.1,1.608h-0.207L91.138,35.068z"/>
					<path fill="#FFFFFF" d="M93.036,35.019h-0.623V35.6h0.696v0.174h-0.907v-1.608h0.872v0.175h-0.661v0.51h0.623V35.019z"/>
					<path fill="#FFFFFF" d="M94.73,35.068c-0.013-0.227-0.027-0.496-0.027-0.695h-0.005c-0.057,0.185-0.122,0.39-0.202,0.611
						l-0.283,0.779h-0.158l-0.263-0.767c-0.076-0.229-0.137-0.434-0.183-0.624h-0.003c-0.006,0.199-0.017,0.465-0.032,0.711
						l-0.042,0.689h-0.197l0.11-1.608h0.264l0.276,0.779c0.064,0.194,0.119,0.375,0.162,0.54h0.003
						c0.044-0.162,0.101-0.34,0.172-0.54l0.285-0.779h0.267l0.1,1.608H94.77L94.73,35.068z"/>
					<path fill="#FFFFFF" d="M95.799,34.188c0.104-0.018,0.259-0.035,0.399-0.035c0.222,0,0.366,0.045,0.465,0.133
						c0.079,0.072,0.126,0.183,0.126,0.306c0,0.211-0.135,0.354-0.302,0.409v0.009c0.122,0.041,0.196,0.156,0.233,0.323
						c0.056,0.222,0.093,0.379,0.125,0.441h-0.213c-0.029-0.051-0.064-0.183-0.106-0.386c-0.048-0.219-0.133-0.304-0.323-0.312
						h-0.195v0.697h-0.209V34.188z M96.008,34.918h0.21c0.222,0,0.362-0.119,0.362-0.301c0-0.21-0.149-0.3-0.368-0.3
						c-0.1,0-0.168,0.007-0.204,0.015V34.918z"/>
					<path fill="#FFFFFF" d="M97.911,35.019h-0.62V35.6h0.695v0.174h-0.904v-1.608h0.867v0.175h-0.658v0.51h0.62V35.019z"/>
					<path fill="#FFFFFF" d="M98.252,34.191c0.128-0.021,0.278-0.039,0.442-0.039c0.3,0,0.511,0.077,0.651,0.202
						c0.147,0.132,0.229,0.315,0.229,0.578c0,0.261-0.082,0.475-0.231,0.621c-0.152,0.15-0.401,0.233-0.713,0.233
						c-0.15,0-0.271-0.007-0.378-0.018V34.191z M98.461,35.61c0.052,0.009,0.128,0.009,0.211,0.009c0.442,0,0.682-0.247,0.682-0.683
						c0.002-0.379-0.211-0.619-0.651-0.619c-0.107,0-0.188,0.011-0.243,0.022V35.61z"/>
					<path fill="#FFFFFF" d="M100.671,35.019h-0.621V35.6h0.695v0.174h-0.903v-1.608h0.867v0.175h-0.659v0.51h0.621V35.019z"/>
				</g>
			</g>
		</g>
		<path fill-rule="evenodd" clip-rule="evenodd" fill="#FFFFFF" d="M114.06,24.877L116,26l1.939,1.12v2.245v2.242L116,32.732
			l-1.94,1.118l-1.943-1.118l-1.941-1.125v-2.242V27.12l1.941-1.12L114.06,24.877L114.06,24.877z M117.949,19.047l-1.552,0.894
			l-1.555,0.898v1.792v1.791l1.555,0.9l1.552,0.895l1.554-0.895l1.552-0.9v-1.791v-1.792l-1.552-0.898L117.949,19.047
			L117.949,19.047z M120.287,32.963l1.168,0.673l1.171,0.671v1.344v1.341l-1.171,0.674l-1.168,0.671l-1.169-0.671l-1.171-0.674
			V35.65v-1.344l1.171-0.671L120.287,32.963L120.287,32.963z M130.396,25.332l1.558,0.895l1.56,0.896v1.793v1.791l-1.56,0.896
			l-1.558,0.897l-1.558-0.897l-1.557-0.896v-1.791v-1.793l1.557-0.896L130.396,25.332L130.396,25.332z M127.201,15.397l-2.334,1.345
			l-2.333,1.346v2.693v2.69l2.333,1.347l2.334,1.344l2.335-1.344l2.332-1.347v-2.69v-2.693l-2.332-1.346L127.201,15.397
			L127.201,15.397z M127.28,31.606l-1.942,1.122l-1.944,1.122v2.247v2.246l1.944,1.12l1.942,1.124l1.944-1.124l1.943-1.12v-2.246
			v-2.247l-1.943-1.122L127.28,31.606z"/>
		<path fill="#FFFFFF" d="M136.209,20.493v4.453c0.002,0.843,0.128,1.531,0.378,2.074c0.252,0.539,0.612,0.939,1.086,1.198
			c0.474,0.259,1.047,0.388,1.723,0.385c0.696,0,1.291-0.129,1.789-0.396c0.494-0.262,0.875-0.664,1.138-1.204
			c0.263-0.534,0.395-1.213,0.399-2.034v-4.476h-1.801v4.58c-0.001,0.712-0.128,1.235-0.378,1.576
			c-0.252,0.342-0.613,0.51-1.089,0.508c-0.459,0-0.813-0.171-1.063-0.522c-0.251-0.343-0.378-0.865-0.381-1.562v-4.58H136.209
			L136.209,20.493z M145.394,28.475h1.802v-3.209h2.864v-1.467h-2.864v-1.826h3.064v-1.479h-4.866V28.475L145.394,28.475z
			 M159.148,23.915h-2.971v1.41h1.228v1.669c-0.071,0.031-0.188,0.056-0.337,0.075c-0.154,0.02-0.333,0.03-0.537,0.03
			c-0.372,0-0.71-0.059-1.018-0.173c-0.306-0.118-0.574-0.285-0.797-0.513c-0.226-0.221-0.398-0.491-0.521-0.816
			c-0.122-0.32-0.184-0.688-0.186-1.104c0.001-0.432,0.069-0.811,0.204-1.136c0.133-0.323,0.319-0.596,0.558-0.808
			c0.24-0.218,0.521-0.379,0.841-0.487c0.321-0.107,0.672-0.159,1.05-0.159c0.29,0,0.548,0.013,0.77,0.043
			c0.223,0.029,0.424,0.07,0.598,0.12c0.174,0.053,0.335,0.112,0.479,0.179l0.378-1.468c-0.129-0.059-0.304-0.112-0.519-0.169
			c-0.215-0.056-0.462-0.104-0.748-0.142c-0.288-0.034-0.599-0.054-0.946-0.058c-0.658,0-1.263,0.094-1.813,0.278
			c-0.553,0.186-1.035,0.456-1.444,0.814c-0.409,0.357-0.727,0.793-0.953,1.312c-0.226,0.516-0.342,1.108-0.348,1.774
			c0,0.392,0.043,0.766,0.133,1.118c0.087,0.354,0.212,0.683,0.38,0.982c0.165,0.302,0.371,0.569,0.611,0.802
			c0.366,0.35,0.817,0.617,1.351,0.795c0.537,0.18,1.167,0.271,1.893,0.271c0.356-0.004,0.702-0.028,1.036-0.075
			c0.336-0.051,0.645-0.104,0.924-0.175c0.282-0.07,0.517-0.136,0.705-0.199V23.915z"/>
		<g>
			<path fill-rule="evenodd" clip-rule="evenodd" fill="#FFFFFF" d="M136.194,31.177v1.01c0,0.576,0.263,0.832,0.721,0.832
				c0.471,0,0.753-0.268,0.753-0.825v-1.017h-0.409v1.04c0,0.323-0.117,0.473-0.331,0.473c-0.208,0-0.328-0.158-0.328-0.473v-1.04
				H136.194L136.194,31.177z M138.852,32.989v-0.544c0-0.299-0.006-0.553-0.019-0.793h0.009c0.087,0.214,0.207,0.441,0.314,0.637
				l0.386,0.7h0.431v-1.812h-0.375v0.529c0,0.273,0.007,0.518,0.032,0.755h-0.005c-0.083-0.202-0.189-0.428-0.297-0.617
				l-0.373-0.667h-0.478v1.812H138.852L138.852,32.989z M140.78,31.177v1.812h0.409v-1.812H140.78L140.78,31.177z M142.897,32.989
				l0.61-1.812h-0.435l-0.23,0.774c-0.062,0.209-0.119,0.424-0.163,0.641h-0.01c-0.043-0.227-0.099-0.429-0.16-0.646l-0.221-0.769
				h-0.446l0.579,1.812H142.897L142.897,32.989z M145.228,31.891h-0.662v-0.373h0.707v-0.341h-1.116v1.812h1.151v-0.334h-0.742
				v-0.432h0.662V31.891L145.228,31.891z M146.039,32.989h0.404v-0.717h0.12c0.17,0.005,0.248,0.064,0.299,0.293
				c0.05,0.224,0.095,0.37,0.123,0.424h0.418c-0.034-0.069-0.09-0.308-0.145-0.517c-0.045-0.167-0.116-0.286-0.24-0.334v-0.01
				c0.154-0.055,0.319-0.214,0.319-0.439c0-0.168-0.061-0.291-0.172-0.378c-0.128-0.105-0.313-0.144-0.582-0.144
				c-0.223,0-0.413,0.013-0.545,0.038V32.989L146.039,32.989z M146.443,31.486c0.03-0.007,0.086-0.017,0.185-0.017
				c0.187,0,0.3,0.087,0.3,0.251c0,0.157-0.121,0.259-0.326,0.259h-0.16V31.486L146.443,31.486z M148.012,32.904
				c0.103,0.057,0.306,0.114,0.514,0.114c0.494,0,0.726-0.259,0.726-0.562c0-0.257-0.148-0.424-0.467-0.542
				c-0.235-0.093-0.335-0.143-0.335-0.257c0-0.092,0.085-0.175,0.264-0.175c0.173,0,0.305,0.051,0.375,0.086l0.09-0.329
				c-0.108-0.05-0.255-0.089-0.461-0.089c-0.424,0-0.684,0.232-0.684,0.54c0,0.267,0.198,0.435,0.499,0.541
				c0.216,0.073,0.304,0.143,0.304,0.251c0,0.12-0.101,0.198-0.287,0.198c-0.174,0-0.347-0.056-0.455-0.112L148.012,32.904
				L148.012,32.904z M149.983,31.177v1.812h0.409v-1.812H149.983L149.983,31.177z M151.2,32.98c0.098,0.013,0.252,0.027,0.463,0.027
				c0.355,0,0.646-0.077,0.836-0.235c0.173-0.146,0.3-0.386,0.3-0.733c0-0.319-0.119-0.543-0.307-0.686
				c-0.171-0.129-0.397-0.186-0.743-0.186c-0.204,0-0.399,0.009-0.549,0.038V32.98L151.2,32.98z M151.606,31.496
				c0.036-0.007,0.097-0.015,0.185-0.015c0.355,0,0.575,0.183,0.575,0.574c0,0.431-0.245,0.634-0.617,0.634
				c-0.048,0-0.106,0-0.143-0.012V31.496L151.606,31.496z M154.457,32.524l0.14,0.465h0.44l-0.563-1.812h-0.534l-0.551,1.812h0.423
				l0.125-0.465H154.457L154.457,32.524z M153.996,32.217l0.112-0.381c0.026-0.108,0.055-0.242,0.079-0.35h0.008
				c0.027,0.101,0.06,0.241,0.089,0.35l0.114,0.381H153.996L153.996,32.217z M155.73,32.98c0.099,0.013,0.252,0.027,0.466,0.027
				c0.352,0,0.645-0.077,0.835-0.235c0.171-0.146,0.3-0.386,0.3-0.733c0-0.319-0.119-0.543-0.309-0.686
				c-0.168-0.129-0.396-0.186-0.742-0.186c-0.204,0-0.399,0.009-0.55,0.038V32.98L155.73,32.98z M156.139,31.496
				c0.035-0.007,0.095-0.015,0.185-0.015c0.354,0,0.575,0.183,0.575,0.574c0,0.431-0.245,0.634-0.619,0.634
				c-0.049,0-0.106,0-0.141-0.012V31.496L156.139,31.496z M159.126,31.891h-0.666v-0.373h0.707v-0.341h-1.115v1.812h1.151v-0.334
				h-0.743v-0.432h0.666V31.891z"/>
			<path fill-rule="evenodd" clip-rule="evenodd" fill="#FFFFFF" d="M136.187,36.07h0.407v-0.726h0.65v-0.334h-0.65v-0.413h0.695
				v-0.336h-1.103V36.07L136.187,36.07z M138.597,34.973h-0.665v-0.375h0.706v-0.336h-1.114v1.809h1.152v-0.333h-0.744v-0.432h0.665
				V34.973L138.597,34.973z M138.955,36.062c0.1,0.014,0.253,0.026,0.464,0.026c0.355,0,0.647-0.072,0.837-0.232
				c0.173-0.145,0.297-0.388,0.297-0.73c0-0.323-0.118-0.547-0.307-0.689c-0.17-0.129-0.397-0.188-0.744-0.188
				c-0.202,0-0.399,0.014-0.548,0.043V36.062L138.955,36.062z M139.362,34.578c0.035-0.009,0.098-0.015,0.186-0.015
				c0.354,0,0.576,0.184,0.576,0.571c0,0.434-0.249,0.637-0.622,0.635c-0.047,0-0.105,0-0.14-0.007V34.578L139.362,34.578z
				 M141.896,34.973h-0.663v-0.375h0.704v-0.336h-1.113v1.809h1.15v-0.333h-0.741v-0.432h0.663V34.973L141.896,34.973z
				 M142.253,36.07h0.405v-0.712h0.123c0.166,0,0.245,0.061,0.298,0.288c0.049,0.226,0.094,0.371,0.121,0.424h0.42
				c-0.034-0.069-0.09-0.307-0.145-0.514c-0.045-0.169-0.115-0.287-0.243-0.336v-0.009c0.155-0.055,0.32-0.215,0.32-0.44
				c0-0.166-0.059-0.292-0.17-0.38c-0.131-0.101-0.316-0.144-0.585-0.144c-0.221,0-0.411,0.017-0.544,0.043V36.07L142.253,36.07z
				 M142.658,34.568c0.03-0.011,0.087-0.012,0.187-0.012c0.188,0,0.299,0.086,0.299,0.246c0,0.157-0.122,0.261-0.325,0.261h-0.162
				V34.568L142.658,34.568z M144.807,35.606l0.141,0.464h0.44l-0.564-1.809h-0.535l-0.552,1.809h0.423l0.128-0.464H144.807
				L144.807,35.606z M144.347,35.302l0.109-0.387c0.031-0.103,0.057-0.238,0.08-0.347h0.008c0.028,0.104,0.056,0.243,0.089,0.347
				l0.112,0.387H144.347L144.347,35.302z M145.604,36.07h1.127v-0.344h-0.72v-1.465h-0.408V36.07L145.604,36.07z M147.591,36.062
				c0.1,0.014,0.251,0.026,0.464,0.026c0.354,0,0.646-0.074,0.835-0.232c0.174-0.148,0.3-0.388,0.3-0.73
				c0-0.323-0.119-0.547-0.304-0.689c-0.172-0.13-0.398-0.188-0.744-0.188c-0.204,0-0.401,0.014-0.551,0.043V36.062L147.591,36.062z
				 M147.999,34.578c0.037-0.009,0.097-0.015,0.187-0.015c0.354,0,0.573,0.184,0.573,0.571c0,0.434-0.244,0.637-0.616,0.635
				c-0.049,0-0.106,0-0.144-0.007V34.578L147.999,34.578z M150.534,34.973h-0.667v-0.375h0.709v-0.336h-1.117v1.809h1.153v-0.333
				h-0.746v-0.432h0.667V34.973L150.534,34.973z M153.296,35.038h-0.675v0.32h0.28v0.379c-0.033,0.014-0.108,0.021-0.2,0.021
				c-0.335,0-0.571-0.217-0.571-0.59c0-0.396,0.262-0.587,0.601-0.587c0.2,0,0.32,0.035,0.421,0.078l0.085-0.332
				c-0.09-0.037-0.268-0.085-0.503-0.085c-0.593,0-1.029,0.344-1.031,0.946c0,0.266,0.09,0.501,0.254,0.66
				c0.166,0.156,0.406,0.238,0.734,0.238c0.24,0,0.48-0.059,0.606-0.1V35.038L153.296,35.038z M154.383,36.101
				c0.529,0,0.887-0.359,0.887-0.953c0-0.499-0.304-0.915-0.86-0.915c-0.531,0-0.879,0.404-0.879,0.945
				c0,0.518,0.315,0.923,0.851,0.923H154.383L154.383,36.101z M154.397,35.774c-0.275,0-0.439-0.263-0.439-0.605
				c0-0.337,0.16-0.612,0.442-0.612c0.279,0,0.432,0.281,0.432,0.604c0,0.354-0.158,0.613-0.432,0.613H154.397L154.397,35.774z
				 M155.539,34.262v1.809h0.408v-1.809H155.539L155.539,34.262z M157.241,35.606l0.138,0.464h0.44l-0.563-1.809h-0.535
				l-0.552,1.809h0.424l0.126-0.464H157.241L157.241,35.606z M156.78,35.302l0.108-0.387c0.028-0.104,0.056-0.238,0.082-0.347h0.007
				c0.026,0.104,0.058,0.243,0.089,0.347l0.112,0.387H156.78L156.78,35.302z M157.055,33.828l-0.235,0.337h0.323l0.335-0.337
				H157.055L157.055,33.828z M157.992,35.988c0.102,0.056,0.307,0.112,0.513,0.112c0.497,0,0.724-0.259,0.724-0.56
				c0-0.26-0.145-0.428-0.467-0.544c-0.236-0.091-0.335-0.143-0.335-0.259c0-0.09,0.087-0.174,0.265-0.174
				c0.174,0,0.303,0.053,0.375,0.087l0.09-0.327c-0.109-0.053-0.256-0.092-0.46-0.092c-0.425,0-0.684,0.234-0.684,0.54
				c0,0.267,0.197,0.434,0.498,0.539c0.217,0.076,0.303,0.146,0.303,0.255c0,0.121-0.098,0.2-0.289,0.2
				c-0.173,0-0.344-0.06-0.451-0.113L157.992,35.988z"/>
		</g>
	</g>
	<g>
		<path fill="#FFFFFF" d="M17.02,29.889c0.296,0,0.533-0.238,0.533-0.53l0,0c0-0.291-0.237-0.531-0.533-0.531h-5.583
			c-0.295,0-0.534,0.24-0.534,0.531l0,0c0,0.294,0.239,0.53,0.534,0.53H17.02z"/>
		<g>
			<path fill="#FFFFFF" d="M40.922,29.188l-4.244-8.041c-0.088-0.17-0.256-0.271-0.436-0.284c-0.001,0-0.004,0-0.008,0
				c-0.011-0.002-0.021-0.002-0.032-0.002c-0.011,0-0.024,0-0.035,0.002c-0.002,0-0.004,0-0.009,0
				c-0.177,0.013-0.344,0.114-0.432,0.284l-4.245,8.041c-0.136,0.263-0.034,0.58,0.228,0.715c0.262,0.134,0.583,0.036,0.719-0.227
				l3.775-7.149l3.773,7.149c0.135,0.263,0.457,0.36,0.718,0.227C40.954,29.769,41.058,29.451,40.922,29.188z"/>
			<path fill="#FFFFFF" d="M29.181,20.948c-0.293,0-0.532,0.237-0.532,0.529v7.881c0,0.292,0.239,0.53,0.532,0.53
				c0.294,0,0.534-0.238,0.534-0.53v-7.881C29.714,21.186,29.475,20.948,29.181,20.948z"/>
			<path fill="#FFFFFF" d="M17.02,20.948h-5.583c-0.295,0-0.534,0.237-0.534,0.529v7.881c0,0.292,0.239,0.53,0.534,0.53
				c0.293,0,0.532-0.238,0.532-0.53v-7.353h5.051c0.296,0,0.533-0.235,0.533-0.528C17.553,21.186,17.316,20.948,17.02,20.948z"/>
			<path fill="#FFFFFF" d="M16.022,24.733h-2.854c-0.294,0-0.531,0.235-0.531,0.53c0,0.291,0.238,0.53,0.531,0.53h2.854
				c0.294,0,0.535-0.239,0.535-0.53C16.557,24.969,16.317,24.733,16.022,24.733z"/>
			<path fill="#FFFFFF" d="M8.798,21.091c-0.208-0.207-0.545-0.207-0.753,0l-3.565,3.548l-3.566-3.548
				c-0.207-0.207-0.543-0.207-0.751,0c-0.052,0.052-0.092,0.111-0.119,0.177C0.017,21.329,0,21.401,0,21.478v7.881
				c0,0.292,0.239,0.53,0.532,0.53c0.296,0,0.532-0.238,0.532-0.53v-6.616l2.972,2.953c0.019,0.026,0.036,0.052,0.059,0.074
				c0.106,0.103,0.246,0.154,0.384,0.154c0.139,0,0.279-0.052,0.385-0.154c0.022-0.022,0.042-0.048,0.059-0.074l2.971-2.953v6.616
				c0,0.292,0.239,0.53,0.534,0.53c0.293,0,0.532-0.238,0.532-0.53v-7.881c0-0.076-0.014-0.148-0.043-0.21
				C8.89,21.202,8.851,21.143,8.798,21.091z"/>
			<path fill="#FFFFFF" d="M22.535,20.948h-0.62h-0.157h-2.502c-0.297,0-0.535,0.237-0.535,0.529v7.881
				c0,0.273,0.21,0.502,0.479,0.526c0.018,0.004,0.037,0.004,0.056,0.004h2.694h0.152h0.434c1.77,0,3.207-1.451,3.207-3.213v-2.502
				C25.742,22.414,24.305,20.948,22.535,20.948z M24.726,26.378c0,1.346-1.098,2.454-2.451,2.454h-0.332l-0.384-0.005h-1.773v-6.821
				h2.129c0.02,0,0.039,0,0.06-0.002h0.3c1.353,0,2.451,1.121,2.451,2.467V26.378z"/>
		</g>
		<path fill="#FFFFFF" d="M49.997,32.491c0.293,0,0.532-0.237,0.532-0.53l0,0c0-0.293-0.239-0.532-0.532-0.532h-5.583
			c-0.296,0-0.535,0.239-0.535,0.532l0,0c0,0.293,0.238,0.53,0.535,0.53H49.997z"/>
		<g>
			<path fill="#FFFFFF" d="M31.052,31.417c-0.262-0.134-0.583-0.03-0.718,0.228l-4.244,8.041c-0.137,0.26-0.034,0.578,0.227,0.718
				c0.261,0.132,0.583,0.032,0.719-0.229l4.245-8.041C31.415,31.874,31.313,31.555,31.052,31.417z"/>
			<path fill="#FFFFFF" d="M58.309,35.957h-3.155c-0.294,0-0.535,0.237-0.535,0.531c0,0.291,0.24,0.528,0.535,0.528h2.623v2.174
				h-2.129c-0.02,0-0.04,0.002-0.059,0.005h-0.301c-1.352,0-2.448-1.119-2.448-2.464v-1.91c0-1.346,1.096-2.454,2.448-2.454h0.331
				l0.386,0.004h2.304c0.292,0,0.532-0.238,0.532-0.529c0-0.295-0.24-0.53-0.532-0.53h-2.696h-0.152h-0.433
				c-1.772,0-3.207,1.45-3.207,3.213v2.498c0,1.766,1.435,3.229,3.207,3.229h0.619h0.157h2.505c0.292,0,0.532-0.237,0.532-0.53
				v-3.136c0-0.019-0.002-0.035-0.002-0.052c0-0.014,0.002-0.03,0.002-0.046C58.841,36.194,58.602,35.957,58.309,35.957z"/>
			<path fill="#FFFFFF" d="M40.834,31.224c-0.295,0-0.534,0.237-0.534,0.53v4.802c0,0.015,0.002,0.026,0.002,0.038v0.191
				c0,1.684-1.124,2.437-2.474,2.437h-0.924c-1.353,0-2.468-0.714-2.468-2.437v-0.199l0.004-0.383v-4.449
				c0-0.293-0.237-0.53-0.532-0.53c-0.294,0-0.532,0.237-0.532,0.53v4.838v0.149v0.431c0,1.763,1.458,3.192,3.229,3.192h1.518
				c1.77,0,3.244-1.43,3.244-3.192v-0.616V36.4v-4.646C41.368,31.461,41.127,31.224,40.834,31.224z"/>
			<path fill="#FFFFFF" d="M44.415,31.429c-0.296,0-0.535,0.239-0.535,0.532v7.882c0,0.292,0.238,0.528,0.535,0.528
				c0.291,0,0.532-0.236,0.532-0.528v-7.882C44.946,31.668,44.706,31.429,44.415,31.429z"/>
			<path fill="#FFFFFF" d="M48.999,35.216h-3.026c-0.294,0-0.533,0.238-0.533,0.529c0,0.294,0.24,0.53,0.533,0.53h3.026
				c0.295,0,0.532-0.236,0.532-0.53C49.531,35.454,49.294,35.216,48.999,35.216z"/>
		</g>
		<g>
			<path fill="#FFFFFF" d="M6.117,39.312H1.064v-7.351c0-0.293-0.236-0.532-0.532-0.532C0.239,31.429,0,31.668,0,31.961v7.882
				c0,0.119,0.041,0.223,0.104,0.312c0.016,0.022,0.032,0.043,0.052,0.062c0.002,0.003,0.006,0.005,0.011,0.009
				c0.032,0.03,0.07,0.06,0.111,0.082c0.005,0.004,0.01,0.004,0.015,0.008c0.025,0.013,0.052,0.024,0.081,0.031
				c0.01,0.004,0.021,0.008,0.031,0.008c0.007,0.003,0.014,0.004,0.019,0.007c0.009,0,0.016,0.003,0.023,0.003
				c0.026,0.005,0.056,0.007,0.084,0.007h5.585c0.293,0,0.531-0.236,0.531-0.528C6.648,39.549,6.411,39.312,6.117,39.312z"/>
			<path fill="#FFFFFF" d="M13.623,31.773c-0.09-0.17-0.257-0.271-0.435-0.285c-0.003,0-0.006,0-0.009,0c-0.01,0-0.021,0-0.032,0
				s-0.024,0-0.034,0c-0.002,0-0.005,0-0.009,0c-0.179,0.015-0.346,0.115-0.433,0.285l-4.244,8.04
				c-0.137,0.261-0.034,0.582,0.227,0.717c0.261,0.133,0.582,0.032,0.717-0.229l3.776-7.15l3.773,7.15
				c0.136,0.261,0.458,0.361,0.719,0.229c0.261-0.135,0.363-0.456,0.228-0.717L13.623,31.773z"/>
			<path fill="#FFFFFF" d="M24.681,35.98c0.672-0.435,1.119-1.187,1.119-2.043c0-1.343-1.095-2.434-2.447-2.434
				c-0.021,0-0.045,0.003-0.066,0.007c-0.009-0.003-0.015-0.004-0.024-0.004h-4.007c-0.297,0-0.535,0.236-0.535,0.53v7.879
				c0,0.295,0.237,0.532,0.535,0.532l4.071-0.002c0.005,0.002,0.009,0.002,0.016,0.002c1.35,0,2.444-1.093,2.444-2.435
				C25.787,37.163,25.349,36.414,24.681,35.98z M23.343,39.388c-0.045,0-0.091-0.003-0.133-0.005v0.002h-3.424v-6.818h3.424v0.003
				c0.046-0.004,0.095-0.007,0.144-0.007c0.764,0,1.382,0.617,1.382,1.375c0,0.761-0.611,1.359-1.375,1.359
				c-0.043,0-0.092,0.009-0.137,0.009l0,0c-0.001,0-0.003,0-0.003,0c-0.003,0-0.009,0-0.01,0v0.003
				c-0.373,0.032-0.646,0.298-0.646,0.656c0,0.359,0.291,0.65,0.652,0.656v0.002c0.043-0.002,0.089,0.003,0.134,0.003
				c0.763,0.021,1.377,0.628,1.377,1.388S24.106,39.388,23.343,39.388z"/>
		</g>
	</g>
	<g>
		<path fill="#FFFFFF" d="M272.873,40.588c-0.723,0-0.838-0.483-0.367-1.12c0.455-0.612,1.311-1.129,1.977-1.129
			c0.387,0,0.547,0.104,0.643,0.295c-0.18,0.116-0.271,0.174-0.451,0.288c-0.072-0.142-0.178-0.231-0.459-0.231
			c-0.41,0-0.977,0.348-1.287,0.771c-0.33,0.449-0.262,0.779,0.209,0.779c0.215,0,0.459-0.064,0.67-0.165
			c0.117-0.162,0.172-0.243,0.287-0.406h-0.58c0.096-0.133,0.145-0.201,0.238-0.333h0.961c-0.256,0.366-0.385,0.548-0.639,0.914
			C273.718,40.433,273.281,40.588,272.873,40.588"/>
		<path fill="#FFFFFF" d="M278.755,40.588c-0.707,0-0.881-0.505-0.492-1.12c0.389-0.617,1.193-1.129,1.873-1.129
			s0.855,0.507,0.494,1.122C280.267,40.075,279.466,40.588,278.755,40.588 M279.916,38.69c-0.441,0-0.967,0.344-1.232,0.771
			c-0.266,0.425-0.16,0.776,0.295,0.776s0.979-0.345,1.23-0.77C280.464,39.042,280.359,38.69,279.916,38.69"/>
		<path fill="#FFFFFF" d="M286.333,38.376h0.422c-0.666,0.737-1.338,1.467-2.018,2.191h-0.355c0.061-0.876,0.1-1.315,0.191-2.191
			h0.43c-0.078,0.669-0.113,1.004-0.176,1.671C285.439,39.38,285.738,39.045,286.333,38.376"/>
		<path fill="#FFFFFF" d="M291.804,38.716h-1.26c-0.092,0.228-0.139,0.342-0.232,0.566h1.129c-0.051,0.137-0.078,0.206-0.131,0.343
			h-1.137c-0.094,0.233-0.143,0.352-0.238,0.584h1.312c-0.053,0.138-0.078,0.206-0.131,0.341h-1.727
			c0.363-0.869,0.543-1.302,0.904-2.174h1.641C291.882,38.513,291.857,38.581,291.804,38.716"/>
		<path fill="#FFFFFF" d="M296.369,40.55c-0.141-0.3-0.207-0.453-0.34-0.756h-0.502c-0.092,0.303-0.139,0.456-0.232,0.756h-0.406
			c0.273-0.869,0.41-1.302,0.686-2.174h0.986c0.508,0,0.748,0.264,0.629,0.689c-0.1,0.361-0.385,0.578-0.729,0.662
			c0.152,0.331,0.229,0.494,0.385,0.822H296.369z M296.425,38.724h-0.57c-0.09,0.293-0.135,0.438-0.225,0.731h0.58
			c0.285,0,0.508-0.144,0.57-0.368C296.851,38.848,296.714,38.724,296.425,38.724"/>
		<path fill="#FFFFFF" d="M302.566,38.376h0.383c-0.15,0.872-0.227,1.305-0.377,2.174h-0.34c-0.396-0.619-0.588-0.927-0.957-1.546
			c-0.125,0.619-0.189,0.927-0.314,1.546h-0.398c0.184-0.869,0.275-1.302,0.457-2.174h0.361c0.352,0.601,0.535,0.901,0.914,1.505
			C302.404,39.277,302.457,38.977,302.566,38.376"/>
		<path fill="#FFFFFF" d="M307.552,40.588c-0.707,0-1.15-0.505-1.084-1.12c0.062-0.617,0.596-1.129,1.275-1.129
			s1.123,0.507,1.086,1.122C308.792,40.075,308.263,40.588,307.552,40.588 M307.708,38.69c-0.441,0-0.783,0.344-0.824,0.771
			c-0.041,0.425,0.25,0.776,0.703,0.776c0.455,0,0.797-0.345,0.826-0.77C308.443,39.042,308.15,38.69,307.708,38.69"/>
		<path fill="#FFFFFF" d="M318.324,38.724h-1.266c0.021,0.238,0.033,0.356,0.057,0.593h1.137c0.018,0.141,0.025,0.209,0.041,0.35
			h-1.145c0.035,0.354,0.053,0.53,0.086,0.884h-0.404c-0.078-0.869-0.115-1.302-0.193-2.174h1.646
			C318.3,38.516,318.31,38.584,318.324,38.724"/>
		<path fill="#FFFFFF" d="M323.587,38.716h-1.26c0.043,0.228,0.066,0.342,0.109,0.566h1.129c0.031,0.137,0.045,0.206,0.074,0.343
			h-1.135c0.045,0.233,0.068,0.352,0.113,0.584h1.312c0.031,0.138,0.047,0.206,0.076,0.341h-1.725
			c-0.166-0.869-0.248-1.302-0.41-2.174h1.639C323.542,38.513,323.558,38.581,323.587,38.716"/>
		<path fill="#FFFFFF" d="M328.64,40.55h-0.859c-0.252-0.869-0.379-1.302-0.631-2.174h0.826c0.693,0,1.33,0.47,1.531,1.085
			C329.708,40.075,329.363,40.55,328.64,40.55 M328.082,38.724h-0.441c0.178,0.592,0.266,0.888,0.441,1.479h0.451
			c0.482,0,0.697-0.308,0.561-0.735C328.955,39.038,328.548,38.724,328.082,38.724"/>
		<path fill="#FFFFFF" d="M334.57,38.716h-1.258c0.09,0.228,0.137,0.342,0.227,0.566h1.129c0.059,0.137,0.088,0.206,0.146,0.343
			h-1.137c0.094,0.233,0.143,0.352,0.236,0.584h1.312c0.059,0.138,0.088,0.206,0.146,0.341h-1.725
			c-0.348-0.869-0.52-1.302-0.863-2.174h1.639C334.482,38.513,334.511,38.581,334.57,38.716"/>
		<path fill="#FFFFFF" d="M340.625,40.55c-0.387-0.3-0.578-0.453-0.957-0.756h-0.5c0.152,0.303,0.229,0.456,0.383,0.756h-0.404
			c-0.434-0.869-0.65-1.302-1.084-2.174h0.986c0.508,0,0.963,0.264,1.189,0.689c0.191,0.361,0.086,0.578-0.188,0.662
			c0.416,0.331,0.627,0.494,1.053,0.822H340.625z M339.197,38.724h-0.568c0.146,0.293,0.219,0.438,0.367,0.731h0.58
			c0.285,0,0.391-0.144,0.273-0.368C339.724,38.848,339.486,38.724,339.197,38.724"/>
		<path fill="#FFFFFF" d="M347.025,40.55h-0.428c-0.227-0.209-0.342-0.313-0.564-0.523h-1.08c0.033,0.21,0.051,0.314,0.082,0.523
			h-0.412c-0.119-0.875-0.189-1.313-0.34-2.19h0.359C345.433,39.096,346.228,39.825,347.025,40.55 M344.74,38.816
			c0.062,0.349,0.094,0.523,0.15,0.872h0.781C345.296,39.34,345.111,39.165,344.74,38.816"/>
		<path fill="#FFFFFF" d="M349.166,38.376h0.391c0.525,0.731,0.787,1.098,1.311,1.827h1.203c0.104,0.139,0.154,0.208,0.258,0.347
			h-1.615C350.093,39.681,349.785,39.248,349.166,38.376"/>
		<polygon fill="#FFFFFF" points="336.761,24.673 341.271,32.8 348.298,32.8 351.164,36.955 338.181,36.955 332.541,24.673 		"/>
		<path fill="#FFFFFF" d="M331.783,24.673h-4.221l0.379,1.095c-0.441-0.217-0.893-0.405-1.355-0.563
			c-0.459-0.161-0.932-0.291-1.424-0.396c-0.488-0.104-0.998-0.183-1.531-0.233c-0.533-0.052-1.092-0.077-1.682-0.077
			c-0.303,0-0.588,0.012-0.861,0.031c-0.893,1.771-2.244,3.271-3.896,4.345c0.104,0.233,0.236,0.447,0.4,0.646
			c0.357,0.435,0.85,0.791,1.439,1.088c0.598,0.3,1.293,0.536,2.053,0.738c0.766,0.2,1.59,0.361,2.445,0.51
			c0.41,0.069,0.748,0.136,1.029,0.201s0.502,0.13,0.678,0.199c0.174,0.069,0.301,0.145,0.391,0.226
			c0.09,0.083,0.143,0.174,0.17,0.279c0.025,0.093,0.021,0.176-0.01,0.247c-0.031,0.07-0.094,0.133-0.186,0.183
			c-0.092,0.051-0.215,0.091-0.373,0.116c-0.156,0.024-0.348,0.038-0.574,0.038c-0.441,0-0.898-0.028-1.363-0.092
			c-0.459-0.06-0.93-0.155-1.396-0.282c-0.469-0.129-0.938-0.291-1.396-0.489c-0.457-0.197-0.906-0.43-1.342-0.698l-1.391,1.705
			l-2.121-3.771c-1.328,0.592-2.795,0.932-4.336,0.96l0.416,0.994h-2.676l0.535-1.094c-1.416-0.191-2.746-0.648-3.943-1.315
			l-3.352,5.28l-1.355-2.461c0.488-0.191,0.938-0.416,1.344-0.674c0.398-0.255,0.752-0.541,1.057-0.86
			c0.297-0.314,0.545-0.659,0.734-1.03c0.166-0.326,0.285-0.672,0.359-1.04c-1.309-0.975-2.398-2.228-3.18-3.673
			c-0.125-0.018-0.252-0.037-0.385-0.051c-0.449-0.051-0.951-0.079-1.508-0.079h-6.17l-0.783,1.812
			c0.008-0.097,0.006-0.188-0.002-0.276c-0.01-0.087-0.027-0.169-0.053-0.246c-0.025-0.076-0.057-0.147-0.094-0.216
			c-0.037-0.066-0.08-0.131-0.131-0.19c-0.123-0.146-0.275-0.272-0.461-0.385c-0.188-0.107-0.406-0.201-0.668-0.274
			c-0.258-0.073-0.555-0.129-0.896-0.166c-0.344-0.036-0.73-0.058-1.168-0.058h-7.07l-8.471,12.282h8.947
			c0.688,0,1.348-0.052,1.973-0.152c0.621-0.098,1.207-0.242,1.754-0.427c0.541-0.181,1.041-0.403,1.494-0.657
			c0.451-0.25,0.855-0.532,1.211-0.841l-0.898,2.077h5.396l1.4-4.155h1.068l1.727,4.155h3.299h2.859h2.904l1.008-2.032h5.445
			l0.879,2.032h5.855l-0.484-0.867c0.447,0.189,0.916,0.355,1.398,0.499c0.484,0.146,0.984,0.267,1.498,0.364
			s1.039,0.172,1.57,0.223c0.535,0.049,1.076,0.073,1.621,0.073c0.803,0,1.537-0.068,2.191-0.202
			c0.648-0.133,1.217-0.329,1.695-0.582c0.475-0.25,0.861-0.558,1.15-0.911c0.287-0.351,0.477-0.747,0.57-1.183l0.896,2.586h5.396
			L331.783,24.673z M285.564,32.228l-0.02,0.039c-0.074,0.141-0.178,0.272-0.307,0.391c-0.131,0.119-0.289,0.224-0.473,0.312
			c-0.184,0.086-0.393,0.155-0.625,0.202c-0.23,0.049-0.486,0.075-0.762,0.075h-2.52l1.168-1.96h2.447
			c0.264,0,0.482,0.024,0.656,0.066c0.174,0.047,0.305,0.109,0.393,0.192s0.135,0.182,0.139,0.297
			C285.669,31.96,285.634,32.087,285.564,32.228 M287.404,27.994l-0.018,0.033c-0.064,0.123-0.152,0.233-0.262,0.329
			s-0.24,0.177-0.395,0.243c-0.158,0.066-0.336,0.116-0.537,0.15s-0.426,0.051-0.67,0.051h-2.014l0.928-1.557h1.928
			c0.238,0,0.439,0.017,0.602,0.049s0.287,0.08,0.371,0.143c0.086,0.063,0.135,0.142,0.146,0.233
			C287.494,27.763,287.468,27.872,287.404,27.994 M290.421,31.057c-0.064-0.154-0.154-0.297-0.266-0.425
			c-0.113-0.126-0.25-0.241-0.406-0.346c-0.156-0.104-0.336-0.194-0.531-0.277c-0.195-0.081-0.41-0.155-0.643-0.22
			c0.344-0.088,0.674-0.193,0.986-0.314c0.309-0.123,0.605-0.262,0.879-0.418c0.27-0.155,0.52-0.327,0.746-0.519
			c0.223-0.188,0.42-0.395,0.592-0.618L290.421,31.057z M299.832,28.604l-0.01,0.032c-0.045,0.176-0.127,0.336-0.244,0.475
			c-0.117,0.14-0.27,0.26-0.449,0.357c-0.182,0.1-0.395,0.175-0.629,0.226c-0.236,0.052-0.5,0.078-0.779,0.078h-2.033l0.754-2.234
			h1.957c0.262,0,0.49,0.022,0.688,0.066c0.197,0.042,0.361,0.108,0.486,0.194c0.127,0.087,0.217,0.198,0.26,0.332
			C299.876,28.265,299.88,28.423,299.832,28.604 M328.46,29.753c-0.428-0.236-0.902-0.436-1.424-0.61
			c-0.514-0.172-1.076-0.319-1.672-0.447c-0.598-0.125-1.232-0.235-1.898-0.332c-0.375-0.057-0.68-0.111-0.93-0.166
			s-0.441-0.108-0.588-0.164c-0.148-0.057-0.252-0.116-0.32-0.179c-0.07-0.065-0.105-0.133-0.121-0.206l-0.004-0.03
			c-0.014-0.069-0.008-0.128,0.021-0.184c0.027-0.054,0.076-0.102,0.148-0.142s0.168-0.07,0.285-0.092
			c0.119-0.021,0.26-0.033,0.428-0.033c0.309,0,0.641,0.021,0.984,0.061c0.346,0.045,0.707,0.107,1.074,0.192
			c0.369,0.088,0.748,0.199,1.127,0.335c0.381,0.138,0.764,0.303,1.143,0.494l1.301-2.266l1.596,4.6
			C329.279,30.265,328.894,29.991,328.46,29.753"/>
		<path fill="#FFFFFF" d="M312.14,16.459c-5.816-2.002-11.145-1.84-11.902,0.362c-0.17,0.494-0.096,1.047,0.188,1.634
			c0.01-0.113,0.023-0.227,0.039-0.34c-0.127-0.403-0.139-0.786-0.018-1.135c0.727-2.109,5.924-2.232,11.607-0.275
			c5.686,1.957,9.707,5.254,8.979,7.364c-0.121,0.349-0.361,0.643-0.709,0.882c-0.057,0.099-0.117,0.195-0.18,0.292
			c0.584-0.287,0.982-0.677,1.152-1.171C322.054,21.87,317.957,18.463,312.14,16.459"/>
		<path fill="#FFFFFF" d="M301.906,14.156c0.061-0.098,0.135-0.188,0.213-0.271c0.084-0.084,0.172-0.158,0.27-0.222
			c0.1-0.063,0.203-0.112,0.311-0.147c0.107-0.031,0.197-0.041,0.27-0.031c0.072,0.012,0.127,0.043,0.162,0.09
			c0.035,0.049,0.057,0.111,0.057,0.19c0,0.078-0.018,0.17-0.055,0.272c-0.033,0.102-0.08,0.2-0.143,0.296
			c-0.061,0.098-0.133,0.188-0.213,0.271c-0.082,0.081-0.17,0.152-0.268,0.216c-0.1,0.063-0.201,0.111-0.309,0.145
			c-0.109,0.035-0.199,0.044-0.271,0.035c-0.072-0.012-0.127-0.039-0.164-0.086c-0.035-0.049-0.055-0.11-0.057-0.188
			s0.016-0.166,0.051-0.268C301.794,14.356,301.843,14.256,301.906,14.156 M302.029,14.528c-0.004,0.052,0,0.093,0.016,0.128
			c0.016,0.036,0.041,0.059,0.08,0.07s0.094,0.005,0.162-0.015c0.07-0.021,0.133-0.054,0.191-0.095
			c0.057-0.04,0.107-0.089,0.154-0.141c0.043-0.054,0.082-0.109,0.115-0.168c0.033-0.061,0.059-0.117,0.078-0.178
			c0.023-0.06,0.035-0.116,0.041-0.169c0.008-0.054,0.002-0.097-0.014-0.132c-0.014-0.036-0.041-0.06-0.08-0.07
			c-0.039-0.013-0.094-0.006-0.162,0.014c-0.07,0.021-0.133,0.053-0.191,0.094c-0.057,0.041-0.109,0.088-0.154,0.143
			s-0.086,0.112-0.117,0.173c-0.033,0.061-0.061,0.122-0.08,0.182C302.046,14.423,302.033,14.478,302.029,14.528"/>
		<path fill="#FFFFFF" d="M304.291,13.259c0.064-0.008,0.121-0.004,0.164,0.012c0.047,0.014,0.084,0.036,0.107,0.067
			c0.025,0.031,0.041,0.069,0.045,0.113s-0.004,0.092-0.023,0.145c-0.027,0.081-0.07,0.153-0.127,0.217
			c-0.055,0.063-0.129,0.114-0.221,0.154l-0.002,0.003c0.037,0.008,0.062,0.021,0.082,0.038c0.018,0.018,0.031,0.042,0.037,0.069
			s0.008,0.059,0.002,0.093c-0.004,0.033-0.012,0.068-0.021,0.103c-0.006,0.023-0.014,0.048-0.021,0.075
			c-0.008,0.03-0.018,0.061-0.023,0.092c-0.01,0.03-0.014,0.06-0.016,0.086c-0.002,0.027,0.002,0.051,0.012,0.068l-0.322,0.032
			c0-0.041,0.006-0.093,0.023-0.152c0.016-0.061,0.027-0.118,0.039-0.173c0.016-0.072,0.01-0.121-0.014-0.153
			c-0.025-0.027-0.076-0.04-0.156-0.031l-0.32,0.031l-0.186,0.544l-0.32,0.031l0.477-1.385L304.291,13.259z M303.962,13.896
			c0.072-0.009,0.133-0.029,0.18-0.063c0.047-0.035,0.084-0.089,0.107-0.158c0.023-0.065,0.021-0.113-0.006-0.14
			c-0.025-0.026-0.076-0.037-0.148-0.029l-0.35,0.037l-0.137,0.389L303.962,13.896z"/>
		<path fill="#FFFFFF" d="M305.521,13.219c0.096,0.001,0.178,0.017,0.25,0.047c0.07,0.028,0.127,0.072,0.166,0.13
			c0.039,0.059,0.062,0.129,0.066,0.215c0.004,0.085-0.014,0.185-0.055,0.301c-0.033,0.101-0.08,0.195-0.137,0.277
			c-0.055,0.086-0.125,0.159-0.199,0.22c-0.076,0.062-0.162,0.109-0.258,0.145c-0.096,0.033-0.199,0.052-0.311,0.049l-0.629-0.007
			l0.475-1.384L305.521,13.219z M305.111,14.347c0.045,0.001,0.094-0.006,0.143-0.02s0.096-0.038,0.139-0.069
			c0.049-0.031,0.09-0.075,0.129-0.128s0.07-0.118,0.096-0.192c0.023-0.071,0.039-0.134,0.045-0.19s0-0.104-0.021-0.146
			c-0.02-0.04-0.051-0.072-0.098-0.093c-0.047-0.022-0.111-0.033-0.189-0.034l-0.229-0.004l-0.301,0.873L305.111,14.347z"/>
		<polygon fill="#FFFFFF" points="307.423,13.345 307.337,13.601 306.566,13.528 306.464,13.824 307.171,13.891 307.089,14.127 
			306.382,14.062 306.267,14.401 307.052,14.474 306.964,14.729 305.857,14.627 306.333,13.243 		"/>
		<polygon fill="#FFFFFF" points="308.031,13.432 308.041,14.439 308.042,14.44 308.691,13.54 309.138,13.615 308.662,15 
			308.363,14.95 308.703,13.969 308.697,13.968 308.005,14.891 307.761,14.851 307.742,13.821 307.738,13.819 307.404,14.789 
			307.105,14.741 307.583,13.359 		"/>
		<polygon fill="#FFFFFF" points="310.898,14.037 310.812,14.292 310.062,14.107 309.958,14.402 310.646,14.574 310.566,14.812 
			309.878,14.64 309.761,14.979 310.527,15.168 310.439,15.426 309.361,15.156 309.837,13.773 		"/>
		<path fill="#FFFFFF" d="M312.171,14.42c0.088,0.027,0.156,0.062,0.211,0.108c0.051,0.043,0.09,0.093,0.115,0.146
			c0.023,0.055,0.035,0.11,0.035,0.169c0,0.058-0.01,0.115-0.031,0.174c-0.018,0.056-0.047,0.106-0.084,0.154
			c-0.035,0.049-0.08,0.087-0.131,0.116c-0.053,0.029-0.115,0.047-0.186,0.053c-0.068,0.006-0.148-0.006-0.234-0.031l-0.322-0.104
			l-0.172,0.495l-0.307-0.096l0.479-1.385L312.171,14.42z M311.863,15.044c0.035,0.011,0.07,0.018,0.104,0.023
			c0.035,0.007,0.066,0.007,0.098-0.002c0.031-0.006,0.057-0.021,0.082-0.045c0.023-0.021,0.045-0.055,0.059-0.099
			c0.016-0.044,0.02-0.08,0.016-0.113c-0.006-0.032-0.02-0.06-0.039-0.082s-0.045-0.042-0.076-0.057
			c-0.031-0.017-0.062-0.028-0.098-0.041l-0.238-0.075l-0.143,0.414L311.863,15.044z"/>
		<path fill="#FFFFFF" d="M313.488,14.876c0.062,0.023,0.113,0.053,0.156,0.09c0.043,0.039,0.076,0.083,0.1,0.131
			c0.021,0.046,0.035,0.098,0.039,0.149c0.004,0.053-0.004,0.105-0.023,0.158c-0.027,0.082-0.068,0.145-0.125,0.192
			c-0.053,0.048-0.125,0.071-0.211,0.075l-0.002,0.004c0.033,0.023,0.059,0.052,0.076,0.081c0.016,0.03,0.027,0.062,0.033,0.098
			s0.006,0.071,0,0.109c-0.004,0.036-0.012,0.073-0.021,0.108c-0.006,0.022-0.014,0.049-0.021,0.078
			c-0.01,0.03-0.018,0.062-0.025,0.094c-0.008,0.033-0.014,0.064-0.016,0.095c-0.004,0.03,0,0.058,0.008,0.083l-0.303-0.111
			c0-0.051,0.006-0.106,0.023-0.168c0.018-0.062,0.031-0.123,0.043-0.18c0.016-0.078,0.012-0.138-0.01-0.184
			s-0.072-0.084-0.146-0.111l-0.303-0.109l-0.186,0.539l-0.303-0.109l0.477-1.384L313.488,14.876z M313.166,15.462
			c0.068,0.025,0.127,0.028,0.172,0.011s0.08-0.062,0.104-0.133c0.023-0.065,0.023-0.122-0.002-0.166
			c-0.023-0.041-0.07-0.076-0.141-0.1l-0.33-0.123l-0.133,0.389L313.166,15.462z"/>
		<path fill="#FFFFFF" d="M313.878,15.48c0.061-0.075,0.131-0.134,0.209-0.176c0.08-0.041,0.166-0.064,0.262-0.067
			c0.096-0.002,0.195,0.02,0.299,0.062c0.104,0.044,0.189,0.104,0.26,0.175c0.068,0.073,0.119,0.153,0.154,0.242
			c0.033,0.091,0.049,0.186,0.049,0.288c0,0.1-0.018,0.203-0.053,0.307c-0.033,0.101-0.082,0.188-0.143,0.262
			c-0.059,0.075-0.129,0.133-0.207,0.173c-0.08,0.041-0.168,0.063-0.26,0.064c-0.096,0.002-0.195-0.019-0.301-0.062
			c-0.102-0.044-0.189-0.101-0.258-0.175c-0.068-0.07-0.121-0.149-0.156-0.238s-0.053-0.184-0.053-0.283
			c0-0.101,0.018-0.2,0.053-0.3C313.769,15.646,313.816,15.556,313.878,15.48 M313.992,16.053c-0.006,0.062-0.004,0.12,0.01,0.175
			c0.016,0.057,0.041,0.107,0.08,0.153c0.037,0.048,0.088,0.084,0.154,0.111c0.068,0.03,0.129,0.04,0.184,0.034
			c0.057-0.009,0.105-0.026,0.15-0.058c0.043-0.034,0.082-0.073,0.115-0.123c0.031-0.048,0.057-0.104,0.076-0.162
			c0.021-0.06,0.035-0.121,0.043-0.184c0.004-0.061,0.002-0.122-0.012-0.179s-0.041-0.107-0.076-0.153
			c-0.039-0.047-0.092-0.085-0.158-0.113c-0.064-0.028-0.127-0.038-0.182-0.032c-0.057,0.008-0.107,0.026-0.15,0.06
			c-0.047,0.031-0.082,0.073-0.117,0.125c-0.033,0.051-0.059,0.106-0.08,0.168C314.009,15.933,313.996,15.991,313.992,16.053"/>
		<path fill="#FFFFFF" d="M315.738,17.429c-0.072-0.001-0.141-0.02-0.203-0.05c-0.102-0.05-0.186-0.112-0.252-0.189
			c-0.068-0.074-0.119-0.159-0.152-0.25c-0.033-0.094-0.049-0.189-0.047-0.292c0-0.1,0.018-0.202,0.051-0.302
			c0.037-0.104,0.084-0.193,0.145-0.268c0.059-0.073,0.127-0.131,0.207-0.169c0.078-0.038,0.164-0.056,0.256-0.055
			c0.092,0.003,0.191,0.028,0.291,0.075c0.068,0.035,0.129,0.076,0.184,0.131c0.057,0.05,0.104,0.109,0.141,0.176
			s0.062,0.139,0.072,0.215c0.014,0.079,0.008,0.156-0.01,0.24l-0.277-0.136c0.01-0.085-0.004-0.16-0.039-0.224
			c-0.035-0.062-0.09-0.11-0.158-0.145c-0.064-0.032-0.125-0.046-0.18-0.042c-0.053,0.004-0.104,0.021-0.148,0.052
			c-0.043,0.031-0.08,0.072-0.111,0.121c-0.033,0.051-0.059,0.109-0.082,0.168c-0.018,0.058-0.031,0.119-0.037,0.181
			c-0.008,0.06-0.004,0.119,0.01,0.178c0.014,0.058,0.037,0.11,0.074,0.159c0.037,0.05,0.088,0.09,0.152,0.12
			c0.096,0.049,0.178,0.058,0.246,0.033c0.07-0.025,0.127-0.085,0.168-0.177l-0.289-0.144l0.076-0.226l0.555,0.27l-0.26,0.749
			l-0.184-0.091l0.025-0.171C315.884,17.412,315.812,17.433,315.738,17.429"/>
		<path fill="#FFFFFF" d="M317.414,16.703c0.057,0.032,0.105,0.071,0.143,0.118c0.039,0.047,0.068,0.095,0.092,0.149
			c0.018,0.052,0.029,0.105,0.031,0.163c0.002,0.056-0.006,0.11-0.025,0.162c-0.027,0.081-0.066,0.144-0.119,0.185
			c-0.051,0.041-0.119,0.057-0.203,0.048v0.005c0.031,0.029,0.055,0.061,0.07,0.096c0.016,0.034,0.025,0.069,0.029,0.107
			c0.004,0.037,0.004,0.073-0.004,0.112c-0.004,0.038-0.012,0.076-0.021,0.112c-0.006,0.022-0.014,0.05-0.023,0.08
			c-0.008,0.03-0.016,0.062-0.023,0.094c-0.01,0.033-0.014,0.066-0.018,0.098c-0.002,0.03,0,0.06,0.006,0.087l-0.279-0.159
			c0-0.053,0.008-0.11,0.023-0.174c0.018-0.062,0.033-0.123,0.045-0.182c0.016-0.08,0.014-0.143-0.006-0.193
			c-0.02-0.052-0.062-0.096-0.135-0.136l-0.281-0.158l-0.184,0.538l-0.281-0.157l0.477-1.384L317.414,16.703z M317.097,17.272
			c0.064,0.036,0.117,0.048,0.162,0.036c0.041-0.013,0.074-0.055,0.1-0.126c0.023-0.065,0.023-0.123,0.002-0.171
			c-0.021-0.049-0.066-0.093-0.129-0.128l-0.309-0.174l-0.133,0.39L317.097,17.272z"/>
		<polygon fill="#FFFFFF" points="318.83,17.591 318.74,17.846 318.093,17.424 317.992,17.721 318.585,18.107 318.505,18.345 
			317.912,17.957 317.794,18.297 318.455,18.727 318.369,18.982 317.437,18.377 317.912,16.992 		"/>
		<path fill="#FFFFFF" d="M318.798,18.875c0.002,0.044,0.012,0.085,0.027,0.121c0.018,0.037,0.039,0.074,0.068,0.108
			c0.027,0.032,0.059,0.062,0.092,0.09c0.023,0.017,0.049,0.033,0.076,0.048c0.027,0.016,0.055,0.024,0.084,0.03
			c0.025,0.003,0.051,0.001,0.074-0.01c0.023-0.012,0.041-0.034,0.053-0.068c0.012-0.039,0.012-0.076,0-0.114
			c-0.012-0.04-0.031-0.079-0.059-0.118c-0.027-0.041-0.061-0.083-0.098-0.127c-0.037-0.042-0.074-0.087-0.109-0.133
			c-0.039-0.047-0.076-0.095-0.111-0.145c-0.035-0.051-0.062-0.104-0.088-0.159c-0.021-0.054-0.035-0.111-0.039-0.172
			c-0.006-0.059,0.004-0.121,0.023-0.185c0.025-0.069,0.059-0.122,0.105-0.156c0.041-0.031,0.092-0.049,0.145-0.054
			c0.053-0.004,0.107,0.007,0.166,0.03s0.111,0.054,0.164,0.095c0.062,0.046,0.117,0.099,0.168,0.156
			c0.049,0.061,0.092,0.123,0.121,0.195c0.031,0.068,0.049,0.141,0.057,0.216c0.006,0.075-0.004,0.153-0.033,0.234l-0.248-0.189
			c0.014-0.044,0.018-0.083,0.014-0.12c-0.004-0.036-0.014-0.07-0.027-0.103c-0.014-0.03-0.035-0.06-0.059-0.086
			c-0.025-0.027-0.053-0.053-0.084-0.076c-0.02-0.017-0.043-0.028-0.064-0.041c-0.023-0.01-0.045-0.014-0.066-0.014
			c-0.02,0-0.039,0.004-0.057,0.015c-0.018,0.013-0.033,0.032-0.043,0.062c-0.008,0.027-0.014,0.054-0.008,0.075
			c0.002,0.024,0.012,0.054,0.033,0.087s0.051,0.073,0.09,0.125c0.041,0.048,0.096,0.11,0.16,0.188
			c0.018,0.021,0.047,0.054,0.08,0.097c0.035,0.042,0.064,0.093,0.094,0.152c0.027,0.061,0.047,0.124,0.057,0.195
			c0.01,0.069,0.002,0.145-0.025,0.222c-0.021,0.062-0.051,0.114-0.09,0.153c-0.041,0.037-0.088,0.062-0.143,0.068
			c-0.055,0.01-0.115,0.001-0.182-0.021c-0.068-0.025-0.143-0.066-0.221-0.128c-0.062-0.051-0.123-0.105-0.176-0.172
			c-0.055-0.063-0.098-0.134-0.131-0.209c-0.033-0.076-0.051-0.154-0.057-0.237c-0.006-0.082,0.006-0.165,0.037-0.25l0.246,0.189
			C318.802,18.786,318.794,18.832,318.798,18.875"/>
		<path fill="#FFFFFF" d="M319.822,19.703c0.002,0.045,0.01,0.088,0.025,0.128c0.014,0.041,0.033,0.08,0.059,0.116
			s0.053,0.07,0.084,0.099c0.021,0.021,0.043,0.038,0.068,0.058c0.027,0.018,0.053,0.028,0.076,0.036
			c0.025,0.006,0.049,0.005,0.072-0.002c0.021-0.011,0.037-0.033,0.051-0.068c0.012-0.036,0.012-0.075,0.002-0.116
			s-0.027-0.082-0.051-0.127c-0.025-0.043-0.055-0.089-0.088-0.138c-0.033-0.048-0.066-0.096-0.1-0.146
			c-0.037-0.052-0.07-0.104-0.1-0.158c-0.031-0.054-0.059-0.11-0.078-0.168c-0.02-0.059-0.029-0.118-0.033-0.181
			c-0.004-0.061,0.006-0.124,0.029-0.188c0.023-0.071,0.057-0.121,0.098-0.15c0.043-0.032,0.088-0.047,0.137-0.045
			c0.051,0,0.102,0.015,0.156,0.045c0.051,0.027,0.104,0.063,0.15,0.109c0.055,0.052,0.104,0.111,0.15,0.176
			c0.045,0.063,0.082,0.133,0.109,0.207s0.043,0.149,0.045,0.229c0.006,0.078-0.006,0.157-0.035,0.237l-0.225-0.215
			c0.012-0.042,0.018-0.084,0.016-0.122c-0.002-0.037-0.012-0.072-0.023-0.105c-0.014-0.036-0.031-0.066-0.055-0.095
			c-0.021-0.03-0.047-0.058-0.074-0.086c-0.02-0.018-0.039-0.034-0.059-0.046c-0.021-0.012-0.043-0.02-0.062-0.021
			s-0.037,0.003-0.055,0.013c-0.018,0.009-0.029,0.031-0.039,0.061c-0.01,0.026-0.014,0.052-0.01,0.076
			c0,0.024,0.01,0.055,0.029,0.091s0.047,0.082,0.082,0.134c0.037,0.054,0.084,0.123,0.143,0.209
			c0.018,0.022,0.043,0.059,0.072,0.105c0.031,0.046,0.059,0.102,0.082,0.165c0.025,0.062,0.041,0.131,0.049,0.204
			c0.008,0.074,0,0.149-0.027,0.226c-0.023,0.064-0.051,0.114-0.09,0.151c-0.037,0.036-0.08,0.057-0.133,0.06
			c-0.049,0.005-0.105-0.009-0.17-0.039c-0.061-0.031-0.129-0.078-0.201-0.148c-0.059-0.055-0.111-0.119-0.16-0.189
			c-0.049-0.071-0.088-0.146-0.115-0.226s-0.045-0.165-0.047-0.248c-0.004-0.086,0.01-0.171,0.041-0.256l0.225,0.216
			C319.828,19.614,319.82,19.658,319.822,19.703"/>
		<path fill="#FFFFFF" d="M320.81,19.799c0.051-0.062,0.104-0.101,0.162-0.117c0.059-0.015,0.119-0.007,0.186,0.029
			c0.066,0.035,0.131,0.098,0.193,0.19c0.07,0.093,0.121,0.192,0.16,0.301c0.039,0.111,0.064,0.225,0.076,0.339
			c0.014,0.116,0.016,0.231,0.004,0.348c-0.01,0.115-0.035,0.225-0.07,0.327c-0.035,0.101-0.076,0.182-0.125,0.242
			s-0.104,0.099-0.16,0.111c-0.059,0.017-0.121,0.006-0.186-0.03c-0.064-0.035-0.129-0.098-0.195-0.191
			c-0.064-0.09-0.117-0.19-0.156-0.3c-0.041-0.111-0.066-0.222-0.08-0.337c-0.014-0.114-0.016-0.229-0.004-0.342
			c0.01-0.114,0.033-0.222,0.068-0.321C320.718,19.943,320.761,19.86,320.81,19.799 M320.826,20.496
			c-0.012,0.066-0.016,0.133-0.012,0.203c0.002,0.07,0.016,0.137,0.035,0.205s0.051,0.131,0.094,0.189
			c0.041,0.06,0.082,0.095,0.121,0.111c0.037,0.015,0.074,0.012,0.107-0.008c0.033-0.017,0.064-0.047,0.092-0.091
			s0.051-0.095,0.07-0.152c0.021-0.062,0.039-0.125,0.047-0.194c0.012-0.067,0.018-0.138,0.014-0.206
			c-0.002-0.071-0.014-0.141-0.035-0.207c-0.02-0.068-0.053-0.131-0.094-0.191c-0.041-0.058-0.082-0.095-0.121-0.109
			c-0.039-0.013-0.074-0.013-0.107,0.007s-0.066,0.051-0.094,0.097c-0.025,0.045-0.051,0.098-0.072,0.158
			C320.851,20.365,320.837,20.429,320.826,20.496"/>
		<path fill="#FFFFFF" d="M311.095,8.771c-3.598,0-6.783,1.775-8.727,4.494c2.084-0.89,6.186-0.607,10.561,0.899
			c4.379,1.504,7.783,3.81,8.875,5.796c0.01-0.156,0.014-0.311,0.014-0.469C321.818,13.571,317.017,8.771,311.095,8.771
			 M315.205,14.602l-0.486-0.315l-0.482,0.276l0.123-0.532l-0.436-0.366l0.553-0.015l0.201-0.476l0.227,0.507l0.557,0.07
			l-0.414,0.321L315.205,14.602z"/>
		<path fill="#FFFFFF" d="M311.988,16.902c-2.582-0.89-5.17-1.38-7.283-1.38c-2.186,0-3.643,0.526-4.031,1.448
			c-0.195,0.808-0.299,1.653-0.299,2.521c0,5.922,4.801,10.721,10.721,10.721c4.34,0,8.078-2.578,9.766-6.288
			C321.41,21.955,317.39,18.761,311.988,16.902 M301.416,17.309l0.15-0.412l0.102,0.399l0.357,0.01l-0.295,0.302l0.062,0.42
			l-0.277-0.221l-0.297,0.241l0.102-0.428l-0.23-0.259L301.416,17.309z M301.707,23.6l-0.258-0.22l-0.207,0.149l0.029-0.325
			l-0.225-0.254l0.264,0.013l0.074-0.317l0.133,0.349l0.283,0.058l-0.197,0.203L301.707,23.6z M302.634,22.853l-0.328-0.26
			l-0.291,0.196l0.057-0.416l-0.279-0.296l0.35-0.003c0,0,0.107-0.396,0.113-0.401l0.16,0.425l0.379,0.058l-0.281,0.264
			L302.634,22.853z M303.341,21.91l-0.184-0.139l-0.174,0.117l0.039-0.231l-0.16-0.171l0.207-0.003l0.072-0.228l0.088,0.234
			l0.223,0.026l-0.174,0.156L303.341,21.91z M318.777,23.433l0.176-0.425l0.109,0.402l0.379-0.004l-0.32,0.306l0.053,0.403
			l-0.297-0.194l-0.357,0.258l0.137-0.43l-0.279-0.255L318.777,23.433z M313.501,18.909l0.137-0.337l0.131,0.342l0.346,0.026
			l-0.271,0.227l0.084,0.347l-0.297-0.193l-0.305,0.188l0.092-0.342l-0.266-0.231L313.501,18.909z M304.376,25.087l-0.262-0.185
			l-0.23,0.131l0.043-0.29l-0.232-0.221l0.281,0.01l0.084-0.274l0.133,0.301l0.295,0.055l-0.205,0.176L304.376,25.087z
			 M304.726,24.017l-0.316-0.214l-0.283,0.163l0.064-0.349l-0.277-0.262h0.336l0.117-0.34l0.154,0.366l0.355,0.051l-0.264,0.225
			L304.726,24.017z M306.162,26.481l-0.381-0.248l-0.34,0.175l0.066-0.379l-0.348-0.3l0.42,0.017l0.133-0.378l0.189,0.409
			l0.439,0.066l-0.316,0.236L306.162,26.481z M306.121,20.032l0.092,0.389l-0.324-0.222l-0.326,0.21l0.086-0.396l-0.289-0.259
			l0.383-0.027l0.148-0.39l0.139,0.395l0.387,0.036L306.121,20.032z M309.373,23.303l-0.293-0.188l-0.301,0.179l0.086-0.334
			l-0.266-0.226l0.344-0.016l0.133-0.32l0.131,0.328l0.352,0.025l-0.27,0.224L309.373,23.303z M309.769,23.855l0.066-0.248
			l-0.197-0.162l0.26-0.015l0.096-0.24l0.102,0.246l0.266,0.021l-0.207,0.16l0.064,0.251l-0.223-0.142L309.769,23.855z
			 M310.923,28.833l-0.16-0.083l-0.17,0.083l0.053-0.144l-0.148-0.104l0.191-0.011l0.074-0.147l0.07,0.151l0.193,0.01l-0.15,0.104
			L310.923,28.833z M311.144,25.776l-0.41-0.237l-0.404,0.229l0.117-0.425l-0.371-0.293l0.479-0.026l0.188-0.424l0.178,0.432
			l0.479,0.033l-0.367,0.282L311.144,25.776z M311.091,21.8l0.102,0.404l-0.357-0.227l-0.357,0.216l0.102-0.405l-0.316-0.268
			l0.42-0.023l0.16-0.398L311,21.504l0.418,0.024L311.091,21.8z M312.335,23.265l-0.348-0.219l-0.357,0.213l0.107-0.388
			l-0.312-0.266l0.41-0.024l0.166-0.388l0.15,0.394l0.416,0.019l-0.328,0.266L312.335,23.265z M313.224,26.571l-0.295,0.165
			l0.092-0.293l-0.244-0.191l0.336-0.028l0.137-0.298l0.115,0.291l0.33,0.009l-0.266,0.209l0.068,0.28L313.224,26.571z
			 M314.396,27.967l-0.301-0.146l-0.334,0.174l0.113-0.304l-0.277-0.199l0.385-0.039l0.168-0.312l0.111,0.304l0.369-0.002
			l-0.299,0.222L314.396,27.967z M315.476,26.876l-0.254-0.14l-0.279,0.17l0.105-0.285l-0.232-0.173l0.314-0.042l0.146-0.285
			l0.096,0.271l0.305-0.003l-0.25,0.205L315.476,26.876z M316.511,28.417l-0.219-0.092l-0.266,0.153l0.107-0.243l-0.193-0.133
			l0.291-0.056l0.146-0.248l0.068,0.225l0.277-0.019l-0.242,0.187L316.511,28.417z M316.675,27.226l0.043,0.296l-0.266-0.138
			l-0.318,0.197l0.125-0.31l-0.246-0.179l0.354-0.056l0.172-0.322l0.09,0.291l0.34-0.016L316.675,27.226z M316.748,26.25
			l0.043,0.272l-0.238-0.129l-0.277,0.176l0.104-0.286l-0.213-0.17l0.311-0.048l0.143-0.289l0.084,0.268L317,26.036L316.748,26.25z
			 M317.81,26.413l-0.221-0.121l-0.26,0.175l0.102-0.279l-0.195-0.162l0.287-0.051l0.141-0.284l0.076,0.262l0.281-0.017
			l-0.242,0.209L317.81,26.413z M318.81,25.916l-0.238-0.141l-0.295,0.212l0.123-0.332l-0.219-0.189l0.332-0.065l0.154-0.336
			l0.08,0.309l0.301-0.02l-0.266,0.248L318.81,25.916z M319.373,25.043l-0.23-0.147l-0.289,0.214l0.117-0.342l-0.221-0.198
			l0.324-0.062l0.152-0.338l0.08,0.315l0.301-0.016l-0.266,0.252L319.373,25.043z M320.408,23.919l-0.178-0.129l-0.227,0.179
			l0.092-0.295l-0.168-0.169l0.248-0.05l0.119-0.295l0.061,0.278l0.232-0.012l-0.199,0.208L320.408,23.919z"/>
	</g>
	<g>
		<path fill-rule="evenodd" clip-rule="evenodd" fill="#FFFFFF" d="M202.664,16.831c-0.918,0.063-1.85,0.138-2.785,0.23h-0.004
			c-0.604,0.06-1.242,0.15-1.906,0.273c-0.67,0.126-1.361,0.283-2.064,0.471c-3.613,0.962-7.529,2.722-10.146,5.05
			c-0.631,0.561-1.307,1.31-1.857,2.188c-0.635,1.017-1.1,2.209-1.109,3.482c-0.01,1.267,0.431,2.642,1.604,4.052
			c0.694,0.837,1.645,1.686,2.903,2.531c0.657,0.439,1.337,0.861,2.07,1.273v0.002c0.357,0.201,0.722,0.396,1.097,0.587
			c0.004-0.404,0.023-0.801,0.058-1.188c0.183-2.103,0.763-3.92,1.306-5.19l0,0l0,0c0.426-0.994,0.93-1.975,1.492-2.938
			c0.557-0.95,1.164-1.868,1.801-2.748C197.544,21.566,200.441,18.734,202.664,16.831 M207.97,16.612
			c-0.076,0.055-0.166,0.119-0.271,0.192c-0.092,0.066-0.246,0.179-0.465,0.338c-0.785,0.57-1.564,1.166-2.328,1.779l0,0
			l-0.002,0.003c-0.701,0.562-1.377,1.137-2.02,1.722c-0.654,0.597-1.301,1.221-1.928,1.871c-3.197,3.321-5.863,7.272-7.121,11.684
			v0.003h-0.002l0,0c-0.029,0.098-0.057,0.211-0.084,0.335c-0.029,0.131-0.057,0.285-0.088,0.468
			c-0.113,0.715-0.195,1.703-0.102,2.839c-0.029,2.23-1.225,3.127-2.691,2.592c-2.955-1.184-5.258-2.482-6.997-3.965
			c-1.864-1.586-3.078-3.376-3.753-5.438v-0.001l0,0c-0.23-0.703-0.355-1.402-0.391-2.092c-0.035-0.681,0.021-1.354,0.152-2.007
			c0.651-3.254,3.184-6.048,5.674-7.837l0,0h0.002c0.365-0.265,0.783-0.539,1.25-0.817c0.449-0.271,0.959-0.558,1.529-0.853
			c2.836-1.471,6.787-2.968,10.84-3.519c1.432-0.194,2.848-0.33,4.238-0.413c1.299-0.081,2.6-0.116,3.885-0.122
			c1.598-1.06,3.223-2.045,4.855-2.954c1.699-0.948,3.406-1.817,5.107-2.611c8.639-4.033,17.193-6.193,23.795-7.222
			c0.078-0.071,0.15-0.131,0.225-0.184C241.693,0.121,242.195,0,242.64,0l0,0v0.005c0.604,0,1.148,0.254,1.543,0.663
			c0.393,0.41,0.635,0.977,0.635,1.598h0.002l0,0l0,0h-0.002c0,0.623-0.242,1.188-0.635,1.6c-0.395,0.409-0.939,0.662-1.543,0.662
			v0.006l0,0h-0.002V4.527c-0.328,0-0.635-0.073-0.91-0.204c-0.068-0.033-0.137-0.071-0.197-0.106
			c-0.164-0.1-0.314-0.227-0.447-0.366c-1.328,0.164-2.674,0.371-4.031,0.62c-1.52,0.28-3.021,0.611-4.502,0.983
			c-6.867,1.732-13.693,4.502-19.816,8.097C210.642,14.831,210.417,15.185,207.97,16.612z"/>
		<path fill="#FFFFFF" d="M190.602,28.87h0.433c0.146,0,0.249-0.023,0.309-0.075c0.061-0.053,0.09-0.121,0.09-0.21
			c0-0.083-0.029-0.146-0.088-0.196s-0.164-0.074-0.313-0.074h-0.43V28.87z M190.602,27.792h0.368c0.133,0,0.227-0.023,0.278-0.068
			c0.052-0.048,0.077-0.112,0.077-0.199c0-0.079-0.025-0.143-0.077-0.188c-0.052-0.045-0.143-0.066-0.271-0.066h-0.376V27.792z
			 M189.744,26.712h1.592c0.264,0,0.469,0.065,0.609,0.196c0.143,0.133,0.213,0.295,0.213,0.487c0,0.164-0.049,0.305-0.152,0.421
			c-0.066,0.076-0.166,0.137-0.295,0.183c0.197,0.048,0.343,0.128,0.436,0.244c0.092,0.116,0.141,0.262,0.141,0.435
			c0,0.146-0.033,0.273-0.1,0.388c-0.066,0.113-0.157,0.205-0.271,0.269c-0.072,0.043-0.18,0.073-0.324,0.091
			c-0.191,0.026-0.318,0.038-0.381,0.038h-1.467V26.712z M188.267,28.412l-0.305-0.988l-0.301,0.988H188.267z M188.445,29.009
			h-0.968l-0.134,0.454h-0.867l1.033-2.751h0.926l1.035,2.751h-0.891L188.445,29.009z M185.472,26.712h0.849v1.641
			c0,0.161-0.026,0.316-0.075,0.458c-0.052,0.146-0.131,0.271-0.238,0.381c-0.109,0.109-0.223,0.186-0.342,0.228
			c-0.165,0.062-0.363,0.091-0.594,0.091c-0.135,0-0.281-0.008-0.438-0.026c-0.157-0.02-0.292-0.057-0.397-0.111
			c-0.105-0.057-0.203-0.135-0.292-0.238c-0.089-0.102-0.147-0.208-0.181-0.317c-0.053-0.174-0.079-0.33-0.079-0.464v-1.641h0.849
			v1.68c0,0.148,0.042,0.268,0.124,0.351c0.083,0.086,0.198,0.128,0.347,0.128c0.146,0,0.261-0.042,0.345-0.125
			c0.082-0.083,0.124-0.202,0.124-0.354V26.712z"/>
		<path fill="#FFFFFF" d="M205.175,32.533l-0.377-1.218l-0.371,1.218H205.175z M205.394,33.269h-1.195l-0.162,0.56h-1.072
			l1.275-3.392h1.143l1.277,3.392h-1.098L205.394,33.269z"/>
		<path fill="#FFFFFF" d="M208.054,31.767h0.457c0.162,0,0.277-0.028,0.34-0.086c0.066-0.057,0.098-0.137,0.098-0.242
			c0-0.1-0.031-0.176-0.098-0.232c-0.062-0.055-0.176-0.083-0.336-0.083h-0.461V31.767z M208.054,33.1h0.535
			c0.182,0,0.307-0.031,0.383-0.095c0.072-0.064,0.109-0.15,0.109-0.259c0-0.101-0.035-0.181-0.109-0.243
			c-0.074-0.06-0.201-0.091-0.385-0.091h-0.533V33.1z M206.996,30.437h1.963c0.328,0,0.58,0.081,0.756,0.242
			c0.174,0.162,0.262,0.363,0.262,0.602c0,0.201-0.062,0.372-0.188,0.517c-0.084,0.096-0.205,0.172-0.365,0.227
			c0.244,0.059,0.422,0.159,0.537,0.302c0.113,0.143,0.174,0.323,0.174,0.539c0,0.176-0.043,0.334-0.123,0.476
			c-0.082,0.14-0.193,0.251-0.336,0.332c-0.088,0.05-0.221,0.088-0.398,0.111c-0.236,0.029-0.393,0.045-0.471,0.045h-1.811V30.437z"
			/>
		<path fill="#FFFFFF" d="M215.173,31.81h0.441c0.047,0,0.141-0.015,0.277-0.045c0.068-0.015,0.127-0.051,0.172-0.107
			c0.043-0.057,0.064-0.121,0.064-0.196c0-0.11-0.033-0.193-0.104-0.252c-0.07-0.06-0.201-0.089-0.391-0.089h-0.461V31.81z
			 M214.121,33.828v-3.392h1.746c0.324,0,0.572,0.026,0.744,0.083c0.17,0.055,0.309,0.156,0.416,0.309
			c0.104,0.149,0.156,0.333,0.156,0.55c0,0.189-0.041,0.351-0.121,0.486c-0.08,0.138-0.189,0.247-0.33,0.335
			c-0.092,0.052-0.215,0.097-0.369,0.131c0.125,0.042,0.217,0.085,0.273,0.128c0.037,0.026,0.094,0.085,0.168,0.176
			c0.072,0.093,0.121,0.161,0.146,0.211l0.508,0.983h-1.186l-0.561-1.035c-0.07-0.136-0.135-0.224-0.191-0.264
			c-0.074-0.053-0.16-0.076-0.256-0.076h-0.092v1.375H214.121z"/>
		<path fill="#FFFFFF" d="M222.722,32.533l-0.375-1.218l-0.373,1.218H222.722z M222.943,33.269h-1.197l-0.162,0.56h-1.072
			l1.275-3.392h1.143l1.277,3.392h-1.098L222.943,33.269z"/>
		<path fill="#FFFFFF" d="M227.185,31.203v1.855h0.256c0.221,0,0.375-0.026,0.469-0.073c0.092-0.048,0.166-0.133,0.217-0.254
			c0.053-0.121,0.08-0.319,0.08-0.59c0-0.358-0.059-0.605-0.176-0.739c-0.117-0.13-0.312-0.199-0.584-0.199H227.185z
			 M226.136,30.437h1.559c0.307,0,0.555,0.04,0.744,0.123c0.189,0.086,0.346,0.204,0.469,0.358c0.123,0.157,0.213,0.338,0.27,0.544
			c0.055,0.207,0.082,0.428,0.082,0.658c0,0.364-0.041,0.645-0.125,0.847c-0.082,0.196-0.195,0.365-0.342,0.498
			c-0.146,0.138-0.305,0.226-0.473,0.271c-0.23,0.062-0.439,0.093-0.625,0.093h-1.559V30.437z"/>
		<path fill="#FFFFFF" d="M230.728,32.139c0,0.344,0.062,0.588,0.191,0.739c0.125,0.15,0.299,0.224,0.52,0.224
			c0.225,0,0.398-0.073,0.521-0.219c0.125-0.147,0.186-0.41,0.186-0.789c0-0.32-0.064-0.556-0.193-0.703
			c-0.129-0.146-0.305-0.218-0.525-0.218c-0.209,0-0.381,0.074-0.508,0.224C230.791,31.545,230.728,31.795,230.728,32.139
			 M229.679,32.135c0-0.554,0.154-0.985,0.463-1.294c0.309-0.31,0.738-0.464,1.289-0.464c0.564,0,1,0.152,1.307,0.456
			c0.305,0.302,0.457,0.727,0.457,1.273c0,0.396-0.066,0.722-0.201,0.977c-0.133,0.252-0.326,0.451-0.578,0.594
			c-0.252,0.14-0.566,0.209-0.943,0.209c-0.383,0-0.699-0.06-0.951-0.181c-0.25-0.124-0.453-0.316-0.609-0.579
			C229.757,32.862,229.679,32.531,229.679,32.135z"/>
		<path fill="#FFFFFF" d="M240.095,31.81h0.441c0.049,0,0.141-0.015,0.277-0.045c0.07-0.015,0.129-0.051,0.172-0.107
			s0.066-0.121,0.066-0.196c0-0.11-0.035-0.193-0.105-0.252c-0.068-0.06-0.201-0.089-0.391-0.089h-0.461V31.81z M239.042,33.828
			v-3.392h1.746c0.326,0,0.572,0.026,0.744,0.083c0.172,0.055,0.311,0.156,0.416,0.309c0.104,0.149,0.156,0.333,0.156,0.55
			c0,0.189-0.041,0.351-0.121,0.486c-0.08,0.138-0.189,0.247-0.33,0.335c-0.09,0.052-0.213,0.097-0.369,0.131
			c0.125,0.042,0.217,0.085,0.273,0.128c0.039,0.026,0.096,0.085,0.168,0.176c0.074,0.093,0.123,0.161,0.146,0.211l0.508,0.983
			h-1.186l-0.559-1.035c-0.072-0.136-0.137-0.224-0.191-0.264c-0.074-0.053-0.162-0.076-0.258-0.076h-0.092v1.375H239.042z"/>
		<path fill="#FFFFFF" d="M236.402,33.1h0.535c0.18,0,0.309-0.031,0.381-0.095c0.074-0.064,0.111-0.15,0.111-0.259
			c0-0.101-0.037-0.181-0.111-0.243c-0.072-0.06-0.201-0.091-0.385-0.091h-0.531V33.1z M236.402,31.767h0.453
			c0.166,0,0.279-0.028,0.344-0.086c0.062-0.057,0.096-0.137,0.096-0.242c0-0.1-0.033-0.176-0.096-0.232
			c-0.064-0.055-0.176-0.083-0.334-0.083h-0.463V31.767z M235.343,30.437h1.963c0.328,0,0.578,0.081,0.754,0.242
			c0.174,0.162,0.264,0.363,0.264,0.602c0,0.201-0.064,0.372-0.188,0.517c-0.084,0.096-0.207,0.172-0.367,0.227
			c0.242,0.059,0.424,0.159,0.539,0.302s0.172,0.323,0.172,0.539c0,0.176-0.041,0.334-0.123,0.476
			c-0.082,0.14-0.193,0.251-0.336,0.332c-0.088,0.05-0.221,0.088-0.398,0.111c-0.234,0.029-0.393,0.045-0.471,0.045h-1.809V30.437z"
			/>
		<path fill="#FFFFFF" d="M244.585,32.533l-0.375-1.218l-0.373,1.218H244.585z M244.804,33.269h-1.195l-0.164,0.56h-1.072
			l1.277-3.392h1.143l1.275,3.392h-1.098L244.804,33.269z"/>
		<polygon fill="#FFFFFF" points="251.671,30.437 252.722,30.437 252.722,32.993 254.359,32.993 254.359,33.828 251.671,33.828 		
			"/>
		<rect x="249.869" y="30.437" fill="#FFFFFF" width="1.053" height="3.392"/>
		<path fill="#FFFFFF" d="M246.22,32.708l0.998-0.064c0.02,0.163,0.066,0.287,0.133,0.37c0.105,0.14,0.264,0.207,0.463,0.207
			c0.148,0,0.264-0.035,0.348-0.105c0.08-0.071,0.121-0.151,0.121-0.244c0-0.088-0.039-0.166-0.117-0.237
			c-0.078-0.068-0.256-0.136-0.537-0.197c-0.461-0.103-0.789-0.237-0.984-0.411c-0.199-0.171-0.297-0.39-0.297-0.655
			c0-0.174,0.051-0.337,0.152-0.494c0.1-0.154,0.252-0.275,0.457-0.366c0.201-0.088,0.48-0.133,0.834-0.133
			c0.434,0,0.766,0.081,0.992,0.242c0.227,0.162,0.363,0.418,0.406,0.771l-0.988,0.059c-0.027-0.154-0.084-0.266-0.166-0.335
			c-0.086-0.068-0.199-0.104-0.35-0.104c-0.121,0-0.213,0.025-0.275,0.078s-0.092,0.114-0.092,0.19c0,0.053,0.025,0.102,0.074,0.146
			c0.051,0.045,0.168,0.085,0.355,0.122c0.459,0.101,0.783,0.201,0.982,0.3c0.199,0.103,0.346,0.229,0.434,0.378
			c0.09,0.149,0.135,0.316,0.135,0.504c0,0.216-0.059,0.418-0.182,0.599c-0.117,0.185-0.287,0.325-0.502,0.418
			c-0.217,0.097-0.49,0.143-0.818,0.143c-0.576,0-0.977-0.109-1.199-0.332C246.376,33.332,246.25,33.05,246.22,32.708"/>
		<polygon fill="#FFFFFF" points="217.513,30.437 220.701,30.437 220.701,31.272 219.632,31.272 219.632,33.828 218.582,33.828 
			218.582,31.272 217.513,31.272 		"/>
		<polygon fill="#FFFFFF" points="210.681,30.437 213.49,30.437 213.49,31.161 211.73,31.161 211.73,31.7 213.363,31.7 
			213.363,32.392 211.73,32.392 211.73,33.062 213.541,33.062 213.541,33.828 210.681,33.828 		"/>
		<path fill="#FFFFFF" d="M243.488,26.893l-0.486-1.585l-0.486,1.585H243.488z M243.773,27.847h-1.551l-0.215,0.727h-1.393
			l1.658-4.408h1.486l1.658,4.408h-1.428L243.773,27.847z"/>
		<path fill="#FFFFFF" d="M247.232,25.162v2.409h0.332c0.287,0,0.49-0.031,0.609-0.093c0.121-0.063,0.215-0.176,0.285-0.333
			c0.064-0.155,0.098-0.41,0.098-0.764c0-0.469-0.072-0.787-0.227-0.961c-0.152-0.17-0.404-0.259-0.758-0.259H247.232z
			 M245.871,24.165h2.023c0.4,0,0.721,0.053,0.967,0.161c0.244,0.109,0.449,0.264,0.609,0.465c0.16,0.205,0.275,0.44,0.348,0.709
			c0.072,0.268,0.107,0.553,0.107,0.855c0,0.47-0.053,0.836-0.158,1.098c-0.107,0.259-0.258,0.475-0.447,0.65
			s-0.395,0.292-0.613,0.35c-0.299,0.08-0.57,0.12-0.812,0.12h-2.023V24.165z"/>
		<path fill="#FFFFFF" d="M237.914,25.162v2.409h0.334c0.285,0,0.488-0.031,0.607-0.093c0.121-0.063,0.215-0.176,0.283-0.333
			c0.068-0.155,0.102-0.41,0.102-0.764c0-0.469-0.076-0.787-0.229-0.961c-0.15-0.17-0.404-0.259-0.756-0.259H237.914z
			 M236.552,24.165h2.023c0.398,0,0.721,0.053,0.969,0.161c0.244,0.109,0.447,0.264,0.607,0.465c0.16,0.205,0.275,0.44,0.35,0.709
			c0.072,0.268,0.107,0.553,0.107,0.855c0,0.47-0.053,0.836-0.16,1.098c-0.109,0.259-0.256,0.475-0.447,0.65
			c-0.189,0.176-0.395,0.292-0.613,0.35c-0.299,0.08-0.568,0.12-0.812,0.12h-2.023V24.165z"/>
		<path fill="#FFFFFF" d="M226.283,25.951h0.576c0.061,0,0.18-0.02,0.359-0.06c0.092-0.02,0.166-0.066,0.223-0.14
			c0.057-0.074,0.084-0.159,0.084-0.255c0-0.143-0.043-0.252-0.137-0.327c-0.088-0.076-0.26-0.117-0.506-0.117h-0.6V25.951z
			 M224.916,28.573v-4.408h2.27c0.422,0,0.744,0.035,0.965,0.109c0.225,0.071,0.402,0.204,0.541,0.401
			c0.135,0.194,0.203,0.433,0.203,0.712c0,0.245-0.053,0.457-0.156,0.635c-0.105,0.179-0.248,0.32-0.43,0.433
			c-0.119,0.069-0.277,0.128-0.479,0.173c0.162,0.055,0.281,0.107,0.355,0.161c0.049,0.036,0.121,0.115,0.217,0.231
			c0.096,0.121,0.16,0.211,0.191,0.275l0.66,1.277h-1.541l-0.729-1.347c-0.092-0.173-0.176-0.287-0.246-0.34
			c-0.098-0.068-0.209-0.102-0.336-0.102h-0.119v1.788H224.916z"/>
		<polygon fill="#FFFFFF" points="250.64,24.165 254.292,24.165 254.292,25.105 252.005,25.105 252.005,25.807 254.125,25.807 
			254.125,26.706 252.005,26.706 252.005,27.576 254.359,27.576 254.359,28.573 250.64,28.573 		"/>
		<rect x="234.191" y="24.165" fill="#FFFFFF" width="1.365" height="4.408"/>
		<path fill="#FFFFFF" d="M229.451,27.115l1.297-0.08c0.027,0.208,0.086,0.37,0.172,0.479c0.139,0.181,0.34,0.27,0.602,0.27
			c0.193,0,0.342-0.045,0.449-0.139c0.105-0.09,0.156-0.196,0.156-0.315c0-0.114-0.049-0.217-0.148-0.309
			c-0.102-0.091-0.334-0.173-0.699-0.255c-0.598-0.133-1.023-0.311-1.277-0.534c-0.258-0.224-0.387-0.506-0.387-0.851
			c0-0.228,0.068-0.441,0.199-0.644s0.328-0.359,0.592-0.475c0.264-0.117,0.623-0.175,1.084-0.175c0.562,0,0.994,0.105,1.289,0.316
			c0.295,0.209,0.471,0.542,0.527,1.001l-1.283,0.073c-0.035-0.197-0.107-0.343-0.217-0.433s-0.26-0.136-0.451-0.136
			c-0.158,0-0.279,0.033-0.357,0.101c-0.082,0.065-0.123,0.149-0.123,0.246c0,0.069,0.033,0.131,0.102,0.188
			c0.062,0.06,0.217,0.112,0.457,0.165c0.594,0.126,1.021,0.256,1.279,0.387c0.258,0.134,0.445,0.295,0.562,0.489
			s0.176,0.413,0.176,0.653c0,0.283-0.078,0.544-0.234,0.781c-0.156,0.24-0.375,0.421-0.656,0.545
			c-0.281,0.123-0.635,0.186-1.062,0.186c-0.748,0-1.268-0.146-1.557-0.436C229.65,27.928,229.488,27.56,229.451,27.115"/>
		<polygon fill="#FFFFFF" points="220.445,24.165 224.095,24.165 224.095,25.105 221.81,25.105 221.81,25.807 223.931,25.807 
			223.931,26.706 221.81,26.706 221.81,27.576 224.162,27.576 224.162,28.573 220.445,28.573 		"/>
		<polygon fill="#FFFFFF" points="215.22,24.165 216.646,24.165 217.638,27.338 218.617,24.165 220,24.165 218.363,28.573 
			216.888,28.573 		"/>
		<rect x="213.314" y="24.165" fill="#FFFFFF" width="1.365" height="4.408"/>
		<polygon fill="#FFFFFF" points="208.136,24.165 209.41,24.165 211.07,26.604 211.07,24.165 212.355,24.165 212.355,28.573 
			211.07,28.573 209.417,26.153 209.417,28.573 208.136,28.573 		"/>
		<path fill="#FFFFFF" d="M205.867,24.165h1.359v2.627c0,0.262-0.041,0.508-0.123,0.739c-0.08,0.232-0.207,0.434-0.381,0.608
			c-0.172,0.173-0.355,0.294-0.547,0.365c-0.266,0.098-0.58,0.147-0.953,0.147c-0.215,0-0.449-0.015-0.701-0.045
			c-0.254-0.031-0.465-0.091-0.637-0.179c-0.17-0.09-0.326-0.216-0.469-0.382c-0.141-0.165-0.238-0.333-0.289-0.509
			c-0.084-0.28-0.127-0.527-0.127-0.746v-2.627h1.359v2.691c0,0.242,0.068,0.43,0.199,0.562c0.133,0.136,0.318,0.204,0.557,0.204
			c0.234,0,0.418-0.065,0.551-0.199c0.133-0.133,0.201-0.323,0.201-0.567V24.165z"/>
	</g>
</g>
</svg>
