<?xml version="1.0" encoding="utf-8"?>
<!-- Generator: Adobe Illustrator 16.0.4, SVG Export Plug-In . SVG Version: 6.00 Build 0)  -->
<!DOCTYPE svg PUBLIC "-//W3C//DTD SVG 1.1//EN" "http://www.w3.org/Graphics/SVG/1.1/DTD/svg11.dtd">
<svg version="1.1" id="Layer_1" xmlns="http://www.w3.org/2000/svg" xmlns:xlink="http://www.w3.org/1999/xlink" x="0px" y="0px"
	 width="84.033px" height="25.191px" viewBox="0 0 84.033 25.191" enable-background="new 0 0 84.033 25.191" xml:space="preserve">
<g>
	<g>
		<g>
			<path fill="#FFFFFF" d="M5.793,12.382c-0.323,0.154-1.039,0.336-1.952,0.336C1.451,12.718,0,11.224,0,8.924
				c0-2.476,1.729-3.975,4.031-3.975c0.9,0,1.537,0.19,1.817,0.337L5.558,6.377C5.2,6.222,4.699,6.087,4.086,6.087
				c-1.529,0-2.635,0.962-2.635,2.77c0,1.664,0.96,2.713,2.623,2.713c0.547,0,1.127-0.113,1.494-0.271L5.793,12.382z"/>
			<path fill="#FFFFFF" d="M9.455,5.074v7.521H8.08V5.074H9.455z"/>
			<path fill="#FFFFFF" d="M13.652,10.464l-0.648,2.129h-1.418l2.411-7.52h1.753l2.442,7.52h-1.485l-0.679-2.129H13.652z
				 M15.804,9.424l-0.592-1.851c-0.144-0.456-0.266-0.973-0.377-1.407h-0.024c-0.11,0.437-0.234,0.957-0.355,1.407l-0.582,1.851
				H15.804z"/>
			<path fill="#FFFFFF" d="M20.358,5.183c0.524-0.096,1.282-0.166,2.073-0.166c1.083,0,1.809,0.18,2.322,0.604
				c0.412,0.346,0.648,0.87,0.648,1.519c0,0.969-0.659,1.629-1.373,1.873v0.034c0.545,0.199,0.87,0.726,1.048,1.451
				c0.248,0.938,0.447,1.806,0.592,2.095h-1.406c-0.113-0.219-0.302-0.834-0.502-1.771c-0.222-0.982-0.568-1.296-1.351-1.317h-0.691
				v3.088h-1.36V5.183z M21.719,8.499h0.816c0.925,0,1.494-0.491,1.494-1.239c0-0.811-0.569-1.202-1.46-1.202
				c-0.438,0-0.716,0.03-0.852,0.066L21.719,8.499L21.719,8.499z"/>
		</g>
		<g>
			<g>
				<path fill="#FFFFFF" d="M1.42,17.466c-0.075,0.037-0.229,0.072-0.423,0.072c-0.453,0-0.791-0.285-0.791-0.811
					c0-0.51,0.34-0.846,0.839-0.846c0.197,0,0.325,0.041,0.38,0.068l-0.052,0.172c-0.076-0.039-0.188-0.068-0.32-0.068
					c-0.378,0-0.628,0.242-0.628,0.662c0,0.398,0.227,0.646,0.616,0.646c0.129,0,0.257-0.025,0.34-0.066L1.42,17.466z"/>
				<path fill="#FFFFFF" d="M2.591,16.763H1.969v0.578h0.696v0.174H1.759V15.91H2.63v0.174H1.97v0.506h0.622L2.591,16.763
					L2.591,16.763z"/>
				<path fill="#FFFFFF" d="M3.013,17.515V15.91h0.229l0.512,0.811c0.116,0.189,0.211,0.357,0.284,0.521h0.009
					c-0.019-0.215-0.022-0.41-0.022-0.66V15.91H4.22v1.605H4.009L3.5,16.697c-0.11-0.174-0.22-0.357-0.298-0.533l-0.007,0.002
					c0.012,0.205,0.016,0.396,0.016,0.662v0.688H3.013L3.013,17.515z"/>
				<path fill="#FFFFFF" d="M4.964,16.083H4.477v-0.176h1.188v0.176H5.175v1.432h-0.21L4.964,16.083L4.964,16.083z"/>
				<path fill="#FFFFFF" d="M5.924,15.933c0.104-0.023,0.256-0.035,0.395-0.035c0.224,0,0.368,0.043,0.468,0.131
					c0.078,0.07,0.126,0.182,0.126,0.309c0,0.205-0.135,0.35-0.301,0.404v0.006c0.121,0.045,0.195,0.16,0.233,0.328
					c0.051,0.223,0.09,0.379,0.124,0.439H6.755c-0.026-0.049-0.062-0.184-0.106-0.387c-0.047-0.221-0.136-0.303-0.323-0.309H6.131
					v0.693H5.924V15.933z M6.131,16.664h0.211c0.226,0,0.363-0.123,0.363-0.307c0-0.209-0.148-0.301-0.37-0.301
					c-0.1,0-0.168,0.01-0.204,0.018V16.664z"/>
				<path fill="#FFFFFF" d="M8.663,16.697c0,0.549-0.335,0.842-0.746,0.842c-0.426,0-0.721-0.326-0.721-0.814
					c0-0.51,0.313-0.844,0.745-0.844C8.38,15.878,8.663,16.216,8.663,16.697z M7.416,16.716c0,0.348,0.185,0.658,0.515,0.658
					c0.328,0,0.517-0.307,0.517-0.668c0-0.322-0.168-0.656-0.517-0.656C7.587,16.05,7.416,16.371,7.416,16.716z"/>
				<path fill="#FFFFFF" d="M9.804,15.91v1.605H9.593V15.91H9.804z"/>
				<path fill="#FFFFFF" d="M10.244,17.515V15.91h0.229l0.513,0.811c0.116,0.189,0.211,0.357,0.284,0.521h0.008
					c-0.02-0.215-0.023-0.41-0.023-0.66V15.91h0.197v1.605h-0.211l-0.51-0.818c-0.113-0.174-0.218-0.357-0.299-0.533l-0.009,0.002
					c0.016,0.205,0.018,0.396,0.018,0.662v0.688H10.244L10.244,17.515z"/>
				<path fill="#FFFFFF" d="M12.198,16.083h-0.49v-0.176h1.19v0.176h-0.492v1.432h-0.208V16.083L12.198,16.083z"/>
				<path fill="#FFFFFF" d="M13.987,16.763h-0.625v0.578h0.695v0.174h-0.904V15.91h0.87v0.174h-0.66v0.506h0.625L13.987,16.763
					L13.987,16.763z"/>
				<path fill="#FFFFFF" d="M15.631,17.443c-0.093,0.035-0.278,0.092-0.495,0.092c-0.242,0-0.443-0.064-0.601-0.215
					c-0.139-0.135-0.224-0.35-0.224-0.6c0-0.479,0.33-0.828,0.869-0.828c0.186,0,0.333,0.041,0.401,0.072l-0.052,0.174
					c-0.085-0.043-0.193-0.072-0.354-0.072c-0.393,0-0.646,0.244-0.646,0.645c0,0.408,0.241,0.648,0.62,0.648
					c0.135,0,0.229-0.02,0.274-0.041v-0.482h-0.323v-0.166h0.527v0.773H15.631z"/>
				<path fill="#FFFFFF" d="M16.028,15.933c0.104-0.023,0.254-0.035,0.394-0.035c0.224,0,0.368,0.043,0.468,0.131
					c0.076,0.07,0.124,0.182,0.124,0.309c0,0.205-0.135,0.35-0.297,0.404v0.006c0.119,0.045,0.192,0.16,0.23,0.328
					c0.054,0.223,0.092,0.379,0.124,0.439h-0.214c-0.025-0.049-0.061-0.184-0.103-0.387c-0.05-0.221-0.139-0.303-0.327-0.309h-0.195
					v0.693h-0.204V15.933z M16.231,16.664h0.211c0.224,0,0.364-0.123,0.364-0.307c0-0.209-0.15-0.301-0.369-0.301
					c-0.1,0-0.17,0.01-0.206,0.018V16.664z"/>
				<path fill="#FFFFFF" d="M17.657,17.007l-0.166,0.508h-0.215l0.55-1.605h0.246l0.549,1.605h-0.222l-0.172-0.508H17.657z
					 M18.184,16.849l-0.159-0.463c-0.033-0.104-0.058-0.201-0.083-0.295h-0.005c-0.021,0.094-0.045,0.191-0.079,0.293l-0.158,0.465
					H18.184z"/>
				<path fill="#FFFFFF" d="M18.934,15.933c0.128-0.023,0.279-0.035,0.44-0.035c0.299,0,0.511,0.072,0.652,0.201
					c0.144,0.131,0.229,0.314,0.229,0.574s-0.085,0.477-0.229,0.623c-0.154,0.152-0.401,0.232-0.716,0.232
					c-0.146,0-0.271-0.006-0.376-0.021V15.933z M19.142,17.353c0.056,0.008,0.129,0.01,0.21,0.01c0.445,0,0.685-0.246,0.685-0.682
					c0.004-0.379-0.212-0.619-0.65-0.619c-0.105,0-0.188,0.012-0.244,0.021V17.353L19.142,17.353z"/>
				<path fill="#FFFFFF" d="M21.974,16.697c0,0.549-0.336,0.842-0.746,0.842c-0.429,0-0.721-0.326-0.721-0.814
					c0-0.51,0.313-0.844,0.744-0.844C21.691,15.878,21.974,16.216,21.974,16.697z M20.725,16.716c0,0.348,0.188,0.658,0.517,0.658
					s0.514-0.307,0.514-0.668c0-0.322-0.166-0.656-0.513-0.656C20.896,16.05,20.725,16.371,20.725,16.716z"/>
				<path fill="#FFFFFF" d="M22.907,15.933c0.126-0.023,0.275-0.035,0.44-0.035c0.297,0,0.51,0.072,0.652,0.201
					c0.145,0.131,0.228,0.314,0.228,0.574s-0.083,0.477-0.231,0.623c-0.152,0.152-0.402,0.232-0.711,0.232
					c-0.151,0-0.273-0.006-0.378-0.021V15.933z M23.114,17.353c0.052,0.008,0.128,0.01,0.209,0.01c0.445,0,0.683-0.246,0.683-0.682
					c0.003-0.379-0.21-0.619-0.646-0.619c-0.109,0-0.19,0.012-0.245,0.021V17.353z"/>
				<path fill="#FFFFFF" d="M25.403,16.763h-0.622v0.578h0.693v0.174H24.57V15.91h0.87v0.174h-0.659v0.506h0.622V16.763z"/>
				<path fill="#FFFFFF" d="M0.485,19.871L0.32,20.376H0.104l0.549-1.607H0.9l0.547,1.607H1.227l-0.173-0.506H0.485z M1.013,19.708
					l-0.159-0.463c-0.035-0.104-0.058-0.201-0.084-0.293H0.769c-0.025,0.092-0.049,0.191-0.083,0.293l-0.156,0.463H1.013z"/>
				<path fill="#FFFFFF" d="M1.683,18.789c0.103-0.016,0.233-0.033,0.399-0.033c0.204,0,0.354,0.051,0.452,0.137
					c0.085,0.07,0.139,0.191,0.139,0.338c0,0.143-0.043,0.256-0.123,0.342c-0.113,0.117-0.29,0.176-0.492,0.176
					c-0.062,0-0.118-0.004-0.167-0.014v0.645H1.682L1.683,18.789L1.683,18.789z M1.892,19.56c0.045,0.016,0.103,0.02,0.171,0.02
					c0.25,0,0.403-0.121,0.403-0.344c0-0.211-0.153-0.314-0.379-0.314c-0.09,0-0.159,0.008-0.195,0.02V19.56z"/>
				<path fill="#FFFFFF" d="M2.953,18.791c0.105-0.018,0.257-0.035,0.396-0.035c0.223,0,0.367,0.045,0.466,0.135
					c0.079,0.07,0.125,0.182,0.125,0.305c0,0.211-0.134,0.354-0.3,0.41v0.008c0.121,0.041,0.196,0.156,0.235,0.324
					c0.052,0.221,0.089,0.379,0.122,0.439H3.784c-0.026-0.051-0.062-0.182-0.105-0.385c-0.046-0.219-0.134-0.305-0.324-0.312H3.161
					v0.697H2.953V18.791z M3.161,19.521h0.211c0.221,0,0.363-0.119,0.363-0.301c0-0.211-0.152-0.301-0.373-0.301
					c-0.099,0-0.167,0.008-0.202,0.016L3.161,19.521L3.161,19.521z"/>
				<path fill="#FFFFFF" d="M5.064,19.623H4.443v0.58H5.14v0.174H4.235v-1.607h0.866v0.176H4.443v0.51h0.621V19.623z"/>
				<path fill="#FFFFFF" d="M5.408,20.376v-1.607h0.227l0.516,0.812c0.115,0.189,0.211,0.355,0.284,0.521l0.009-0.004
					c-0.019-0.211-0.024-0.408-0.024-0.658v-0.674h0.194v1.607H6.404l-0.51-0.816c-0.112-0.178-0.221-0.359-0.299-0.533
					l-0.007,0.002c0.012,0.203,0.017,0.395,0.017,0.662v0.688H5.408z"/>
				<path fill="#FFFFFF" d="M6.978,18.794c0.125-0.021,0.273-0.039,0.439-0.039c0.297,0,0.511,0.076,0.648,0.201
					c0.146,0.133,0.229,0.316,0.229,0.578s-0.083,0.475-0.229,0.621c-0.153,0.15-0.402,0.234-0.713,0.234
					c-0.151,0-0.272-0.008-0.375-0.02V18.794z M7.185,20.212c0.051,0.01,0.127,0.01,0.209,0.01c0.445,0,0.685-0.246,0.685-0.684
					c0.002-0.379-0.213-0.619-0.65-0.619c-0.106,0-0.189,0.012-0.243,0.023V20.212z"/>
				<path fill="#FFFFFF" d="M8.771,18.769v1.607H8.561v-1.607H8.771z"/>
				<path fill="#FFFFFF" d="M9.024,20.253l0.89-1.301v-0.01H9.1v-0.176h1.083v0.127l-0.886,1.299v0.01h0.899v0.174H9.024V20.253z"/>
				<path fill="#FFFFFF" d="M10.712,19.871l-0.168,0.506h-0.213l0.547-1.607h0.249l0.548,1.607h-0.222l-0.172-0.506H10.712z
					 M11.241,19.708l-0.16-0.463c-0.036-0.104-0.06-0.201-0.085-0.293h-0.005c-0.021,0.092-0.045,0.191-0.078,0.293l-0.158,0.463
					H11.241z"/>
				<path fill="#FFFFFF" d="M13.1,20.304c-0.094,0.035-0.279,0.088-0.497,0.088c-0.243,0-0.44-0.061-0.599-0.213
					c-0.14-0.135-0.224-0.348-0.224-0.598c0-0.479,0.33-0.828,0.865-0.828c0.188,0,0.336,0.041,0.404,0.072l-0.051,0.168
					c-0.087-0.037-0.194-0.066-0.355-0.066c-0.393,0-0.646,0.24-0.646,0.646s0.245,0.648,0.621,0.648
					c0.134,0,0.227-0.021,0.276-0.047v-0.479H12.57v-0.166H13.1V20.304z"/>
				<path fill="#FFFFFF" d="M14.243,19.623h-0.62v0.58h0.696v0.174h-0.908v-1.607h0.87v0.176h-0.658v0.51h0.62V19.623L14.243,19.623
					z"/>
				<path fill="#FFFFFF" d="M15.942,19.671c-0.013-0.227-0.026-0.496-0.026-0.695h-0.007c-0.057,0.186-0.12,0.391-0.202,0.611
					l-0.285,0.779h-0.155l-0.263-0.766c-0.075-0.23-0.138-0.436-0.186-0.625h-0.003c-0.005,0.199-0.017,0.465-0.03,0.711
					l-0.043,0.689h-0.196l0.109-1.607h0.266l0.275,0.777c0.065,0.195,0.119,0.375,0.162,0.541h0.006
					c0.042-0.162,0.099-0.34,0.17-0.541l0.285-0.777h0.266l0.1,1.607h-0.207L15.942,19.671z"/>
				<path fill="#FFFFFF" d="M17.84,19.623h-0.623v0.58h0.696v0.174h-0.907v-1.607h0.872v0.176h-0.661v0.51h0.623V19.623z"/>
				<path fill="#FFFFFF" d="M19.534,19.671c-0.014-0.227-0.027-0.496-0.027-0.695h-0.005c-0.057,0.186-0.122,0.391-0.202,0.611
					l-0.283,0.779h-0.157l-0.264-0.768c-0.076-0.229-0.137-0.434-0.183-0.623H18.41c-0.006,0.197-0.018,0.465-0.032,0.711
					l-0.042,0.688h-0.197l0.11-1.607h0.264l0.276,0.779c0.063,0.193,0.119,0.375,0.162,0.539h0.003
					c0.044-0.162,0.101-0.34,0.172-0.539l0.285-0.779h0.267l0.101,1.607h-0.204L19.534,19.671z"/>
				<path fill="#FFFFFF" d="M20.603,18.791c0.104-0.018,0.26-0.035,0.399-0.035c0.222,0,0.366,0.045,0.465,0.135
					c0.079,0.07,0.126,0.182,0.126,0.305c0,0.211-0.135,0.354-0.302,0.41v0.008c0.122,0.041,0.196,0.156,0.233,0.324
					c0.056,0.221,0.093,0.379,0.125,0.439h-0.214c-0.028-0.051-0.063-0.182-0.105-0.385c-0.048-0.219-0.133-0.305-0.323-0.312
					h-0.195v0.697h-0.209V18.791z M20.812,19.521h0.21c0.223,0,0.362-0.119,0.362-0.301c0-0.211-0.148-0.301-0.368-0.301
					c-0.1,0-0.168,0.008-0.204,0.016V19.521z"/>
				<path fill="#FFFFFF" d="M22.715,19.623h-0.62v0.58h0.695v0.174h-0.904v-1.607h0.867v0.176h-0.658v0.51h0.62V19.623z"/>
				<path fill="#FFFFFF" d="M23.056,18.794c0.128-0.021,0.278-0.039,0.442-0.039c0.3,0,0.511,0.076,0.651,0.201
					c0.146,0.133,0.229,0.316,0.229,0.578s-0.082,0.475-0.231,0.621c-0.151,0.15-0.4,0.234-0.713,0.234
					c-0.149,0-0.271-0.008-0.378-0.02V18.794z M23.265,20.212c0.053,0.01,0.128,0.01,0.211,0.01c0.442,0,0.683-0.246,0.683-0.684
					c0.002-0.379-0.211-0.619-0.651-0.619c-0.106,0-0.188,0.012-0.243,0.023L23.265,20.212L23.265,20.212z"/>
				<path fill="#FFFFFF" d="M25.475,19.623h-0.621v0.58h0.695v0.174h-0.903v-1.607h0.867v0.176h-0.659v0.51h0.621V19.623z"/>
			</g>
		</g>
	</g>
	<path fill="#FFFFFF" d="M38.864,9.479l1.939,1.123l1.939,1.121v2.245v2.242l-1.939,1.125l-1.939,1.117l-1.943-1.117l-1.941-1.125
		v-2.242v-2.245l1.941-1.121L38.864,9.479L38.864,9.479z M42.753,3.649l-1.552,0.895l-1.556,0.898v1.791v1.791l1.556,0.9
		l1.552,0.895l1.554-0.895l1.553-0.9V7.233V5.442l-1.553-0.898L42.753,3.649L42.753,3.649z M45.091,17.566l1.168,0.674l1.171,0.67
		v1.344v1.342l-1.171,0.674l-1.168,0.672l-1.169-0.672l-1.171-0.674v-1.342V18.91l1.171-0.672L45.091,17.566L45.091,17.566z
		 M55.2,9.935l1.558,0.896l1.561,0.896v1.793v1.791l-1.561,0.896L55.2,17.103l-1.559-0.896l-1.557-0.896v-1.791v-1.793l1.557-0.896
		L55.2,9.935L55.2,9.935z M52.005,0l-2.334,1.345L47.338,2.69v2.693v2.69l2.333,1.347l2.334,1.344l2.335-1.344l2.332-1.347v-2.69
		V2.69L54.34,1.345L52.005,0L52.005,0z M52.084,16.208l-1.942,1.123l-1.943,1.121v2.248v2.246l1.943,1.119l1.942,1.125l1.944-1.125
		l1.942-1.119v-2.246v-2.248l-1.942-1.121L52.084,16.208z"/>
	<path fill="#FFFFFF" d="M61.013,5.097v4.452c0.002,0.843,0.128,1.531,0.378,2.074c0.252,0.539,0.612,0.939,1.086,1.199
		c0.475,0.258,1.048,0.387,1.724,0.385c0.695,0,1.291-0.129,1.789-0.396c0.494-0.262,0.875-0.664,1.138-1.204
		c0.263-0.534,0.396-1.213,0.399-2.034V5.097h-1.802v4.579c-0.001,0.712-0.128,1.235-0.378,1.576
		c-0.252,0.342-0.612,0.511-1.089,0.508c-0.459,0-0.812-0.171-1.062-0.521c-0.251-0.343-0.378-0.865-0.381-1.562V5.097H61.013
		L61.013,5.097z M70.198,13.078H72V9.869h2.864V8.401H72V6.576h3.064V5.097h-4.866V13.078L70.198,13.078z M83.952,8.519h-2.971v1.41
		h1.228v1.668c-0.071,0.031-0.188,0.057-0.337,0.075c-0.154,0.021-0.333,0.03-0.537,0.03c-0.372,0-0.71-0.059-1.018-0.173
		c-0.307-0.118-0.574-0.285-0.798-0.513c-0.226-0.222-0.397-0.492-0.521-0.816c-0.122-0.32-0.184-0.688-0.187-1.104
		c0.002-0.433,0.069-0.812,0.204-1.137c0.134-0.322,0.319-0.596,0.559-0.809c0.24-0.217,0.521-0.379,0.841-0.486
		c0.321-0.107,0.672-0.159,1.05-0.159c0.29,0,0.548,0.013,0.771,0.043c0.223,0.029,0.424,0.07,0.598,0.12
		c0.174,0.053,0.335,0.112,0.479,0.18l0.379-1.469c-0.13-0.059-0.305-0.111-0.52-0.169c-0.215-0.056-0.462-0.104-0.748-0.142
		c-0.288-0.034-0.599-0.055-0.946-0.059c-0.657,0-1.263,0.094-1.812,0.278c-0.553,0.187-1.035,0.456-1.444,0.813
		s-0.727,0.793-0.953,1.312c-0.226,0.516-0.342,1.107-0.348,1.773c0,0.393,0.043,0.767,0.133,1.119
		c0.087,0.354,0.212,0.683,0.38,0.981c0.165,0.302,0.371,0.569,0.611,0.802c0.366,0.35,0.817,0.618,1.351,0.795
		c0.537,0.18,1.167,0.271,1.894,0.271c0.355-0.004,0.702-0.029,1.036-0.076c0.336-0.051,0.645-0.104,0.924-0.174
		c0.282-0.07,0.517-0.137,0.705-0.199L83.952,8.519L83.952,8.519z"/>
	<g>
		<path fill="#FFFFFF" d="M60.998,15.781v1.01c0,0.576,0.263,0.832,0.721,0.832c0.472,0,0.753-0.268,0.753-0.826v-1.016h-0.409
			v1.039c0,0.324-0.116,0.473-0.33,0.473c-0.208,0-0.328-0.158-0.328-0.473v-1.039H60.998L60.998,15.781z M63.656,17.591v-0.543
			c0-0.299-0.006-0.553-0.02-0.793h0.009c0.088,0.215,0.207,0.441,0.314,0.637l0.386,0.699h0.432v-1.811h-0.375v0.529
			c0,0.271,0.007,0.518,0.031,0.754h-0.005c-0.083-0.201-0.188-0.428-0.297-0.617l-0.373-0.666h-0.478v1.811H63.656L63.656,17.591z
			 M65.584,15.781v1.811h0.409v-1.811H65.584L65.584,15.781z M67.701,17.591l0.609-1.811h-0.435l-0.23,0.773
			c-0.062,0.209-0.118,0.424-0.162,0.641h-0.011c-0.043-0.227-0.099-0.428-0.159-0.646l-0.222-0.768h-0.445l0.578,1.811H67.701
			L67.701,17.591z M70.032,16.494H69.37v-0.373h0.707v-0.34h-1.116v1.811h1.151v-0.334H69.37v-0.432h0.662V16.494L70.032,16.494z
			 M70.843,17.591h0.404v-0.717h0.12c0.17,0.006,0.248,0.064,0.299,0.293c0.05,0.225,0.095,0.371,0.123,0.424h0.418
			c-0.034-0.068-0.09-0.307-0.146-0.516c-0.045-0.168-0.115-0.287-0.239-0.334v-0.01c0.153-0.057,0.318-0.215,0.318-0.439
			c0-0.168-0.061-0.291-0.172-0.379c-0.128-0.104-0.312-0.143-0.582-0.143c-0.223,0-0.413,0.012-0.545,0.037L70.843,17.591
			L70.843,17.591z M71.247,16.089c0.03-0.008,0.086-0.018,0.185-0.018c0.188,0,0.301,0.088,0.301,0.252
			c0,0.156-0.121,0.258-0.326,0.258h-0.16L71.247,16.089L71.247,16.089z M72.816,17.507c0.103,0.057,0.306,0.113,0.514,0.113
			c0.494,0,0.726-0.258,0.726-0.561c0-0.258-0.147-0.426-0.467-0.543c-0.235-0.094-0.335-0.143-0.335-0.258
			c0-0.092,0.085-0.174,0.264-0.174c0.174,0,0.306,0.051,0.375,0.086l0.091-0.33c-0.108-0.049-0.256-0.088-0.461-0.088
			c-0.425,0-0.685,0.232-0.685,0.539c0,0.268,0.198,0.436,0.499,0.541c0.216,0.074,0.304,0.145,0.304,0.252
			c0,0.119-0.101,0.197-0.287,0.197c-0.174,0-0.347-0.055-0.454-0.111L72.816,17.507L72.816,17.507z M74.787,15.781v1.811h0.409
			v-1.811H74.787L74.787,15.781z M76.004,17.583c0.098,0.014,0.252,0.027,0.463,0.027c0.355,0,0.646-0.078,0.836-0.236
			c0.173-0.145,0.3-0.385,0.3-0.732c0-0.318-0.118-0.543-0.307-0.686c-0.171-0.129-0.396-0.186-0.743-0.186
			c-0.204,0-0.398,0.008-0.549,0.037V17.583L76.004,17.583z M76.41,16.099c0.036-0.008,0.097-0.016,0.185-0.016
			c0.355,0,0.575,0.184,0.575,0.574c0,0.432-0.245,0.635-0.617,0.635c-0.048,0-0.105,0-0.143-0.012V16.099L76.41,16.099z
			 M79.261,17.126l0.141,0.465h0.439l-0.562-1.811h-0.534l-0.551,1.811h0.423l0.125-0.465H79.261L79.261,17.126z M78.8,16.82
			l0.112-0.381c0.025-0.107,0.055-0.242,0.079-0.35h0.008c0.027,0.102,0.06,0.24,0.089,0.35l0.114,0.381H78.8L78.8,16.82z
			 M80.534,17.583c0.099,0.014,0.252,0.027,0.466,0.027c0.352,0,0.645-0.078,0.835-0.236c0.171-0.145,0.3-0.385,0.3-0.732
			c0-0.318-0.119-0.543-0.309-0.686c-0.168-0.129-0.396-0.186-0.742-0.186c-0.204,0-0.399,0.008-0.55,0.037V17.583L80.534,17.583z
			 M80.943,16.099c0.034-0.008,0.095-0.016,0.185-0.016c0.354,0,0.575,0.184,0.575,0.574c0,0.432-0.245,0.635-0.619,0.635
			c-0.049,0-0.106,0-0.141-0.012V16.099L80.943,16.099z M83.93,16.494h-0.666v-0.373h0.707v-0.34h-1.114v1.811h1.15v-0.334h-0.743
			v-0.432h0.666V16.494z"/>
		<path fill="#FFFFFF" d="M60.991,20.673h0.407v-0.727h0.649v-0.334h-0.649v-0.412h0.694v-0.336H60.99L60.991,20.673L60.991,20.673z
			 M63.401,19.576h-0.665v-0.375h0.706v-0.336h-1.114v1.809h1.151v-0.332h-0.743V19.91h0.665V19.576L63.401,19.576z M63.759,20.666
			c0.101,0.014,0.253,0.025,0.464,0.025c0.355,0,0.647-0.072,0.837-0.232c0.174-0.145,0.298-0.387,0.298-0.729
			c0-0.324-0.118-0.547-0.308-0.689c-0.17-0.129-0.396-0.188-0.744-0.188c-0.202,0-0.398,0.014-0.548,0.043L63.759,20.666
			L63.759,20.666z M64.166,19.181c0.035-0.01,0.098-0.016,0.186-0.016c0.354,0,0.576,0.186,0.576,0.572
			c0,0.434-0.249,0.637-0.622,0.635c-0.047,0-0.104,0-0.14-0.008V19.181L64.166,19.181z M66.7,19.576h-0.663v-0.375h0.704v-0.336
			h-1.113v1.809h1.15v-0.332h-0.741V19.91H66.7V19.576L66.7,19.576z M67.057,20.673h0.405V19.96h0.123
			c0.166,0,0.245,0.062,0.298,0.289c0.049,0.227,0.094,0.371,0.121,0.424h0.42c-0.034-0.068-0.09-0.307-0.145-0.514
			c-0.045-0.17-0.115-0.287-0.243-0.336v-0.01c0.155-0.055,0.32-0.215,0.32-0.439c0-0.166-0.06-0.293-0.171-0.381
			c-0.131-0.1-0.315-0.143-0.585-0.143c-0.221,0-0.41,0.016-0.544,0.043V20.673L67.057,20.673z M67.462,19.171
			c0.03-0.012,0.087-0.012,0.188-0.012c0.188,0,0.299,0.086,0.299,0.246c0,0.156-0.122,0.26-0.325,0.26h-0.162L67.462,19.171
			L67.462,19.171z M69.611,20.208l0.141,0.465h0.44l-0.564-1.809h-0.535l-0.552,1.809h0.423l0.128-0.465H69.611L69.611,20.208z
			 M69.151,19.906l0.108-0.387c0.031-0.104,0.058-0.238,0.08-0.348h0.008c0.028,0.104,0.057,0.242,0.089,0.348l0.112,0.387H69.151
			L69.151,19.906z M70.408,20.673h1.127V20.33h-0.72v-1.465h-0.408L70.408,20.673L70.408,20.673z M72.395,20.666
			c0.101,0.014,0.251,0.025,0.465,0.025c0.354,0,0.646-0.074,0.835-0.232c0.174-0.146,0.3-0.387,0.3-0.729
			c0-0.324-0.119-0.547-0.304-0.689c-0.173-0.131-0.398-0.188-0.744-0.188c-0.204,0-0.401,0.014-0.552,0.043V20.666L72.395,20.666z
			 M72.803,19.181c0.037-0.01,0.098-0.016,0.188-0.016c0.354,0,0.572,0.186,0.572,0.572c0,0.434-0.243,0.637-0.615,0.635
			c-0.049,0-0.106,0-0.145-0.008V19.181L72.803,19.181z M75.338,19.576h-0.667v-0.375h0.709v-0.336h-1.117v1.809h1.153v-0.332H74.67
			V19.91h0.667L75.338,19.576L75.338,19.576z M78.1,19.642h-0.675v0.318h0.28v0.379c-0.033,0.016-0.108,0.021-0.2,0.021
			c-0.335,0-0.571-0.217-0.571-0.59c0-0.396,0.263-0.586,0.602-0.586c0.2,0,0.32,0.033,0.421,0.078l0.085-0.332
			c-0.09-0.037-0.268-0.086-0.503-0.086c-0.593,0-1.029,0.344-1.031,0.945c0,0.268,0.09,0.502,0.254,0.66
			c0.166,0.156,0.406,0.238,0.734,0.238c0.24,0,0.479-0.059,0.605-0.1L78.1,19.642L78.1,19.642z M79.187,20.705
			c0.529,0,0.888-0.359,0.888-0.953c0-0.5-0.305-0.916-0.86-0.916c-0.531,0-0.879,0.404-0.879,0.945
			C78.335,20.298,78.65,20.705,79.187,20.705L79.187,20.705L79.187,20.705z M79.201,20.376c-0.275,0-0.439-0.262-0.439-0.604
			c0-0.338,0.16-0.613,0.442-0.613c0.279,0,0.432,0.281,0.432,0.605c0,0.354-0.158,0.611-0.432,0.611H79.201L79.201,20.376z
			 M80.343,18.865v1.809h0.408v-1.809H80.343L80.343,18.865z M82.045,20.208l0.138,0.465h0.44l-0.563-1.809h-0.534l-0.553,1.809
			h0.424l0.127-0.465H82.045L82.045,20.208z M81.584,19.906l0.108-0.387c0.027-0.105,0.056-0.238,0.082-0.348h0.007
			c0.025,0.104,0.058,0.242,0.089,0.348l0.112,0.387H81.584L81.584,19.906z M81.859,18.431l-0.235,0.338h0.323l0.335-0.338H81.859
			L81.859,18.431z M82.796,20.591c0.103,0.057,0.307,0.111,0.513,0.111c0.497,0,0.725-0.258,0.725-0.559
			c0-0.262-0.146-0.43-0.467-0.545c-0.236-0.092-0.335-0.143-0.335-0.26c0-0.09,0.087-0.174,0.265-0.174
			c0.174,0,0.303,0.055,0.375,0.088l0.09-0.328c-0.109-0.053-0.256-0.092-0.46-0.092c-0.425,0-0.684,0.234-0.684,0.541
			c0,0.268,0.196,0.434,0.498,0.539c0.217,0.076,0.303,0.146,0.303,0.254c0,0.121-0.099,0.201-0.289,0.201
			c-0.173,0-0.344-0.061-0.451-0.113L82.796,20.591z"/>
	</g>
</g>
</svg>
